<mxfile host="app.diagrams.net" agent="Mozilla/5.0 (Windows NT 10.0; Win64; x64; rv:143.0) Gecko/20100101 Firefox/143.0" version="28.2.5" pages="8">
  <diagram name="Page-1" id="VYWKc8jBmztWI3G8vw6a">
    <mxGraphModel dx="1042" dy="663" grid="1" gridSize="10" guides="1" tooltips="1" connect="1" arrows="1" fold="1" page="1" pageScale="1" pageWidth="850" pageHeight="1100" math="0" shadow="0">
      <root>
        <mxCell id="0" />
        <mxCell id="1" parent="0" />
        <mxCell id="fIHRvPvFTuCWdLpY6IQI-1" value="&lt;div&gt;&lt;font face=&quot;Times New Roman&quot;&gt;&lt;br&gt;&lt;/font&gt;&lt;/div&gt;&lt;div&gt;&lt;font face=&quot;Times New Roman&quot;&gt;&lt;br&gt;&lt;/font&gt;&lt;/div&gt;&lt;div&gt;&lt;font face=&quot;Times New Roman&quot;&gt;&lt;br&gt;&lt;/font&gt;&lt;/div&gt;&lt;div&gt;&lt;font face=&quot;Times New Roman&quot;&gt;&lt;br&gt;&lt;/font&gt;&lt;/div&gt;&lt;div&gt;&lt;font face=&quot;Times New Roman&quot;&gt;&lt;br&gt;&lt;/font&gt;&lt;/div&gt;&lt;div&gt;&lt;font face=&quot;Times New Roman&quot;&gt;&lt;br&gt;&lt;/font&gt;&lt;/div&gt;&lt;div&gt;&lt;font face=&quot;Times New Roman&quot;&gt;&lt;br&gt;&lt;/font&gt;&lt;/div&gt;&lt;div&gt;&lt;font face=&quot;Times New Roman&quot;&gt;&lt;br&gt;&lt;/font&gt;&lt;/div&gt;&lt;div&gt;&lt;font face=&quot;Times New Roman&quot;&gt;&lt;br&gt;&lt;/font&gt;&lt;/div&gt;&lt;div&gt;&lt;font face=&quot;Times New Roman&quot;&gt;&lt;br&gt;&lt;/font&gt;&lt;/div&gt;&lt;div&gt;&lt;font face=&quot;Times New Roman&quot;&gt;&lt;br&gt;&lt;/font&gt;&lt;/div&gt;&lt;div&gt;&lt;font face=&quot;Times New Roman&quot;&gt;&lt;br&gt;&lt;/font&gt;&lt;/div&gt;&lt;div&gt;&lt;font face=&quot;Times New Roman&quot;&gt;Presentation Layer&lt;/font&gt;&lt;/div&gt;" style="whiteSpace=wrap;html=1;aspect=fixed;" parent="1" vertex="1">
          <mxGeometry x="150" y="110" width="200" height="200" as="geometry" />
        </mxCell>
        <mxCell id="fIHRvPvFTuCWdLpY6IQI-2" value="&lt;font face=&quot;Times New Roman&quot;&gt;Tenant&lt;/font&gt;" style="rounded=0;whiteSpace=wrap;html=1;" parent="1" vertex="1">
          <mxGeometry x="190" y="120" width="120" height="40" as="geometry" />
        </mxCell>
        <mxCell id="fIHRvPvFTuCWdLpY6IQI-3" value="&lt;font face=&quot;Times New Roman&quot;&gt;Landlord/Agent&lt;/font&gt;" style="rounded=0;whiteSpace=wrap;html=1;" parent="1" vertex="1">
          <mxGeometry x="190" y="180" width="120" height="40" as="geometry" />
        </mxCell>
        <mxCell id="fIHRvPvFTuCWdLpY6IQI-4" value="&lt;font face=&quot;Times New Roman&quot;&gt;Admin&lt;/font&gt;" style="rounded=0;whiteSpace=wrap;html=1;" parent="1" vertex="1">
          <mxGeometry x="190" y="240" width="120" height="40" as="geometry" />
        </mxCell>
        <mxCell id="fIHRvPvFTuCWdLpY6IQI-5" value="" style="endArrow=none;html=1;rounded=0;fontSize=12;startSize=8;endSize=8;curved=1;entryX=0.45;entryY=1.01;entryDx=0;entryDy=0;entryPerimeter=0;" parent="1" target="fIHRvPvFTuCWdLpY6IQI-1" edge="1">
          <mxGeometry width="50" height="50" relative="1" as="geometry">
            <mxPoint x="240" y="360" as="sourcePoint" />
            <mxPoint x="230" y="330" as="targetPoint" />
          </mxGeometry>
        </mxCell>
        <mxCell id="fIHRvPvFTuCWdLpY6IQI-7" value="&lt;div&gt;&lt;font face=&quot;Times New Roman&quot;&gt;&lt;br&gt;&lt;/font&gt;&lt;/div&gt;&lt;div&gt;&lt;font face=&quot;Times New Roman&quot;&gt;&lt;br&gt;&lt;/font&gt;&lt;/div&gt;&lt;div&gt;&lt;font face=&quot;Times New Roman&quot;&gt;&lt;br&gt;&lt;/font&gt;&lt;/div&gt;&lt;div&gt;&lt;font face=&quot;Times New Roman&quot;&gt;&lt;br&gt;&lt;/font&gt;&lt;/div&gt;&lt;div&gt;&lt;font face=&quot;Times New Roman&quot;&gt;&lt;br&gt;&lt;/font&gt;&lt;/div&gt;&lt;div&gt;&lt;font face=&quot;Times New Roman&quot;&gt;Node js + Express&lt;/font&gt;&lt;/div&gt;&lt;div&gt;&lt;font face=&quot;Times New Roman&quot;&gt;&lt;br&gt;&lt;/font&gt;&lt;/div&gt;&lt;div&gt;&lt;font face=&quot;Times New Roman&quot;&gt;Application Layer&lt;/font&gt;&lt;/div&gt;" style="rounded=0;whiteSpace=wrap;html=1;" parent="1" vertex="1">
          <mxGeometry x="150" y="360" width="200" height="120" as="geometry" />
        </mxCell>
        <mxCell id="fIHRvPvFTuCWdLpY6IQI-8" value="&lt;font face=&quot;Times New Roman&quot;&gt;Restful APIs&lt;/font&gt;" style="rounded=0;whiteSpace=wrap;html=1;" parent="1" vertex="1">
          <mxGeometry x="190" y="370" width="120" height="40" as="geometry" />
        </mxCell>
        <mxCell id="fIHRvPvFTuCWdLpY6IQI-9" value="&lt;font face=&quot;Times New Roman&quot;&gt;Node js + Express&lt;/font&gt;" style="rounded=0;whiteSpace=wrap;html=1;" parent="1" vertex="1">
          <mxGeometry x="190" y="420" width="120" height="40" as="geometry" />
        </mxCell>
        <mxCell id="fIHRvPvFTuCWdLpY6IQI-10" value="" style="endArrow=none;html=1;rounded=0;fontSize=12;startSize=8;endSize=8;curved=1;entryX=0.45;entryY=1;entryDx=0;entryDy=0;entryPerimeter=0;" parent="1" target="fIHRvPvFTuCWdLpY6IQI-7" edge="1">
          <mxGeometry width="50" height="50" relative="1" as="geometry">
            <mxPoint x="240" y="540" as="sourcePoint" />
            <mxPoint x="260" y="510" as="targetPoint" />
          </mxGeometry>
        </mxCell>
        <mxCell id="fIHRvPvFTuCWdLpY6IQI-11" value="&lt;div&gt;&lt;font face=&quot;Times New Roman&quot;&gt;&lt;br&gt;&lt;/font&gt;&lt;/div&gt;&lt;div&gt;&lt;font face=&quot;Times New Roman&quot;&gt;&lt;br&gt;&lt;/font&gt;&lt;/div&gt;&lt;div&gt;&lt;font face=&quot;Times New Roman&quot;&gt;&lt;br&gt;&lt;/font&gt;&lt;/div&gt;&lt;div&gt;&lt;font face=&quot;Times New Roman&quot;&gt;&lt;br&gt;&lt;/font&gt;&lt;/div&gt;&lt;div&gt;&lt;font face=&quot;Times New Roman&quot;&gt;&lt;br&gt;&lt;/font&gt;&lt;/div&gt;&lt;div&gt;&lt;font face=&quot;Times New Roman&quot;&gt;&lt;br&gt;&lt;/font&gt;&lt;/div&gt;&lt;div&gt;&lt;font face=&quot;Times New Roman&quot;&gt;Data Layer&lt;/font&gt;&lt;/div&gt;" style="rounded=0;whiteSpace=wrap;html=1;" parent="1" vertex="1">
          <mxGeometry x="150" y="540" width="200" height="100" as="geometry" />
        </mxCell>
        <mxCell id="fIHRvPvFTuCWdLpY6IQI-12" value="&lt;font face=&quot;Times New Roman&quot;&gt;PostgreSQL Database&lt;/font&gt;" style="rounded=0;whiteSpace=wrap;html=1;" parent="1" vertex="1">
          <mxGeometry x="190" y="550" width="120" height="50" as="geometry" />
        </mxCell>
        <mxCell id="TFURayL-6JC9sBrjirk0-1" value="&lt;h1&gt;&lt;font face=&quot;Times New Roman&quot; style=&quot;font-size: 21px;&quot;&gt;&lt;u&gt;System Architecture Diagram&lt;/u&gt;&lt;/font&gt;&lt;/h1&gt;" style="text;strokeColor=none;fillColor=none;html=1;align=center;verticalAlign=middle;whiteSpace=wrap;rounded=0;fontSize=16;" vertex="1" parent="1">
          <mxGeometry x="120" y="40" width="310" height="30" as="geometry" />
        </mxCell>
      </root>
    </mxGraphModel>
  </diagram>
  <diagram id="-d5Fe9qU4KQV4fcG4JTn" name="Page-2">
    <mxGraphModel dx="1042" dy="1463" grid="0" gridSize="10" guides="1" tooltips="1" connect="1" arrows="1" fold="1" page="0" pageScale="1" pageWidth="850" pageHeight="1100" math="0" shadow="0">
      <root>
        <mxCell id="0" />
        <mxCell id="1" parent="0" />
        <mxCell id="egveTAK9CLoOceZyM3u0-1" value="" style="whiteSpace=wrap;html=1;aspect=fixed;" parent="1" vertex="1">
          <mxGeometry x="235" y="-418" width="406" height="406" as="geometry" />
        </mxCell>
        <mxCell id="egveTAK9CLoOceZyM3u0-2" value="&lt;font face=&quot;Times New Roman&quot;&gt;Tenant&lt;/font&gt;" style="shape=umlActor;verticalLabelPosition=bottom;verticalAlign=top;html=1;outlineConnect=0;" parent="1" vertex="1">
          <mxGeometry x="94" y="-415" width="30" height="60" as="geometry" />
        </mxCell>
        <mxCell id="egveTAK9CLoOceZyM3u0-3" value="&lt;font face=&quot;Times New Roman&quot;&gt;Landlord/Agent&lt;/font&gt;" style="shape=umlActor;verticalLabelPosition=bottom;verticalAlign=top;html=1;outlineConnect=0;" parent="1" vertex="1">
          <mxGeometry x="98" y="-153" width="30" height="60" as="geometry" />
        </mxCell>
        <mxCell id="egveTAK9CLoOceZyM3u0-4" value="&lt;font face=&quot;Times New Roman&quot;&gt;Admin&lt;/font&gt;" style="shape=umlActor;verticalLabelPosition=bottom;verticalAlign=top;html=1;outlineConnect=0;" parent="1" vertex="1">
          <mxGeometry x="709" y="-282" width="30" height="60" as="geometry" />
        </mxCell>
        <mxCell id="egveTAK9CLoOceZyM3u0-5" value="&lt;font face=&quot;Times New Roman&quot;&gt;Browse Listings&lt;/font&gt;" style="ellipse;whiteSpace=wrap;html=1;" parent="1" vertex="1">
          <mxGeometry x="259" y="-406" width="102" height="48" as="geometry" />
        </mxCell>
        <mxCell id="egveTAK9CLoOceZyM3u0-6" value="&lt;font face=&quot;Times New Roman&quot;&gt;Create Housing Request&lt;/font&gt;" style="ellipse;whiteSpace=wrap;html=1;" parent="1" vertex="1">
          <mxGeometry x="401" y="-350" width="100" height="53" as="geometry" />
        </mxCell>
        <mxCell id="egveTAK9CLoOceZyM3u0-7" value="&lt;font face=&quot;Times New Roman&quot;&gt;Submit Referral&lt;/font&gt;" style="ellipse;whiteSpace=wrap;html=1;" parent="1" vertex="1">
          <mxGeometry x="257" y="-313" width="104" height="54" as="geometry" />
        </mxCell>
        <mxCell id="egveTAK9CLoOceZyM3u0-8" value="&lt;font face=&quot;Times New Roman&quot;&gt;Rate &amp;amp; Review&lt;/font&gt;" style="ellipse;whiteSpace=wrap;html=1;" parent="1" vertex="1">
          <mxGeometry x="252" y="-233" width="109" height="57" as="geometry" />
        </mxCell>
        <mxCell id="egveTAK9CLoOceZyM3u0-9" value="&lt;font face=&quot;Times New Roman&quot;&gt;Post Property Listing&lt;/font&gt;" style="ellipse;whiteSpace=wrap;html=1;" parent="1" vertex="1">
          <mxGeometry x="248" y="-155" width="106" height="54" as="geometry" />
        </mxCell>
        <mxCell id="egveTAK9CLoOceZyM3u0-10" value="Respond To Requests" style="ellipse;whiteSpace=wrap;html=1;" parent="1" vertex="1">
          <mxGeometry x="248" y="-76" width="105" height="59" as="geometry" />
        </mxCell>
        <mxCell id="egveTAK9CLoOceZyM3u0-11" value="&lt;font face=&quot;Times New Roman&quot;&gt;View Referrals &amp;amp; Requests&lt;/font&gt;" style="ellipse;whiteSpace=wrap;html=1;" parent="1" vertex="1">
          <mxGeometry x="374" y="-101" width="108" height="58" as="geometry" />
        </mxCell>
        <mxCell id="egveTAK9CLoOceZyM3u0-12" value="&lt;font face=&quot;Times New Roman&quot;&gt;Verify Users&amp;amp; Listings&lt;/font&gt;" style="ellipse;whiteSpace=wrap;html=1;" parent="1" vertex="1">
          <mxGeometry x="523" y="-377" width="111" height="62" as="geometry" />
        </mxCell>
        <mxCell id="egveTAK9CLoOceZyM3u0-13" value="&lt;font face=&quot;Times New Roman&quot;&gt;Manage Referrals &amp;amp; Reviews&lt;/font&gt;" style="ellipse;whiteSpace=wrap;html=1;" parent="1" vertex="1">
          <mxGeometry x="442" y="-248" width="103" height="66" as="geometry" />
        </mxCell>
        <mxCell id="egveTAK9CLoOceZyM3u0-14" value="&lt;font face=&quot;Times New Roman&quot;&gt;System Monitoring&lt;/font&gt;" style="ellipse;whiteSpace=wrap;html=1;" parent="1" vertex="1">
          <mxGeometry x="527" y="-144" width="104" height="65" as="geometry" />
        </mxCell>
        <mxCell id="egveTAK9CLoOceZyM3u0-15" value="" style="endArrow=classic;html=1;rounded=0;fontSize=12;startSize=8;endSize=8;curved=1;entryX=0;entryY=0.5;entryDx=0;entryDy=0;exitX=1;exitY=0.3333333333333333;exitDx=0;exitDy=0;exitPerimeter=0;" parent="1" source="egveTAK9CLoOceZyM3u0-2" target="egveTAK9CLoOceZyM3u0-5" edge="1">
          <mxGeometry width="50" height="50" relative="1" as="geometry">
            <mxPoint x="127" y="-393" as="sourcePoint" />
            <mxPoint x="177" y="-443" as="targetPoint" />
          </mxGeometry>
        </mxCell>
        <mxCell id="egveTAK9CLoOceZyM3u0-16" value="" style="endArrow=classic;html=1;rounded=0;fontSize=12;startSize=8;endSize=8;curved=1;entryX=0;entryY=0.5;entryDx=0;entryDy=0;exitX=1;exitY=0.3333333333333333;exitDx=0;exitDy=0;exitPerimeter=0;" parent="1" source="egveTAK9CLoOceZyM3u0-2" target="egveTAK9CLoOceZyM3u0-6" edge="1">
          <mxGeometry width="50" height="50" relative="1" as="geometry">
            <mxPoint x="158" y="-298" as="sourcePoint" />
            <mxPoint x="208" y="-348" as="targetPoint" />
          </mxGeometry>
        </mxCell>
        <mxCell id="egveTAK9CLoOceZyM3u0-17" value="" style="endArrow=classic;html=1;rounded=0;fontSize=12;startSize=8;endSize=8;curved=1;entryX=0;entryY=0.5;entryDx=0;entryDy=0;exitX=1;exitY=0.3333333333333333;exitDx=0;exitDy=0;exitPerimeter=0;" parent="1" source="egveTAK9CLoOceZyM3u0-2" target="egveTAK9CLoOceZyM3u0-7" edge="1">
          <mxGeometry width="50" height="50" relative="1" as="geometry">
            <mxPoint x="88" y="-258" as="sourcePoint" />
            <mxPoint x="138" y="-308" as="targetPoint" />
          </mxGeometry>
        </mxCell>
        <mxCell id="egveTAK9CLoOceZyM3u0-18" value="" style="endArrow=classic;html=1;rounded=0;fontSize=12;startSize=8;endSize=8;curved=1;entryX=0;entryY=0.5;entryDx=0;entryDy=0;exitX=1;exitY=0.3333333333333333;exitDx=0;exitDy=0;exitPerimeter=0;" parent="1" source="egveTAK9CLoOceZyM3u0-2" target="egveTAK9CLoOceZyM3u0-8" edge="1">
          <mxGeometry width="50" height="50" relative="1" as="geometry">
            <mxPoint x="107" y="-218" as="sourcePoint" />
            <mxPoint x="157" y="-268" as="targetPoint" />
          </mxGeometry>
        </mxCell>
        <mxCell id="egveTAK9CLoOceZyM3u0-19" value="" style="endArrow=classic;html=1;rounded=0;fontSize=12;startSize=8;endSize=8;curved=1;entryX=0;entryY=0.5;entryDx=0;entryDy=0;exitX=1;exitY=0.3333333333333333;exitDx=0;exitDy=0;exitPerimeter=0;" parent="1" source="egveTAK9CLoOceZyM3u0-3" target="egveTAK9CLoOceZyM3u0-9" edge="1">
          <mxGeometry width="50" height="50" relative="1" as="geometry">
            <mxPoint x="145" y="-87" as="sourcePoint" />
            <mxPoint x="195" y="-137" as="targetPoint" />
          </mxGeometry>
        </mxCell>
        <mxCell id="egveTAK9CLoOceZyM3u0-20" value="" style="endArrow=classic;html=1;rounded=0;fontSize=12;startSize=8;endSize=8;curved=1;entryX=0;entryY=0.5;entryDx=0;entryDy=0;exitX=1;exitY=0.3333333333333333;exitDx=0;exitDy=0;exitPerimeter=0;" parent="1" source="egveTAK9CLoOceZyM3u0-3" target="egveTAK9CLoOceZyM3u0-11" edge="1">
          <mxGeometry width="50" height="50" relative="1" as="geometry">
            <mxPoint x="144" y="-61" as="sourcePoint" />
            <mxPoint x="194" y="-111" as="targetPoint" />
          </mxGeometry>
        </mxCell>
        <mxCell id="egveTAK9CLoOceZyM3u0-21" value="" style="endArrow=classic;html=1;rounded=0;fontSize=12;startSize=8;endSize=8;curved=1;entryX=0;entryY=0.5;entryDx=0;entryDy=0;exitX=1;exitY=0.3333333333333333;exitDx=0;exitDy=0;exitPerimeter=0;" parent="1" source="egveTAK9CLoOceZyM3u0-3" target="egveTAK9CLoOceZyM3u0-10" edge="1">
          <mxGeometry width="50" height="50" relative="1" as="geometry">
            <mxPoint x="144" y="-32" as="sourcePoint" />
            <mxPoint x="194" y="-82" as="targetPoint" />
          </mxGeometry>
        </mxCell>
        <mxCell id="egveTAK9CLoOceZyM3u0-22" value="" style="endArrow=classic;html=1;rounded=0;fontSize=12;startSize=8;endSize=8;curved=1;exitX=0;exitY=0.3333333333333333;exitDx=0;exitDy=0;exitPerimeter=0;" parent="1" source="egveTAK9CLoOceZyM3u0-4" target="egveTAK9CLoOceZyM3u0-12" edge="1">
          <mxGeometry width="50" height="50" relative="1" as="geometry">
            <mxPoint x="649" y="-334" as="sourcePoint" />
            <mxPoint x="699" y="-384" as="targetPoint" />
          </mxGeometry>
        </mxCell>
        <mxCell id="egveTAK9CLoOceZyM3u0-23" value="" style="endArrow=classic;html=1;rounded=0;fontSize=12;startSize=8;endSize=8;curved=1;entryX=1;entryY=0.5;entryDx=0;entryDy=0;exitX=0;exitY=0.3333333333333333;exitDx=0;exitDy=0;exitPerimeter=0;" parent="1" source="egveTAK9CLoOceZyM3u0-4" target="egveTAK9CLoOceZyM3u0-13" edge="1">
          <mxGeometry width="50" height="50" relative="1" as="geometry">
            <mxPoint x="623" y="-153" as="sourcePoint" />
            <mxPoint x="673" y="-203" as="targetPoint" />
          </mxGeometry>
        </mxCell>
        <mxCell id="egveTAK9CLoOceZyM3u0-24" value="" style="endArrow=classic;html=1;rounded=0;fontSize=12;startSize=8;endSize=8;curved=1;entryX=0.662;entryY=0.046;entryDx=0;entryDy=0;entryPerimeter=0;exitX=0;exitY=0.3333333333333333;exitDx=0;exitDy=0;exitPerimeter=0;" parent="1" source="egveTAK9CLoOceZyM3u0-4" target="egveTAK9CLoOceZyM3u0-14" edge="1">
          <mxGeometry width="50" height="50" relative="1" as="geometry">
            <mxPoint x="532" y="-189" as="sourcePoint" />
            <mxPoint x="582" y="-239" as="targetPoint" />
          </mxGeometry>
        </mxCell>
        <mxCell id="egveTAK9CLoOceZyM3u0-27" value="&amp;lt;&amp;lt;Extend&amp;gt;&amp;gt;" style="endArrow=open;endSize=12;dashed=1;html=1;rounded=0;fontSize=12;curved=1;entryX=0.439;entryY=0.028;entryDx=0;entryDy=0;entryPerimeter=0;exitX=0.973;exitY=0.696;exitDx=0;exitDy=0;exitPerimeter=0;" parent="1" source="egveTAK9CLoOceZyM3u0-7" target="egveTAK9CLoOceZyM3u0-11" edge="1">
          <mxGeometry width="160" relative="1" as="geometry">
            <mxPoint x="316" y="-197" as="sourcePoint" />
            <mxPoint x="476" y="-197" as="targetPoint" />
          </mxGeometry>
        </mxCell>
        <mxCell id="egveTAK9CLoOceZyM3u0-28" value="&amp;lt;&amp;lt;Include&amp;gt;&amp;gt;" style="endArrow=open;endSize=12;dashed=1;html=1;rounded=0;fontSize=12;curved=1;exitX=0.336;exitY=0.979;exitDx=0;exitDy=0;exitPerimeter=0;entryX=0.691;entryY=0.097;entryDx=0;entryDy=0;entryPerimeter=0;" parent="1" source="egveTAK9CLoOceZyM3u0-13" target="egveTAK9CLoOceZyM3u0-11" edge="1">
          <mxGeometry width="160" relative="1" as="geometry">
            <mxPoint x="423" y="-156" as="sourcePoint" />
            <mxPoint x="583" y="-156" as="targetPoint" />
          </mxGeometry>
        </mxCell>
        <mxCell id="egveTAK9CLoOceZyM3u0-29" value="&lt;h1&gt;&lt;font style=&quot;font-size: 21px;&quot;&gt;&lt;u&gt;&lt;font face=&quot;Times New Roman&quot;&gt;NyumbaNow Use Case Diagram&lt;/font&gt;&lt;/u&gt;&lt;/font&gt;&lt;/h1&gt;&lt;h1&gt;&lt;font style=&quot;font-size: 21px;&quot;&gt;&lt;u&gt;&lt;font face=&quot;Times New Roman&quot;&gt;&lt;br&gt;&lt;/font&gt;&lt;/u&gt;&lt;/font&gt;&lt;/h1&gt;" style="text;align=center;fontStyle=1;verticalAlign=middle;spacingLeft=3;spacingRight=3;strokeColor=none;rotatable=0;points=[[0,0.5],[1,0.5]];portConstraint=eastwest;html=1;" parent="1" vertex="1">
          <mxGeometry x="295" y="-491" width="276" height="63" as="geometry" />
        </mxCell>
      </root>
    </mxGraphModel>
  </diagram>
  <diagram id="NB-m-IihclnkBNcJRutA" name="Page-3">
    <mxGraphModel dx="1442" dy="1063" grid="0" gridSize="10" guides="1" tooltips="1" connect="1" arrows="1" fold="1" page="0" pageScale="1" pageWidth="850" pageHeight="1100" math="0" shadow="0">
      <root>
        <mxCell id="0" />
        <mxCell id="1" parent="0" />
        <mxCell id="7dEJgBm6e85If1hyeQHI-1" value="&lt;font face=&quot;Times New Roman&quot;&gt;START&lt;/font&gt;" style="strokeWidth=2;html=1;shape=mxgraph.flowchart.start_1;whiteSpace=wrap;fillColor=#f5f5f5;strokeColor=#666666;gradientColor=#b3b3b3;" parent="1" vertex="1">
          <mxGeometry x="111" y="-104" width="82" height="36" as="geometry" />
        </mxCell>
        <mxCell id="7dEJgBm6e85If1hyeQHI-2" value="" style="endArrow=classic;html=1;rounded=0;fontSize=12;startSize=8;endSize=8;curved=1;exitX=0.5;exitY=1;exitDx=0;exitDy=0;exitPerimeter=0;" parent="1" source="7dEJgBm6e85If1hyeQHI-1" edge="1">
          <mxGeometry width="50" height="50" relative="1" as="geometry">
            <mxPoint x="91" y="41" as="sourcePoint" />
            <mxPoint x="152" y="-37" as="targetPoint" />
          </mxGeometry>
        </mxCell>
        <mxCell id="7dEJgBm6e85If1hyeQHI-3" value="&lt;font face=&quot;Times New Roman&quot;&gt;Login/Signin&lt;/font&gt;" style="rounded=1;whiteSpace=wrap;html=1;absoluteArcSize=1;arcSize=14;strokeWidth=2;fillColor=#f5f5f5;strokeColor=#666666;gradientColor=#b3b3b3;" parent="1" vertex="1">
          <mxGeometry x="112" y="-39" width="90" height="29" as="geometry" />
        </mxCell>
        <mxCell id="7dEJgBm6e85If1hyeQHI-4" value="" style="endArrow=none;html=1;rounded=0;fontSize=12;startSize=8;endSize=8;curved=1;entryX=0.5;entryY=1;entryDx=0;entryDy=0;" parent="1" target="7dEJgBm6e85If1hyeQHI-3" edge="1">
          <mxGeometry width="50" height="50" relative="1" as="geometry">
            <mxPoint x="157" y="5" as="sourcePoint" />
            <mxPoint x="180" y="50" as="targetPoint" />
          </mxGeometry>
        </mxCell>
        <mxCell id="7dEJgBm6e85If1hyeQHI-5" value="" style="endArrow=none;html=1;rounded=0;fontSize=12;startSize=8;endSize=8;curved=1;" parent="1" edge="1">
          <mxGeometry width="50" height="50" relative="1" as="geometry">
            <mxPoint x="156" y="5" as="sourcePoint" />
            <mxPoint x="218" y="5" as="targetPoint" />
          </mxGeometry>
        </mxCell>
        <mxCell id="7dEJgBm6e85If1hyeQHI-6" value="" style="endArrow=none;html=1;rounded=0;fontSize=12;startSize=8;endSize=8;curved=1;" parent="1" edge="1">
          <mxGeometry width="50" height="50" relative="1" as="geometry">
            <mxPoint x="100" y="7" as="sourcePoint" />
            <mxPoint x="156" y="5" as="targetPoint" />
          </mxGeometry>
        </mxCell>
        <mxCell id="7dEJgBm6e85If1hyeQHI-7" value="" style="endArrow=classic;html=1;rounded=0;fontSize=12;startSize=8;endSize=8;curved=1;" parent="1" edge="1">
          <mxGeometry width="50" height="50" relative="1" as="geometry">
            <mxPoint x="101" y="7" as="sourcePoint" />
            <mxPoint x="101" y="36" as="targetPoint" />
          </mxGeometry>
        </mxCell>
        <mxCell id="7dEJgBm6e85If1hyeQHI-8" value="" style="endArrow=classic;html=1;rounded=0;fontSize=12;startSize=8;endSize=8;curved=1;" parent="1" edge="1">
          <mxGeometry width="50" height="50" relative="1" as="geometry">
            <mxPoint x="217" y="5" as="sourcePoint" />
            <mxPoint x="217" y="36" as="targetPoint" />
          </mxGeometry>
        </mxCell>
        <mxCell id="7dEJgBm6e85If1hyeQHI-9" value="&lt;font face=&quot;Times New Roman&quot;&gt;Landlord/Agent&lt;/font&gt;" style="rounded=1;whiteSpace=wrap;html=1;fillColor=#f5f5f5;strokeColor=#666666;fontColor=#333333;" parent="1" vertex="1">
          <mxGeometry x="52" y="35" width="83" height="34" as="geometry" />
        </mxCell>
        <mxCell id="7dEJgBm6e85If1hyeQHI-10" value="&lt;font face=&quot;Times New Roman&quot;&gt;Tenant&lt;/font&gt;" style="rounded=1;whiteSpace=wrap;html=1;fillColor=#f5f5f5;strokeColor=#666666;fontColor=#333333;" parent="1" vertex="1">
          <mxGeometry x="182" y="38" width="78" height="36" as="geometry" />
        </mxCell>
        <mxCell id="7dEJgBm6e85If1hyeQHI-12" value="&lt;font face=&quot;Times New Roman&quot;&gt;Post Listing&lt;/font&gt;" style="rounded=0;whiteSpace=wrap;html=1;" parent="1" vertex="1">
          <mxGeometry x="-34" y="105" width="106" height="36" as="geometry" />
        </mxCell>
        <mxCell id="7dEJgBm6e85If1hyeQHI-13" value="&lt;font face=&quot;Times New Roman&quot;&gt;Make a request&lt;/font&gt;" style="rounded=0;whiteSpace=wrap;html=1;" parent="1" vertex="1">
          <mxGeometry x="236" y="110" width="108" height="34" as="geometry" />
        </mxCell>
        <mxCell id="7dEJgBm6e85If1hyeQHI-14" value="" style="endArrow=classic;html=1;rounded=0;fontSize=12;startSize=8;endSize=8;curved=1;entryX=0.355;entryY=0.056;entryDx=0;entryDy=0;entryPerimeter=0;" parent="1" target="7dEJgBm6e85If1hyeQHI-12" edge="1">
          <mxGeometry width="50" height="50" relative="1" as="geometry">
            <mxPoint x="50" y="54" as="sourcePoint" />
            <mxPoint x="-7" y="-26" as="targetPoint" />
            <Array as="points">
              <mxPoint y="42" />
            </Array>
          </mxGeometry>
        </mxCell>
        <mxCell id="7dEJgBm6e85If1hyeQHI-15" value="" style="endArrow=classic;html=1;rounded=0;fontSize=12;startSize=8;endSize=8;curved=1;exitX=1;exitY=0.5;exitDx=0;exitDy=0;" parent="1" source="7dEJgBm6e85If1hyeQHI-10" edge="1">
          <mxGeometry width="50" height="50" relative="1" as="geometry">
            <mxPoint x="284" y="91" as="sourcePoint" />
            <mxPoint x="297" y="108" as="targetPoint" />
            <Array as="points">
              <mxPoint x="303" y="45" />
            </Array>
          </mxGeometry>
        </mxCell>
        <mxCell id="7dEJgBm6e85If1hyeQHI-16" value="&lt;font face=&quot;Times New Roman&quot;&gt;Listings&lt;/font&gt;" style="shape=parallelogram;html=1;strokeWidth=2;perimeter=parallelogramPerimeter;whiteSpace=wrap;rounded=1;arcSize=12;size=0.23;" parent="1" vertex="1">
          <mxGeometry x="-34" y="165" width="86" height="30" as="geometry" />
        </mxCell>
        <mxCell id="7dEJgBm6e85If1hyeQHI-17" value="&lt;font face=&quot;Times New Roman&quot;&gt;Requests&lt;/font&gt;" style="shape=parallelogram;html=1;strokeWidth=2;perimeter=parallelogramPerimeter;whiteSpace=wrap;rounded=1;arcSize=12;size=0.23;" parent="1" vertex="1">
          <mxGeometry x="247" y="165" width="82" height="30" as="geometry" />
        </mxCell>
        <mxCell id="7dEJgBm6e85If1hyeQHI-18" value="" style="endArrow=classic;html=1;rounded=0;fontSize=12;startSize=8;endSize=8;curved=1;entryX=0.5;entryY=0;entryDx=0;entryDy=0;exitX=0.392;exitY=0.989;exitDx=0;exitDy=0;exitPerimeter=0;" parent="1" source="7dEJgBm6e85If1hyeQHI-12" target="7dEJgBm6e85If1hyeQHI-16" edge="1">
          <mxGeometry width="50" height="50" relative="1" as="geometry">
            <mxPoint x="-93" y="204" as="sourcePoint" />
            <mxPoint x="-43" y="154" as="targetPoint" />
          </mxGeometry>
        </mxCell>
        <mxCell id="7dEJgBm6e85If1hyeQHI-19" value="" style="endArrow=classic;html=1;rounded=0;fontSize=12;startSize=8;endSize=8;curved=1;entryX=0.5;entryY=0;entryDx=0;entryDy=0;exitX=0.5;exitY=1;exitDx=0;exitDy=0;" parent="1" source="7dEJgBm6e85If1hyeQHI-13" target="7dEJgBm6e85If1hyeQHI-17" edge="1">
          <mxGeometry width="50" height="50" relative="1" as="geometry">
            <mxPoint x="221" y="193" as="sourcePoint" />
            <mxPoint x="271" y="143" as="targetPoint" />
          </mxGeometry>
        </mxCell>
        <mxCell id="7dEJgBm6e85If1hyeQHI-20" value="&lt;font face=&quot;Times New Roman&quot;&gt;&amp;nbsp; &amp;nbsp; &amp;nbsp; Does the request match any listings ??&lt;/font&gt;" style="strokeWidth=2;html=1;shape=mxgraph.flowchart.decision;whiteSpace=wrap;" parent="1" vertex="1">
          <mxGeometry x="67" y="230" width="170" height="100" as="geometry" />
        </mxCell>
        <mxCell id="7dEJgBm6e85If1hyeQHI-21" value="" style="endArrow=classic;html=1;rounded=0;fontSize=12;startSize=8;endSize=8;curved=1;entryX=0.5;entryY=0;entryDx=0;entryDy=0;entryPerimeter=0;exitX=0;exitY=1;exitDx=0;exitDy=0;" parent="1" source="7dEJgBm6e85If1hyeQHI-17" target="7dEJgBm6e85If1hyeQHI-20" edge="1">
          <mxGeometry width="50" height="50" relative="1" as="geometry">
            <mxPoint x="118" y="188" as="sourcePoint" />
            <mxPoint x="168" y="138" as="targetPoint" />
            <Array as="points">
              <mxPoint x="135" y="176" />
            </Array>
          </mxGeometry>
        </mxCell>
        <mxCell id="7dEJgBm6e85If1hyeQHI-22" value="&lt;font face=&quot;Times New Roman&quot;&gt;Notify Landlord&lt;/font&gt;" style="rounded=0;whiteSpace=wrap;html=1;" parent="1" vertex="1">
          <mxGeometry x="-42" y="325" width="94" height="45" as="geometry" />
        </mxCell>
        <mxCell id="7dEJgBm6e85If1hyeQHI-23" value="Yes" style="endArrow=classic;html=1;rounded=0;fontSize=12;startSize=8;endSize=8;curved=1;entryX=0.5;entryY=0;entryDx=0;entryDy=0;exitX=0;exitY=0.5;exitDx=0;exitDy=0;exitPerimeter=0;" parent="1" source="7dEJgBm6e85If1hyeQHI-20" target="7dEJgBm6e85If1hyeQHI-22" edge="1">
          <mxGeometry width="50" height="50" relative="1" as="geometry">
            <mxPoint x="-58" y="289" as="sourcePoint" />
            <mxPoint x="-8" y="239" as="targetPoint" />
            <Array as="points">
              <mxPoint x="-12" y="273" />
            </Array>
          </mxGeometry>
        </mxCell>
        <mxCell id="7dEJgBm6e85If1hyeQHI-24" value="" style="endArrow=classic;html=1;rounded=0;fontSize=12;startSize=8;endSize=8;curved=1;exitX=0.75;exitY=1;exitDx=0;exitDy=0;" parent="1" source="7dEJgBm6e85If1hyeQHI-16" edge="1">
          <mxGeometry width="50" height="50" relative="1" as="geometry">
            <mxPoint x="35" y="254" as="sourcePoint" />
            <mxPoint x="152" y="204" as="targetPoint" />
            <Array as="points">
              <mxPoint x="145" y="197" />
            </Array>
          </mxGeometry>
        </mxCell>
        <mxCell id="7dEJgBm6e85If1hyeQHI-25" value="&lt;font face=&quot;Times New Roman&quot;&gt;Suggestions /Responses&lt;/font&gt;" style="rounded=0;whiteSpace=wrap;html=1;" parent="1" vertex="1">
          <mxGeometry x="-8" y="401" width="120" height="42" as="geometry" />
        </mxCell>
        <mxCell id="7dEJgBm6e85If1hyeQHI-26" value="" style="endArrow=classic;html=1;rounded=0;fontSize=12;startSize=8;endSize=8;curved=1;entryX=0.25;entryY=0;entryDx=0;entryDy=0;exitX=0.672;exitY=1.04;exitDx=0;exitDy=0;exitPerimeter=0;" parent="1" source="7dEJgBm6e85If1hyeQHI-22" target="7dEJgBm6e85If1hyeQHI-25" edge="1">
          <mxGeometry width="50" height="50" relative="1" as="geometry">
            <mxPoint x="-61" y="436" as="sourcePoint" />
            <mxPoint x="-11" y="386" as="targetPoint" />
          </mxGeometry>
        </mxCell>
        <mxCell id="7dEJgBm6e85If1hyeQHI-31" value="" style="endArrow=classic;html=1;rounded=0;fontSize=12;startSize=8;endSize=8;curved=1;" parent="1" edge="1">
          <mxGeometry width="50" height="50" relative="1" as="geometry">
            <mxPoint x="-89" y="383" as="sourcePoint" />
            <mxPoint x="21" y="381" as="targetPoint" />
          </mxGeometry>
        </mxCell>
        <mxCell id="7dEJgBm6e85If1hyeQHI-32" value="" style="endArrow=none;html=1;rounded=0;fontSize=12;startSize=8;endSize=8;curved=1;" parent="1" edge="1">
          <mxGeometry width="50" height="50" relative="1" as="geometry">
            <mxPoint x="-88" y="385" as="sourcePoint" />
            <mxPoint x="-88" y="59" as="targetPoint" />
          </mxGeometry>
        </mxCell>
        <mxCell id="7dEJgBm6e85If1hyeQHI-33" value="" style="endArrow=none;html=1;rounded=0;fontSize=12;startSize=8;endSize=8;curved=1;" parent="1" edge="1">
          <mxGeometry width="50" height="50" relative="1" as="geometry">
            <mxPoint x="-88" y="62" as="sourcePoint" />
            <mxPoint x="9" y="65" as="targetPoint" />
          </mxGeometry>
        </mxCell>
        <mxCell id="7dEJgBm6e85If1hyeQHI-34" value="" style="endArrow=none;html=1;rounded=0;fontSize=12;startSize=8;endSize=8;curved=1;" parent="1" edge="1">
          <mxGeometry width="50" height="50" relative="1" as="geometry">
            <mxPoint x="296" y="74" as="sourcePoint" />
            <mxPoint x="485" y="74" as="targetPoint" />
          </mxGeometry>
        </mxCell>
        <mxCell id="7dEJgBm6e85If1hyeQHI-35" value="" style="endArrow=classic;html=1;rounded=0;fontSize=12;startSize=8;endSize=8;curved=1;" parent="1" edge="1">
          <mxGeometry width="50" height="50" relative="1" as="geometry">
            <mxPoint x="484" y="75" as="sourcePoint" />
            <mxPoint x="484" y="113" as="targetPoint" />
          </mxGeometry>
        </mxCell>
        <mxCell id="7dEJgBm6e85If1hyeQHI-36" value="&lt;font face=&quot;Times New Roman&quot;&gt;Refer/Review&lt;/font&gt;" style="rounded=0;whiteSpace=wrap;html=1;" parent="1" vertex="1">
          <mxGeometry x="423" y="114" width="111" height="34" as="geometry" />
        </mxCell>
        <mxCell id="7dEJgBm6e85If1hyeQHI-37" value="" style="endArrow=none;html=1;rounded=0;fontSize=12;startSize=8;endSize=8;curved=1;entryX=0.25;entryY=1;entryDx=0;entryDy=0;" parent="1" target="7dEJgBm6e85If1hyeQHI-36" edge="1">
          <mxGeometry width="50" height="50" relative="1" as="geometry">
            <mxPoint x="448" y="400" as="sourcePoint" />
            <mxPoint x="473" y="180" as="targetPoint" />
          </mxGeometry>
        </mxCell>
        <mxCell id="7dEJgBm6e85If1hyeQHI-38" value="" style="endArrow=none;html=1;rounded=0;fontSize=12;startSize=8;endSize=8;curved=1;" parent="1" edge="1">
          <mxGeometry width="50" height="50" relative="1" as="geometry">
            <mxPoint x="301" y="400" as="sourcePoint" />
            <mxPoint x="448" y="400" as="targetPoint" />
          </mxGeometry>
        </mxCell>
        <mxCell id="7dEJgBm6e85If1hyeQHI-39" value="" style="endArrow=classic;html=1;rounded=0;fontSize=12;startSize=8;endSize=8;curved=1;" parent="1" edge="1">
          <mxGeometry width="50" height="50" relative="1" as="geometry">
            <mxPoint x="302" y="401" as="sourcePoint" />
            <mxPoint x="300" y="456" as="targetPoint" />
          </mxGeometry>
        </mxCell>
        <mxCell id="7dEJgBm6e85If1hyeQHI-40" value="&lt;font face=&quot;Times New Roman&quot;&gt;END&lt;/font&gt;" style="strokeWidth=2;html=1;shape=mxgraph.flowchart.terminator;whiteSpace=wrap;fillColor=#f5f5f5;strokeColor=#666666;gradientColor=#b3b3b3;" parent="1" vertex="1">
          <mxGeometry x="263" y="457" width="86" height="32" as="geometry" />
        </mxCell>
        <mxCell id="7dEJgBm6e85If1hyeQHI-41" value="No" style="endArrow=classic;html=1;rounded=0;fontSize=12;startSize=8;endSize=8;curved=1;exitX=1;exitY=0.5;exitDx=0;exitDy=0;exitPerimeter=0;" parent="1" source="7dEJgBm6e85If1hyeQHI-20" edge="1">
          <mxGeometry width="50" height="50" relative="1" as="geometry">
            <mxPoint x="303" y="322" as="sourcePoint" />
            <mxPoint x="292" y="153" as="targetPoint" />
            <Array as="points">
              <mxPoint x="307" y="282" />
              <mxPoint x="388" y="132" />
            </Array>
          </mxGeometry>
        </mxCell>
        <mxCell id="7dEJgBm6e85If1hyeQHI-42" value="" style="endArrow=classic;html=1;rounded=0;fontSize=12;startSize=8;endSize=8;curved=1;exitX=1;exitY=0.5;exitDx=0;exitDy=0;" parent="1" source="7dEJgBm6e85If1hyeQHI-25" edge="1">
          <mxGeometry width="50" height="50" relative="1" as="geometry">
            <mxPoint x="187" y="447" as="sourcePoint" />
            <mxPoint x="299" y="420" as="targetPoint" />
          </mxGeometry>
        </mxCell>
        <mxCell id="7dEJgBm6e85If1hyeQHI-43" value="&lt;h1&gt;&lt;font style=&quot;font-size: 14px;&quot; face=&quot;Times New Roman&quot;&gt;&lt;b&gt;NYUMBANOW FLOWCHART&lt;/b&gt;&lt;/font&gt;&lt;/h1&gt;" style="text;html=1;whiteSpace=wrap;overflow=hidden;rounded=0;fillColor=#f5f5f5;strokeColor=#666666;gradientColor=#b3b3b3;" parent="1" vertex="1">
          <mxGeometry x="47" y="-167" width="206" height="56" as="geometry" />
        </mxCell>
      </root>
    </mxGraphModel>
  </diagram>
  <diagram id="COxl_PCq5640yNlkn-yk" name="Page-4">
    <mxGraphModel dx="1442" dy="1063" grid="0" gridSize="10" guides="1" tooltips="1" connect="1" arrows="1" fold="1" page="0" pageScale="1" pageWidth="850" pageHeight="1100" math="0" shadow="0">
      <root>
        <mxCell id="0" />
        <mxCell id="1" parent="0" />
        <mxCell id="2Ca-qkcF9LUZlYM3l01k-1" value="&lt;font face=&quot;Times New Roman&quot;&gt;Users&lt;/font&gt;" style="shape=table;startSize=30;container=1;collapsible=1;childLayout=tableLayout;fixedRows=1;rowLines=0;fontStyle=1;align=center;resizeLast=1;html=1;" parent="1" vertex="1">
          <mxGeometry x="-8" y="-68" width="180" height="300" as="geometry" />
        </mxCell>
        <mxCell id="2Ca-qkcF9LUZlYM3l01k-2" value="" style="shape=tableRow;horizontal=0;startSize=0;swimlaneHead=0;swimlaneBody=0;fillColor=none;collapsible=0;dropTarget=0;points=[[0,0.5],[1,0.5]];portConstraint=eastwest;top=0;left=0;right=0;bottom=1;" parent="2Ca-qkcF9LUZlYM3l01k-1" vertex="1">
          <mxGeometry y="30" width="180" height="30" as="geometry" />
        </mxCell>
        <mxCell id="2Ca-qkcF9LUZlYM3l01k-3" value="&lt;font face=&quot;Times New Roman&quot;&gt;PK&lt;/font&gt;" style="shape=partialRectangle;connectable=0;fillColor=none;top=0;left=0;bottom=0;right=0;fontStyle=1;overflow=hidden;whiteSpace=wrap;html=1;" parent="2Ca-qkcF9LUZlYM3l01k-2" vertex="1">
          <mxGeometry width="30" height="30" as="geometry">
            <mxRectangle width="30" height="30" as="alternateBounds" />
          </mxGeometry>
        </mxCell>
        <mxCell id="2Ca-qkcF9LUZlYM3l01k-4" value="&lt;font face=&quot;Times New Roman&quot;&gt;User ID&lt;/font&gt;" style="shape=partialRectangle;connectable=0;fillColor=none;top=0;left=0;bottom=0;right=0;align=left;spacingLeft=6;fontStyle=5;overflow=hidden;whiteSpace=wrap;html=1;" parent="2Ca-qkcF9LUZlYM3l01k-2" vertex="1">
          <mxGeometry x="30" width="150" height="30" as="geometry">
            <mxRectangle width="150" height="30" as="alternateBounds" />
          </mxGeometry>
        </mxCell>
        <mxCell id="2Ca-qkcF9LUZlYM3l01k-5" value="" style="shape=tableRow;horizontal=0;startSize=0;swimlaneHead=0;swimlaneBody=0;fillColor=none;collapsible=0;dropTarget=0;points=[[0,0.5],[1,0.5]];portConstraint=eastwest;top=0;left=0;right=0;bottom=0;" parent="2Ca-qkcF9LUZlYM3l01k-1" vertex="1">
          <mxGeometry y="60" width="180" height="30" as="geometry" />
        </mxCell>
        <mxCell id="2Ca-qkcF9LUZlYM3l01k-6" value="" style="shape=partialRectangle;connectable=0;fillColor=none;top=0;left=0;bottom=0;right=0;editable=1;overflow=hidden;whiteSpace=wrap;html=1;" parent="2Ca-qkcF9LUZlYM3l01k-5" vertex="1">
          <mxGeometry width="30" height="30" as="geometry">
            <mxRectangle width="30" height="30" as="alternateBounds" />
          </mxGeometry>
        </mxCell>
        <mxCell id="2Ca-qkcF9LUZlYM3l01k-7" value="&lt;font face=&quot;Times New Roman&quot;&gt;UserName&lt;/font&gt;" style="shape=partialRectangle;connectable=0;fillColor=none;top=0;left=0;bottom=0;right=0;align=left;spacingLeft=6;overflow=hidden;whiteSpace=wrap;html=1;" parent="2Ca-qkcF9LUZlYM3l01k-5" vertex="1">
          <mxGeometry x="30" width="150" height="30" as="geometry">
            <mxRectangle width="150" height="30" as="alternateBounds" />
          </mxGeometry>
        </mxCell>
        <mxCell id="2Ca-qkcF9LUZlYM3l01k-8" value="" style="shape=tableRow;horizontal=0;startSize=0;swimlaneHead=0;swimlaneBody=0;fillColor=none;collapsible=0;dropTarget=0;points=[[0,0.5],[1,0.5]];portConstraint=eastwest;top=0;left=0;right=0;bottom=0;" parent="2Ca-qkcF9LUZlYM3l01k-1" vertex="1">
          <mxGeometry y="90" width="180" height="30" as="geometry" />
        </mxCell>
        <mxCell id="2Ca-qkcF9LUZlYM3l01k-9" value="" style="shape=partialRectangle;connectable=0;fillColor=none;top=0;left=0;bottom=0;right=0;editable=1;overflow=hidden;whiteSpace=wrap;html=1;" parent="2Ca-qkcF9LUZlYM3l01k-8" vertex="1">
          <mxGeometry width="30" height="30" as="geometry">
            <mxRectangle width="30" height="30" as="alternateBounds" />
          </mxGeometry>
        </mxCell>
        <mxCell id="2Ca-qkcF9LUZlYM3l01k-10" value="&lt;font face=&quot;Times New Roman&quot;&gt;Email&lt;/font&gt;" style="shape=partialRectangle;connectable=0;fillColor=none;top=0;left=0;bottom=0;right=0;align=left;spacingLeft=6;overflow=hidden;whiteSpace=wrap;html=1;" parent="2Ca-qkcF9LUZlYM3l01k-8" vertex="1">
          <mxGeometry x="30" width="150" height="30" as="geometry">
            <mxRectangle width="150" height="30" as="alternateBounds" />
          </mxGeometry>
        </mxCell>
        <mxCell id="2Ca-qkcF9LUZlYM3l01k-11" value="" style="shape=tableRow;horizontal=0;startSize=0;swimlaneHead=0;swimlaneBody=0;fillColor=none;collapsible=0;dropTarget=0;points=[[0,0.5],[1,0.5]];portConstraint=eastwest;top=0;left=0;right=0;bottom=0;" parent="2Ca-qkcF9LUZlYM3l01k-1" vertex="1">
          <mxGeometry y="120" width="180" height="30" as="geometry" />
        </mxCell>
        <mxCell id="2Ca-qkcF9LUZlYM3l01k-12" value="" style="shape=partialRectangle;connectable=0;fillColor=none;top=0;left=0;bottom=0;right=0;editable=1;overflow=hidden;whiteSpace=wrap;html=1;" parent="2Ca-qkcF9LUZlYM3l01k-11" vertex="1">
          <mxGeometry width="30" height="30" as="geometry">
            <mxRectangle width="30" height="30" as="alternateBounds" />
          </mxGeometry>
        </mxCell>
        <mxCell id="2Ca-qkcF9LUZlYM3l01k-13" value="&lt;font face=&quot;Times New Roman&quot;&gt;Phone No.&lt;/font&gt;" style="shape=partialRectangle;connectable=0;fillColor=none;top=0;left=0;bottom=0;right=0;align=left;spacingLeft=6;overflow=hidden;whiteSpace=wrap;html=1;" parent="2Ca-qkcF9LUZlYM3l01k-11" vertex="1">
          <mxGeometry x="30" width="150" height="30" as="geometry">
            <mxRectangle width="150" height="30" as="alternateBounds" />
          </mxGeometry>
        </mxCell>
        <mxCell id="2Ca-qkcF9LUZlYM3l01k-27" value="" style="shape=tableRow;horizontal=0;startSize=0;swimlaneHead=0;swimlaneBody=0;fillColor=none;collapsible=0;dropTarget=0;points=[[0,0.5],[1,0.5]];portConstraint=eastwest;top=0;left=0;right=0;bottom=0;" parent="2Ca-qkcF9LUZlYM3l01k-1" vertex="1">
          <mxGeometry y="150" width="180" height="30" as="geometry" />
        </mxCell>
        <mxCell id="2Ca-qkcF9LUZlYM3l01k-28" value="" style="shape=partialRectangle;connectable=0;fillColor=none;top=0;left=0;bottom=0;right=0;editable=1;overflow=hidden;whiteSpace=wrap;html=1;" parent="2Ca-qkcF9LUZlYM3l01k-27" vertex="1">
          <mxGeometry width="30" height="30" as="geometry">
            <mxRectangle width="30" height="30" as="alternateBounds" />
          </mxGeometry>
        </mxCell>
        <mxCell id="2Ca-qkcF9LUZlYM3l01k-29" value="&lt;font face=&quot;Times New Roman&quot;&gt;Password(hashed)&lt;/font&gt;" style="shape=partialRectangle;connectable=0;fillColor=none;top=0;left=0;bottom=0;right=0;align=left;spacingLeft=6;overflow=hidden;whiteSpace=wrap;html=1;" parent="2Ca-qkcF9LUZlYM3l01k-27" vertex="1">
          <mxGeometry x="30" width="150" height="30" as="geometry">
            <mxRectangle width="150" height="30" as="alternateBounds" />
          </mxGeometry>
        </mxCell>
        <mxCell id="2Ca-qkcF9LUZlYM3l01k-112" value="" style="shape=tableRow;horizontal=0;startSize=0;swimlaneHead=0;swimlaneBody=0;fillColor=none;collapsible=0;dropTarget=0;points=[[0,0.5],[1,0.5]];portConstraint=eastwest;top=0;left=0;right=0;bottom=0;" parent="2Ca-qkcF9LUZlYM3l01k-1" vertex="1">
          <mxGeometry y="180" width="180" height="30" as="geometry" />
        </mxCell>
        <mxCell id="2Ca-qkcF9LUZlYM3l01k-113" value="" style="shape=partialRectangle;connectable=0;fillColor=none;top=0;left=0;bottom=0;right=0;editable=1;overflow=hidden;whiteSpace=wrap;html=1;" parent="2Ca-qkcF9LUZlYM3l01k-112" vertex="1">
          <mxGeometry width="30" height="30" as="geometry">
            <mxRectangle width="30" height="30" as="alternateBounds" />
          </mxGeometry>
        </mxCell>
        <mxCell id="2Ca-qkcF9LUZlYM3l01k-114" value="&lt;font face=&quot;Times New Roman&quot;&gt;Password(hashed)&lt;/font&gt;" style="shape=partialRectangle;connectable=0;fillColor=none;top=0;left=0;bottom=0;right=0;align=left;spacingLeft=6;overflow=hidden;whiteSpace=wrap;html=1;" parent="2Ca-qkcF9LUZlYM3l01k-112" vertex="1">
          <mxGeometry x="30" width="150" height="30" as="geometry">
            <mxRectangle width="150" height="30" as="alternateBounds" />
          </mxGeometry>
        </mxCell>
        <mxCell id="2Ca-qkcF9LUZlYM3l01k-116" value="" style="shape=tableRow;horizontal=0;startSize=0;swimlaneHead=0;swimlaneBody=0;fillColor=none;collapsible=0;dropTarget=0;points=[[0,0.5],[1,0.5]];portConstraint=eastwest;top=0;left=0;right=0;bottom=0;" parent="2Ca-qkcF9LUZlYM3l01k-1" vertex="1">
          <mxGeometry y="210" width="180" height="30" as="geometry" />
        </mxCell>
        <mxCell id="2Ca-qkcF9LUZlYM3l01k-117" value="" style="shape=partialRectangle;connectable=0;fillColor=none;top=0;left=0;bottom=0;right=0;editable=1;overflow=hidden;whiteSpace=wrap;html=1;" parent="2Ca-qkcF9LUZlYM3l01k-116" vertex="1">
          <mxGeometry width="30" height="30" as="geometry">
            <mxRectangle width="30" height="30" as="alternateBounds" />
          </mxGeometry>
        </mxCell>
        <mxCell id="2Ca-qkcF9LUZlYM3l01k-118" value="&lt;font face=&quot;Times New Roman&quot;&gt;Role (Tenant/Landlord/Admin)&lt;/font&gt;" style="shape=partialRectangle;connectable=0;fillColor=none;top=0;left=0;bottom=0;right=0;align=left;spacingLeft=6;overflow=hidden;whiteSpace=wrap;html=1;" parent="2Ca-qkcF9LUZlYM3l01k-116" vertex="1">
          <mxGeometry x="30" width="150" height="30" as="geometry">
            <mxRectangle width="150" height="30" as="alternateBounds" />
          </mxGeometry>
        </mxCell>
        <mxCell id="2Ca-qkcF9LUZlYM3l01k-146" value="" style="shape=tableRow;horizontal=0;startSize=0;swimlaneHead=0;swimlaneBody=0;fillColor=none;collapsible=0;dropTarget=0;points=[[0,0.5],[1,0.5]];portConstraint=eastwest;top=0;left=0;right=0;bottom=0;" parent="2Ca-qkcF9LUZlYM3l01k-1" vertex="1">
          <mxGeometry y="240" width="180" height="30" as="geometry" />
        </mxCell>
        <mxCell id="2Ca-qkcF9LUZlYM3l01k-147" value="" style="shape=partialRectangle;connectable=0;fillColor=none;top=0;left=0;bottom=0;right=0;editable=1;overflow=hidden;whiteSpace=wrap;html=1;" parent="2Ca-qkcF9LUZlYM3l01k-146" vertex="1">
          <mxGeometry width="30" height="30" as="geometry">
            <mxRectangle width="30" height="30" as="alternateBounds" />
          </mxGeometry>
        </mxCell>
        <mxCell id="2Ca-qkcF9LUZlYM3l01k-148" value="&lt;font face=&quot;Times New Roman&quot;&gt;Verification_status&lt;/font&gt;" style="shape=partialRectangle;connectable=0;fillColor=none;top=0;left=0;bottom=0;right=0;align=left;spacingLeft=6;overflow=hidden;whiteSpace=wrap;html=1;" parent="2Ca-qkcF9LUZlYM3l01k-146" vertex="1">
          <mxGeometry x="30" width="150" height="30" as="geometry">
            <mxRectangle width="150" height="30" as="alternateBounds" />
          </mxGeometry>
        </mxCell>
        <mxCell id="2Ca-qkcF9LUZlYM3l01k-119" value="" style="shape=tableRow;horizontal=0;startSize=0;swimlaneHead=0;swimlaneBody=0;fillColor=none;collapsible=0;dropTarget=0;points=[[0,0.5],[1,0.5]];portConstraint=eastwest;top=0;left=0;right=0;bottom=0;" parent="2Ca-qkcF9LUZlYM3l01k-1" vertex="1">
          <mxGeometry y="270" width="180" height="30" as="geometry" />
        </mxCell>
        <mxCell id="2Ca-qkcF9LUZlYM3l01k-120" value="" style="shape=partialRectangle;connectable=0;fillColor=none;top=0;left=0;bottom=0;right=0;editable=1;overflow=hidden;whiteSpace=wrap;html=1;" parent="2Ca-qkcF9LUZlYM3l01k-119" vertex="1">
          <mxGeometry width="30" height="30" as="geometry">
            <mxRectangle width="30" height="30" as="alternateBounds" />
          </mxGeometry>
        </mxCell>
        <mxCell id="2Ca-qkcF9LUZlYM3l01k-121" value="&lt;font face=&quot;Times New Roman&quot;&gt;Verification_status&lt;/font&gt;" style="shape=partialRectangle;connectable=0;fillColor=none;top=0;left=0;bottom=0;right=0;align=left;spacingLeft=6;overflow=hidden;whiteSpace=wrap;html=1;" parent="2Ca-qkcF9LUZlYM3l01k-119" vertex="1">
          <mxGeometry x="30" width="150" height="30" as="geometry">
            <mxRectangle width="150" height="30" as="alternateBounds" />
          </mxGeometry>
        </mxCell>
        <mxCell id="2Ca-qkcF9LUZlYM3l01k-14" value="&lt;font face=&quot;Times New Roman&quot;&gt;Requests&lt;/font&gt;" style="shape=table;startSize=30;container=1;collapsible=1;childLayout=tableLayout;fixedRows=1;rowLines=0;fontStyle=1;align=center;resizeLast=1;html=1;" parent="1" vertex="1">
          <mxGeometry x="314" y="-54" width="180" height="214.1498840332024" as="geometry" />
        </mxCell>
        <mxCell id="2Ca-qkcF9LUZlYM3l01k-15" value="" style="shape=tableRow;horizontal=0;startSize=0;swimlaneHead=0;swimlaneBody=0;fillColor=none;collapsible=0;dropTarget=0;points=[[0,0.5],[1,0.5]];portConstraint=eastwest;top=0;left=0;right=0;bottom=1;" parent="2Ca-qkcF9LUZlYM3l01k-14" vertex="1">
          <mxGeometry y="30" width="180" height="30" as="geometry" />
        </mxCell>
        <mxCell id="2Ca-qkcF9LUZlYM3l01k-16" value="&lt;font face=&quot;Times New Roman&quot;&gt;PK&lt;/font&gt;" style="shape=partialRectangle;connectable=0;fillColor=none;top=0;left=0;bottom=0;right=0;fontStyle=1;overflow=hidden;whiteSpace=wrap;html=1;" parent="2Ca-qkcF9LUZlYM3l01k-15" vertex="1">
          <mxGeometry width="30" height="30" as="geometry">
            <mxRectangle width="30" height="30" as="alternateBounds" />
          </mxGeometry>
        </mxCell>
        <mxCell id="2Ca-qkcF9LUZlYM3l01k-17" value="&lt;font face=&quot;Times New Roman&quot;&gt;Request ID&lt;/font&gt;" style="shape=partialRectangle;connectable=0;fillColor=none;top=0;left=0;bottom=0;right=0;align=left;spacingLeft=6;fontStyle=5;overflow=hidden;whiteSpace=wrap;html=1;" parent="2Ca-qkcF9LUZlYM3l01k-15" vertex="1">
          <mxGeometry x="30" width="150" height="30" as="geometry">
            <mxRectangle width="150" height="30" as="alternateBounds" />
          </mxGeometry>
        </mxCell>
        <mxCell id="2Ca-qkcF9LUZlYM3l01k-18" value="" style="shape=tableRow;horizontal=0;startSize=0;swimlaneHead=0;swimlaneBody=0;fillColor=none;collapsible=0;dropTarget=0;points=[[0,0.5],[1,0.5]];portConstraint=eastwest;top=0;left=0;right=0;bottom=0;" parent="2Ca-qkcF9LUZlYM3l01k-14" vertex="1">
          <mxGeometry y="60" width="180" height="30" as="geometry" />
        </mxCell>
        <mxCell id="2Ca-qkcF9LUZlYM3l01k-19" value="" style="shape=partialRectangle;connectable=0;fillColor=none;top=0;left=0;bottom=0;right=0;editable=1;overflow=hidden;whiteSpace=wrap;html=1;" parent="2Ca-qkcF9LUZlYM3l01k-18" vertex="1">
          <mxGeometry width="30" height="30" as="geometry">
            <mxRectangle width="30" height="30" as="alternateBounds" />
          </mxGeometry>
        </mxCell>
        <mxCell id="2Ca-qkcF9LUZlYM3l01k-20" value="&lt;div&gt;&lt;font face=&quot;Times New Roman&quot;&gt;tenant_ID (FK)&lt;/font&gt;&lt;/div&gt;" style="shape=partialRectangle;connectable=0;fillColor=none;top=0;left=0;bottom=0;right=0;align=left;spacingLeft=6;overflow=hidden;whiteSpace=wrap;html=1;" parent="2Ca-qkcF9LUZlYM3l01k-18" vertex="1">
          <mxGeometry x="30" width="150" height="30" as="geometry">
            <mxRectangle width="150" height="30" as="alternateBounds" />
          </mxGeometry>
        </mxCell>
        <mxCell id="2Ca-qkcF9LUZlYM3l01k-21" value="" style="shape=tableRow;horizontal=0;startSize=0;swimlaneHead=0;swimlaneBody=0;fillColor=none;collapsible=0;dropTarget=0;points=[[0,0.5],[1,0.5]];portConstraint=eastwest;top=0;left=0;right=0;bottom=0;" parent="2Ca-qkcF9LUZlYM3l01k-14" vertex="1">
          <mxGeometry y="90" width="180" height="30" as="geometry" />
        </mxCell>
        <mxCell id="2Ca-qkcF9LUZlYM3l01k-22" value="" style="shape=partialRectangle;connectable=0;fillColor=none;top=0;left=0;bottom=0;right=0;editable=1;overflow=hidden;whiteSpace=wrap;html=1;" parent="2Ca-qkcF9LUZlYM3l01k-21" vertex="1">
          <mxGeometry width="30" height="30" as="geometry">
            <mxRectangle width="30" height="30" as="alternateBounds" />
          </mxGeometry>
        </mxCell>
        <mxCell id="2Ca-qkcF9LUZlYM3l01k-23" value="&lt;font face=&quot;Times New Roman&quot;&gt;House_Type&lt;/font&gt;" style="shape=partialRectangle;connectable=0;fillColor=none;top=0;left=0;bottom=0;right=0;align=left;spacingLeft=6;overflow=hidden;whiteSpace=wrap;html=1;" parent="2Ca-qkcF9LUZlYM3l01k-21" vertex="1">
          <mxGeometry x="30" width="150" height="30" as="geometry">
            <mxRectangle width="150" height="30" as="alternateBounds" />
          </mxGeometry>
        </mxCell>
        <mxCell id="2Ca-qkcF9LUZlYM3l01k-24" value="" style="shape=tableRow;horizontal=0;startSize=0;swimlaneHead=0;swimlaneBody=0;fillColor=none;collapsible=0;dropTarget=0;points=[[0,0.5],[1,0.5]];portConstraint=eastwest;top=0;left=0;right=0;bottom=0;" parent="2Ca-qkcF9LUZlYM3l01k-14" vertex="1">
          <mxGeometry y="120" width="180" height="33" as="geometry" />
        </mxCell>
        <mxCell id="2Ca-qkcF9LUZlYM3l01k-25" value="" style="shape=partialRectangle;connectable=0;fillColor=none;top=0;left=0;bottom=0;right=0;editable=1;overflow=hidden;whiteSpace=wrap;html=1;" parent="2Ca-qkcF9LUZlYM3l01k-24" vertex="1">
          <mxGeometry width="30" height="33" as="geometry">
            <mxRectangle width="30" height="33" as="alternateBounds" />
          </mxGeometry>
        </mxCell>
        <mxCell id="2Ca-qkcF9LUZlYM3l01k-26" value="&lt;font face=&quot;Times New Roman&quot;&gt;Preferred_Location&lt;/font&gt;" style="shape=partialRectangle;connectable=0;fillColor=none;top=0;left=0;bottom=0;right=0;align=left;spacingLeft=6;overflow=hidden;whiteSpace=wrap;html=1;" parent="2Ca-qkcF9LUZlYM3l01k-24" vertex="1">
          <mxGeometry x="30" width="150" height="33" as="geometry">
            <mxRectangle width="150" height="33" as="alternateBounds" />
          </mxGeometry>
        </mxCell>
        <mxCell id="2Ca-qkcF9LUZlYM3l01k-30" value="" style="shape=tableRow;horizontal=0;startSize=0;swimlaneHead=0;swimlaneBody=0;fillColor=none;collapsible=0;dropTarget=0;points=[[0,0.5],[1,0.5]];portConstraint=eastwest;top=0;left=0;right=0;bottom=0;" parent="2Ca-qkcF9LUZlYM3l01k-14" vertex="1">
          <mxGeometry y="153" width="180" height="30" as="geometry" />
        </mxCell>
        <mxCell id="2Ca-qkcF9LUZlYM3l01k-31" value="" style="shape=partialRectangle;connectable=0;fillColor=none;top=0;left=0;bottom=0;right=0;editable=1;overflow=hidden;whiteSpace=wrap;html=1;" parent="2Ca-qkcF9LUZlYM3l01k-30" vertex="1">
          <mxGeometry width="30" height="30" as="geometry">
            <mxRectangle width="30" height="30" as="alternateBounds" />
          </mxGeometry>
        </mxCell>
        <mxCell id="2Ca-qkcF9LUZlYM3l01k-32" value="&lt;font face=&quot;Times New Roman&quot;&gt;Budget&lt;/font&gt;" style="shape=partialRectangle;connectable=0;fillColor=none;top=0;left=0;bottom=0;right=0;align=left;spacingLeft=6;overflow=hidden;whiteSpace=wrap;html=1;" parent="2Ca-qkcF9LUZlYM3l01k-30" vertex="1">
          <mxGeometry x="30" width="150" height="30" as="geometry">
            <mxRectangle width="150" height="30" as="alternateBounds" />
          </mxGeometry>
        </mxCell>
        <mxCell id="2Ca-qkcF9LUZlYM3l01k-49" value="" style="shape=tableRow;horizontal=0;startSize=0;swimlaneHead=0;swimlaneBody=0;fillColor=none;collapsible=0;dropTarget=0;points=[[0,0.5],[1,0.5]];portConstraint=eastwest;top=0;left=0;right=0;bottom=0;" parent="2Ca-qkcF9LUZlYM3l01k-14" vertex="1">
          <mxGeometry y="183" width="180" height="30" as="geometry" />
        </mxCell>
        <mxCell id="2Ca-qkcF9LUZlYM3l01k-50" value="" style="shape=partialRectangle;connectable=0;fillColor=none;top=0;left=0;bottom=0;right=0;editable=1;overflow=hidden;whiteSpace=wrap;html=1;" parent="2Ca-qkcF9LUZlYM3l01k-49" vertex="1">
          <mxGeometry width="30" height="30" as="geometry">
            <mxRectangle width="30" height="30" as="alternateBounds" />
          </mxGeometry>
        </mxCell>
        <mxCell id="2Ca-qkcF9LUZlYM3l01k-51" value="&lt;font face=&quot;Times New Roman&quot;&gt;Status(active/fulfilled)&lt;/font&gt;" style="shape=partialRectangle;connectable=0;fillColor=none;top=0;left=0;bottom=0;right=0;align=left;spacingLeft=6;overflow=hidden;whiteSpace=wrap;html=1;" parent="2Ca-qkcF9LUZlYM3l01k-49" vertex="1">
          <mxGeometry x="30" width="150" height="30" as="geometry">
            <mxRectangle width="150" height="30" as="alternateBounds" />
          </mxGeometry>
        </mxCell>
        <mxCell id="2Ca-qkcF9LUZlYM3l01k-36" value="&lt;font face=&quot;Times New Roman&quot;&gt;Referrals&lt;/font&gt;" style="shape=table;startSize=30;container=1;collapsible=1;childLayout=tableLayout;fixedRows=1;rowLines=0;fontStyle=1;align=center;resizeLast=1;html=1;" parent="1" vertex="1">
          <mxGeometry x="-11" y="347" width="180" height="180" as="geometry" />
        </mxCell>
        <mxCell id="2Ca-qkcF9LUZlYM3l01k-37" value="" style="shape=tableRow;horizontal=0;startSize=0;swimlaneHead=0;swimlaneBody=0;fillColor=none;collapsible=0;dropTarget=0;points=[[0,0.5],[1,0.5]];portConstraint=eastwest;top=0;left=0;right=0;bottom=1;" parent="2Ca-qkcF9LUZlYM3l01k-36" vertex="1">
          <mxGeometry y="30" width="180" height="30" as="geometry" />
        </mxCell>
        <mxCell id="2Ca-qkcF9LUZlYM3l01k-38" value="&lt;font face=&quot;Times New Roman&quot;&gt;PK&lt;/font&gt;" style="shape=partialRectangle;connectable=0;fillColor=none;top=0;left=0;bottom=0;right=0;fontStyle=1;overflow=hidden;whiteSpace=wrap;html=1;" parent="2Ca-qkcF9LUZlYM3l01k-37" vertex="1">
          <mxGeometry width="30" height="30" as="geometry">
            <mxRectangle width="30" height="30" as="alternateBounds" />
          </mxGeometry>
        </mxCell>
        <mxCell id="2Ca-qkcF9LUZlYM3l01k-39" value="&lt;font face=&quot;Times New Roman&quot;&gt;Referral_ID&lt;/font&gt;" style="shape=partialRectangle;connectable=0;fillColor=none;top=0;left=0;bottom=0;right=0;align=left;spacingLeft=6;fontStyle=5;overflow=hidden;whiteSpace=wrap;html=1;" parent="2Ca-qkcF9LUZlYM3l01k-37" vertex="1">
          <mxGeometry x="30" width="150" height="30" as="geometry">
            <mxRectangle width="150" height="30" as="alternateBounds" />
          </mxGeometry>
        </mxCell>
        <mxCell id="2Ca-qkcF9LUZlYM3l01k-40" value="" style="shape=tableRow;horizontal=0;startSize=0;swimlaneHead=0;swimlaneBody=0;fillColor=none;collapsible=0;dropTarget=0;points=[[0,0.5],[1,0.5]];portConstraint=eastwest;top=0;left=0;right=0;bottom=0;" parent="2Ca-qkcF9LUZlYM3l01k-36" vertex="1">
          <mxGeometry y="60" width="180" height="30" as="geometry" />
        </mxCell>
        <mxCell id="2Ca-qkcF9LUZlYM3l01k-41" value="" style="shape=partialRectangle;connectable=0;fillColor=none;top=0;left=0;bottom=0;right=0;editable=1;overflow=hidden;whiteSpace=wrap;html=1;" parent="2Ca-qkcF9LUZlYM3l01k-40" vertex="1">
          <mxGeometry width="30" height="30" as="geometry">
            <mxRectangle width="30" height="30" as="alternateBounds" />
          </mxGeometry>
        </mxCell>
        <mxCell id="2Ca-qkcF9LUZlYM3l01k-42" value="&lt;font face=&quot;Times New Roman&quot;&gt;Date_Created&lt;/font&gt;" style="shape=partialRectangle;connectable=0;fillColor=none;top=0;left=0;bottom=0;right=0;align=left;spacingLeft=6;overflow=hidden;whiteSpace=wrap;html=1;" parent="2Ca-qkcF9LUZlYM3l01k-40" vertex="1">
          <mxGeometry x="30" width="150" height="30" as="geometry">
            <mxRectangle width="150" height="30" as="alternateBounds" />
          </mxGeometry>
        </mxCell>
        <mxCell id="2Ca-qkcF9LUZlYM3l01k-43" value="" style="shape=tableRow;horizontal=0;startSize=0;swimlaneHead=0;swimlaneBody=0;fillColor=none;collapsible=0;dropTarget=0;points=[[0,0.5],[1,0.5]];portConstraint=eastwest;top=0;left=0;right=0;bottom=0;" parent="2Ca-qkcF9LUZlYM3l01k-36" vertex="1">
          <mxGeometry y="90" width="180" height="30" as="geometry" />
        </mxCell>
        <mxCell id="2Ca-qkcF9LUZlYM3l01k-44" value="" style="shape=partialRectangle;connectable=0;fillColor=none;top=0;left=0;bottom=0;right=0;editable=1;overflow=hidden;whiteSpace=wrap;html=1;" parent="2Ca-qkcF9LUZlYM3l01k-43" vertex="1">
          <mxGeometry width="30" height="30" as="geometry">
            <mxRectangle width="30" height="30" as="alternateBounds" />
          </mxGeometry>
        </mxCell>
        <mxCell id="2Ca-qkcF9LUZlYM3l01k-45" value="&lt;font face=&quot;Times New Roman&quot;&gt;tenant_ID (FK)&lt;/font&gt;" style="shape=partialRectangle;connectable=0;fillColor=none;top=0;left=0;bottom=0;right=0;align=left;spacingLeft=6;overflow=hidden;whiteSpace=wrap;html=1;" parent="2Ca-qkcF9LUZlYM3l01k-43" vertex="1">
          <mxGeometry x="30" width="150" height="30" as="geometry">
            <mxRectangle width="150" height="30" as="alternateBounds" />
          </mxGeometry>
        </mxCell>
        <mxCell id="2Ca-qkcF9LUZlYM3l01k-46" value="" style="shape=tableRow;horizontal=0;startSize=0;swimlaneHead=0;swimlaneBody=0;fillColor=none;collapsible=0;dropTarget=0;points=[[0,0.5],[1,0.5]];portConstraint=eastwest;top=0;left=0;right=0;bottom=0;" parent="2Ca-qkcF9LUZlYM3l01k-36" vertex="1">
          <mxGeometry y="120" width="180" height="30" as="geometry" />
        </mxCell>
        <mxCell id="2Ca-qkcF9LUZlYM3l01k-47" value="" style="shape=partialRectangle;connectable=0;fillColor=none;top=0;left=0;bottom=0;right=0;editable=1;overflow=hidden;whiteSpace=wrap;html=1;" parent="2Ca-qkcF9LUZlYM3l01k-46" vertex="1">
          <mxGeometry width="30" height="30" as="geometry">
            <mxRectangle width="30" height="30" as="alternateBounds" />
          </mxGeometry>
        </mxCell>
        <mxCell id="2Ca-qkcF9LUZlYM3l01k-48" value="&lt;font face=&quot;Times New Roman&quot;&gt;Referred_Agent_Name&lt;/font&gt;" style="shape=partialRectangle;connectable=0;fillColor=none;top=0;left=0;bottom=0;right=0;align=left;spacingLeft=6;overflow=hidden;whiteSpace=wrap;html=1;" parent="2Ca-qkcF9LUZlYM3l01k-46" vertex="1">
          <mxGeometry x="30" width="150" height="30" as="geometry">
            <mxRectangle width="150" height="30" as="alternateBounds" />
          </mxGeometry>
        </mxCell>
        <mxCell id="2Ca-qkcF9LUZlYM3l01k-65" value="" style="shape=tableRow;horizontal=0;startSize=0;swimlaneHead=0;swimlaneBody=0;fillColor=none;collapsible=0;dropTarget=0;points=[[0,0.5],[1,0.5]];portConstraint=eastwest;top=0;left=0;right=0;bottom=0;" parent="2Ca-qkcF9LUZlYM3l01k-36" vertex="1">
          <mxGeometry y="150" width="180" height="30" as="geometry" />
        </mxCell>
        <mxCell id="2Ca-qkcF9LUZlYM3l01k-66" value="" style="shape=partialRectangle;connectable=0;fillColor=none;top=0;left=0;bottom=0;right=0;editable=1;overflow=hidden;whiteSpace=wrap;html=1;" parent="2Ca-qkcF9LUZlYM3l01k-65" vertex="1">
          <mxGeometry width="30" height="30" as="geometry">
            <mxRectangle width="30" height="30" as="alternateBounds" />
          </mxGeometry>
        </mxCell>
        <mxCell id="2Ca-qkcF9LUZlYM3l01k-67" value="&lt;font face=&quot;Times New Roman&quot;&gt;Contact_Details&lt;/font&gt;" style="shape=partialRectangle;connectable=0;fillColor=none;top=0;left=0;bottom=0;right=0;align=left;spacingLeft=6;overflow=hidden;whiteSpace=wrap;html=1;" parent="2Ca-qkcF9LUZlYM3l01k-65" vertex="1">
          <mxGeometry x="30" width="150" height="30" as="geometry">
            <mxRectangle width="150" height="30" as="alternateBounds" />
          </mxGeometry>
        </mxCell>
        <mxCell id="2Ca-qkcF9LUZlYM3l01k-68" value="&lt;font face=&quot;Times New Roman&quot;&gt;Listings&lt;/font&gt;" style="shape=table;startSize=30;container=1;collapsible=1;childLayout=tableLayout;fixedRows=1;rowLines=0;fontStyle=1;align=center;resizeLast=1;html=1;" parent="1" vertex="1">
          <mxGeometry x="623" y="-68" width="180" height="270" as="geometry" />
        </mxCell>
        <mxCell id="2Ca-qkcF9LUZlYM3l01k-69" value="" style="shape=tableRow;horizontal=0;startSize=0;swimlaneHead=0;swimlaneBody=0;fillColor=none;collapsible=0;dropTarget=0;points=[[0,0.5],[1,0.5]];portConstraint=eastwest;top=0;left=0;right=0;bottom=1;" parent="2Ca-qkcF9LUZlYM3l01k-68" vertex="1">
          <mxGeometry y="30" width="180" height="30" as="geometry" />
        </mxCell>
        <mxCell id="2Ca-qkcF9LUZlYM3l01k-70" value="&lt;font face=&quot;Times New Roman&quot;&gt;PK&lt;/font&gt;" style="shape=partialRectangle;connectable=0;fillColor=none;top=0;left=0;bottom=0;right=0;fontStyle=1;overflow=hidden;whiteSpace=wrap;html=1;" parent="2Ca-qkcF9LUZlYM3l01k-69" vertex="1">
          <mxGeometry width="30" height="30" as="geometry">
            <mxRectangle width="30" height="30" as="alternateBounds" />
          </mxGeometry>
        </mxCell>
        <mxCell id="2Ca-qkcF9LUZlYM3l01k-71" value="&lt;font face=&quot;Times New Roman&quot;&gt;ListingID&lt;/font&gt;" style="shape=partialRectangle;connectable=0;fillColor=none;top=0;left=0;bottom=0;right=0;align=left;spacingLeft=6;fontStyle=5;overflow=hidden;whiteSpace=wrap;html=1;" parent="2Ca-qkcF9LUZlYM3l01k-69" vertex="1">
          <mxGeometry x="30" width="150" height="30" as="geometry">
            <mxRectangle width="150" height="30" as="alternateBounds" />
          </mxGeometry>
        </mxCell>
        <mxCell id="2Ca-qkcF9LUZlYM3l01k-72" value="" style="shape=tableRow;horizontal=0;startSize=0;swimlaneHead=0;swimlaneBody=0;fillColor=none;collapsible=0;dropTarget=0;points=[[0,0.5],[1,0.5]];portConstraint=eastwest;top=0;left=0;right=0;bottom=0;" parent="2Ca-qkcF9LUZlYM3l01k-68" vertex="1">
          <mxGeometry y="60" width="180" height="30" as="geometry" />
        </mxCell>
        <mxCell id="2Ca-qkcF9LUZlYM3l01k-73" value="" style="shape=partialRectangle;connectable=0;fillColor=none;top=0;left=0;bottom=0;right=0;editable=1;overflow=hidden;whiteSpace=wrap;html=1;" parent="2Ca-qkcF9LUZlYM3l01k-72" vertex="1">
          <mxGeometry width="30" height="30" as="geometry">
            <mxRectangle width="30" height="30" as="alternateBounds" />
          </mxGeometry>
        </mxCell>
        <mxCell id="2Ca-qkcF9LUZlYM3l01k-74" value="&lt;font face=&quot;Times New Roman&quot;&gt;landlord_ID (FK)&lt;/font&gt;" style="shape=partialRectangle;connectable=0;fillColor=none;top=0;left=0;bottom=0;right=0;align=left;spacingLeft=6;overflow=hidden;whiteSpace=wrap;html=1;" parent="2Ca-qkcF9LUZlYM3l01k-72" vertex="1">
          <mxGeometry x="30" width="150" height="30" as="geometry">
            <mxRectangle width="150" height="30" as="alternateBounds" />
          </mxGeometry>
        </mxCell>
        <mxCell id="2Ca-qkcF9LUZlYM3l01k-75" value="" style="shape=tableRow;horizontal=0;startSize=0;swimlaneHead=0;swimlaneBody=0;fillColor=none;collapsible=0;dropTarget=0;points=[[0,0.5],[1,0.5]];portConstraint=eastwest;top=0;left=0;right=0;bottom=0;" parent="2Ca-qkcF9LUZlYM3l01k-68" vertex="1">
          <mxGeometry y="90" width="180" height="30" as="geometry" />
        </mxCell>
        <mxCell id="2Ca-qkcF9LUZlYM3l01k-76" value="" style="shape=partialRectangle;connectable=0;fillColor=none;top=0;left=0;bottom=0;right=0;editable=1;overflow=hidden;whiteSpace=wrap;html=1;" parent="2Ca-qkcF9LUZlYM3l01k-75" vertex="1">
          <mxGeometry width="30" height="30" as="geometry">
            <mxRectangle width="30" height="30" as="alternateBounds" />
          </mxGeometry>
        </mxCell>
        <mxCell id="2Ca-qkcF9LUZlYM3l01k-77" value="&lt;font face=&quot;Times New Roman&quot;&gt;Description&lt;/font&gt;" style="shape=partialRectangle;connectable=0;fillColor=none;top=0;left=0;bottom=0;right=0;align=left;spacingLeft=6;overflow=hidden;whiteSpace=wrap;html=1;" parent="2Ca-qkcF9LUZlYM3l01k-75" vertex="1">
          <mxGeometry x="30" width="150" height="30" as="geometry">
            <mxRectangle width="150" height="30" as="alternateBounds" />
          </mxGeometry>
        </mxCell>
        <mxCell id="2Ca-qkcF9LUZlYM3l01k-78" value="" style="shape=tableRow;horizontal=0;startSize=0;swimlaneHead=0;swimlaneBody=0;fillColor=none;collapsible=0;dropTarget=0;points=[[0,0.5],[1,0.5]];portConstraint=eastwest;top=0;left=0;right=0;bottom=0;" parent="2Ca-qkcF9LUZlYM3l01k-68" vertex="1">
          <mxGeometry y="120" width="180" height="30" as="geometry" />
        </mxCell>
        <mxCell id="2Ca-qkcF9LUZlYM3l01k-79" value="" style="shape=partialRectangle;connectable=0;fillColor=none;top=0;left=0;bottom=0;right=0;editable=1;overflow=hidden;whiteSpace=wrap;html=1;" parent="2Ca-qkcF9LUZlYM3l01k-78" vertex="1">
          <mxGeometry width="30" height="30" as="geometry">
            <mxRectangle width="30" height="30" as="alternateBounds" />
          </mxGeometry>
        </mxCell>
        <mxCell id="2Ca-qkcF9LUZlYM3l01k-80" value="&lt;font face=&quot;Times New Roman&quot;&gt;House_Type&lt;/font&gt;" style="shape=partialRectangle;connectable=0;fillColor=none;top=0;left=0;bottom=0;right=0;align=left;spacingLeft=6;overflow=hidden;whiteSpace=wrap;html=1;" parent="2Ca-qkcF9LUZlYM3l01k-78" vertex="1">
          <mxGeometry x="30" width="150" height="30" as="geometry">
            <mxRectangle width="150" height="30" as="alternateBounds" />
          </mxGeometry>
        </mxCell>
        <mxCell id="2Ca-qkcF9LUZlYM3l01k-81" value="" style="shape=tableRow;horizontal=0;startSize=0;swimlaneHead=0;swimlaneBody=0;fillColor=none;collapsible=0;dropTarget=0;points=[[0,0.5],[1,0.5]];portConstraint=eastwest;top=0;left=0;right=0;bottom=0;" parent="2Ca-qkcF9LUZlYM3l01k-68" vertex="1">
          <mxGeometry y="150" width="180" height="30" as="geometry" />
        </mxCell>
        <mxCell id="2Ca-qkcF9LUZlYM3l01k-82" value="" style="shape=partialRectangle;connectable=0;fillColor=none;top=0;left=0;bottom=0;right=0;editable=1;overflow=hidden;whiteSpace=wrap;html=1;" parent="2Ca-qkcF9LUZlYM3l01k-81" vertex="1">
          <mxGeometry width="30" height="30" as="geometry">
            <mxRectangle width="30" height="30" as="alternateBounds" />
          </mxGeometry>
        </mxCell>
        <mxCell id="2Ca-qkcF9LUZlYM3l01k-83" value="&lt;font face=&quot;Times New Roman&quot;&gt;Location&lt;/font&gt;" style="shape=partialRectangle;connectable=0;fillColor=none;top=0;left=0;bottom=0;right=0;align=left;spacingLeft=6;overflow=hidden;whiteSpace=wrap;html=1;" parent="2Ca-qkcF9LUZlYM3l01k-81" vertex="1">
          <mxGeometry x="30" width="150" height="30" as="geometry">
            <mxRectangle width="150" height="30" as="alternateBounds" />
          </mxGeometry>
        </mxCell>
        <mxCell id="2Ca-qkcF9LUZlYM3l01k-84" value="" style="shape=tableRow;horizontal=0;startSize=0;swimlaneHead=0;swimlaneBody=0;fillColor=none;collapsible=0;dropTarget=0;points=[[0,0.5],[1,0.5]];portConstraint=eastwest;top=0;left=0;right=0;bottom=0;" parent="2Ca-qkcF9LUZlYM3l01k-68" vertex="1">
          <mxGeometry y="180" width="180" height="30" as="geometry" />
        </mxCell>
        <mxCell id="2Ca-qkcF9LUZlYM3l01k-85" value="" style="shape=partialRectangle;connectable=0;fillColor=none;top=0;left=0;bottom=0;right=0;editable=1;overflow=hidden;whiteSpace=wrap;html=1;" parent="2Ca-qkcF9LUZlYM3l01k-84" vertex="1">
          <mxGeometry width="30" height="30" as="geometry">
            <mxRectangle width="30" height="30" as="alternateBounds" />
          </mxGeometry>
        </mxCell>
        <mxCell id="2Ca-qkcF9LUZlYM3l01k-86" value="&lt;font face=&quot;Times New Roman&quot;&gt;Rent_Amount&lt;/font&gt;" style="shape=partialRectangle;connectable=0;fillColor=none;top=0;left=0;bottom=0;right=0;align=left;spacingLeft=6;overflow=hidden;whiteSpace=wrap;html=1;" parent="2Ca-qkcF9LUZlYM3l01k-84" vertex="1">
          <mxGeometry x="30" width="150" height="30" as="geometry">
            <mxRectangle width="150" height="30" as="alternateBounds" />
          </mxGeometry>
        </mxCell>
        <mxCell id="2Ca-qkcF9LUZlYM3l01k-87" value="" style="shape=tableRow;horizontal=0;startSize=0;swimlaneHead=0;swimlaneBody=0;fillColor=none;collapsible=0;dropTarget=0;points=[[0,0.5],[1,0.5]];portConstraint=eastwest;top=0;left=0;right=0;bottom=0;" parent="2Ca-qkcF9LUZlYM3l01k-68" vertex="1">
          <mxGeometry y="210" width="180" height="30" as="geometry" />
        </mxCell>
        <mxCell id="2Ca-qkcF9LUZlYM3l01k-88" value="" style="shape=partialRectangle;connectable=0;fillColor=none;top=0;left=0;bottom=0;right=0;editable=1;overflow=hidden;whiteSpace=wrap;html=1;" parent="2Ca-qkcF9LUZlYM3l01k-87" vertex="1">
          <mxGeometry width="30" height="30" as="geometry">
            <mxRectangle width="30" height="30" as="alternateBounds" />
          </mxGeometry>
        </mxCell>
        <mxCell id="2Ca-qkcF9LUZlYM3l01k-89" value="&lt;font face=&quot;Times New Roman&quot;&gt;Availability_Status&lt;/font&gt;" style="shape=partialRectangle;connectable=0;fillColor=none;top=0;left=0;bottom=0;right=0;align=left;spacingLeft=6;overflow=hidden;whiteSpace=wrap;html=1;" parent="2Ca-qkcF9LUZlYM3l01k-87" vertex="1">
          <mxGeometry x="30" width="150" height="30" as="geometry">
            <mxRectangle width="150" height="30" as="alternateBounds" />
          </mxGeometry>
        </mxCell>
        <mxCell id="2Ca-qkcF9LUZlYM3l01k-90" value="" style="shape=tableRow;horizontal=0;startSize=0;swimlaneHead=0;swimlaneBody=0;fillColor=none;collapsible=0;dropTarget=0;points=[[0,0.5],[1,0.5]];portConstraint=eastwest;top=0;left=0;right=0;bottom=0;" parent="2Ca-qkcF9LUZlYM3l01k-68" vertex="1">
          <mxGeometry y="240" width="180" height="30" as="geometry" />
        </mxCell>
        <mxCell id="2Ca-qkcF9LUZlYM3l01k-91" value="" style="shape=partialRectangle;connectable=0;fillColor=none;top=0;left=0;bottom=0;right=0;editable=1;overflow=hidden;whiteSpace=wrap;html=1;" parent="2Ca-qkcF9LUZlYM3l01k-90" vertex="1">
          <mxGeometry width="30" height="30" as="geometry">
            <mxRectangle width="30" height="30" as="alternateBounds" />
          </mxGeometry>
        </mxCell>
        <mxCell id="2Ca-qkcF9LUZlYM3l01k-92" value="&lt;font face=&quot;Times New Roman&quot;&gt;Date_Created&lt;/font&gt;" style="shape=partialRectangle;connectable=0;fillColor=none;top=0;left=0;bottom=0;right=0;align=left;spacingLeft=6;overflow=hidden;whiteSpace=wrap;html=1;" parent="2Ca-qkcF9LUZlYM3l01k-90" vertex="1">
          <mxGeometry x="30" width="150" height="30" as="geometry">
            <mxRectangle width="150" height="30" as="alternateBounds" />
          </mxGeometry>
        </mxCell>
        <mxCell id="2Ca-qkcF9LUZlYM3l01k-93" value="&lt;font face=&quot;Times New Roman&quot;&gt;Reviews&lt;/font&gt;" style="shape=table;startSize=30;container=1;collapsible=1;childLayout=tableLayout;fixedRows=1;rowLines=0;fontStyle=1;align=center;resizeLast=1;html=1;" parent="1" vertex="1">
          <mxGeometry x="645" y="313" width="180" height="210" as="geometry" />
        </mxCell>
        <mxCell id="2Ca-qkcF9LUZlYM3l01k-94" value="" style="shape=tableRow;horizontal=0;startSize=0;swimlaneHead=0;swimlaneBody=0;fillColor=none;collapsible=0;dropTarget=0;points=[[0,0.5],[1,0.5]];portConstraint=eastwest;top=0;left=0;right=0;bottom=1;" parent="2Ca-qkcF9LUZlYM3l01k-93" vertex="1">
          <mxGeometry y="30" width="180" height="30" as="geometry" />
        </mxCell>
        <mxCell id="2Ca-qkcF9LUZlYM3l01k-95" value="&lt;font face=&quot;Times New Roman&quot;&gt;PK&lt;/font&gt;" style="shape=partialRectangle;connectable=0;fillColor=none;top=0;left=0;bottom=0;right=0;fontStyle=1;overflow=hidden;whiteSpace=wrap;html=1;" parent="2Ca-qkcF9LUZlYM3l01k-94" vertex="1">
          <mxGeometry width="30" height="30" as="geometry">
            <mxRectangle width="30" height="30" as="alternateBounds" />
          </mxGeometry>
        </mxCell>
        <mxCell id="2Ca-qkcF9LUZlYM3l01k-96" value="&lt;font face=&quot;Times New Roman&quot;&gt;ReviewID&lt;/font&gt;" style="shape=partialRectangle;connectable=0;fillColor=none;top=0;left=0;bottom=0;right=0;align=left;spacingLeft=6;fontStyle=5;overflow=hidden;whiteSpace=wrap;html=1;" parent="2Ca-qkcF9LUZlYM3l01k-94" vertex="1">
          <mxGeometry x="30" width="150" height="30" as="geometry">
            <mxRectangle width="150" height="30" as="alternateBounds" />
          </mxGeometry>
        </mxCell>
        <mxCell id="2Ca-qkcF9LUZlYM3l01k-97" value="" style="shape=tableRow;horizontal=0;startSize=0;swimlaneHead=0;swimlaneBody=0;fillColor=none;collapsible=0;dropTarget=0;points=[[0,0.5],[1,0.5]];portConstraint=eastwest;top=0;left=0;right=0;bottom=0;" parent="2Ca-qkcF9LUZlYM3l01k-93" vertex="1">
          <mxGeometry y="60" width="180" height="30" as="geometry" />
        </mxCell>
        <mxCell id="2Ca-qkcF9LUZlYM3l01k-98" value="" style="shape=partialRectangle;connectable=0;fillColor=none;top=0;left=0;bottom=0;right=0;editable=1;overflow=hidden;whiteSpace=wrap;html=1;" parent="2Ca-qkcF9LUZlYM3l01k-97" vertex="1">
          <mxGeometry width="30" height="30" as="geometry">
            <mxRectangle width="30" height="30" as="alternateBounds" />
          </mxGeometry>
        </mxCell>
        <mxCell id="2Ca-qkcF9LUZlYM3l01k-99" value="&lt;font face=&quot;Times New Roman&quot;&gt;tenant_ID (FK)&lt;/font&gt;" style="shape=partialRectangle;connectable=0;fillColor=none;top=0;left=0;bottom=0;right=0;align=left;spacingLeft=6;overflow=hidden;whiteSpace=wrap;html=1;" parent="2Ca-qkcF9LUZlYM3l01k-97" vertex="1">
          <mxGeometry x="30" width="150" height="30" as="geometry">
            <mxRectangle width="150" height="30" as="alternateBounds" />
          </mxGeometry>
        </mxCell>
        <mxCell id="2Ca-qkcF9LUZlYM3l01k-100" value="" style="shape=tableRow;horizontal=0;startSize=0;swimlaneHead=0;swimlaneBody=0;fillColor=none;collapsible=0;dropTarget=0;points=[[0,0.5],[1,0.5]];portConstraint=eastwest;top=0;left=0;right=0;bottom=0;" parent="2Ca-qkcF9LUZlYM3l01k-93" vertex="1">
          <mxGeometry y="90" width="180" height="30" as="geometry" />
        </mxCell>
        <mxCell id="2Ca-qkcF9LUZlYM3l01k-101" value="" style="shape=partialRectangle;connectable=0;fillColor=none;top=0;left=0;bottom=0;right=0;editable=1;overflow=hidden;whiteSpace=wrap;html=1;" parent="2Ca-qkcF9LUZlYM3l01k-100" vertex="1">
          <mxGeometry width="30" height="30" as="geometry">
            <mxRectangle width="30" height="30" as="alternateBounds" />
          </mxGeometry>
        </mxCell>
        <mxCell id="2Ca-qkcF9LUZlYM3l01k-102" value="&lt;font face=&quot;Times New Roman&quot;&gt;landlord_ID (FK)&lt;/font&gt;" style="shape=partialRectangle;connectable=0;fillColor=none;top=0;left=0;bottom=0;right=0;align=left;spacingLeft=6;overflow=hidden;whiteSpace=wrap;html=1;" parent="2Ca-qkcF9LUZlYM3l01k-100" vertex="1">
          <mxGeometry x="30" width="150" height="30" as="geometry">
            <mxRectangle width="150" height="30" as="alternateBounds" />
          </mxGeometry>
        </mxCell>
        <mxCell id="2Ca-qkcF9LUZlYM3l01k-103" value="" style="shape=tableRow;horizontal=0;startSize=0;swimlaneHead=0;swimlaneBody=0;fillColor=none;collapsible=0;dropTarget=0;points=[[0,0.5],[1,0.5]];portConstraint=eastwest;top=0;left=0;right=0;bottom=0;" parent="2Ca-qkcF9LUZlYM3l01k-93" vertex="1">
          <mxGeometry y="120" width="180" height="30" as="geometry" />
        </mxCell>
        <mxCell id="2Ca-qkcF9LUZlYM3l01k-104" value="" style="shape=partialRectangle;connectable=0;fillColor=none;top=0;left=0;bottom=0;right=0;editable=1;overflow=hidden;whiteSpace=wrap;html=1;" parent="2Ca-qkcF9LUZlYM3l01k-103" vertex="1">
          <mxGeometry width="30" height="30" as="geometry">
            <mxRectangle width="30" height="30" as="alternateBounds" />
          </mxGeometry>
        </mxCell>
        <mxCell id="2Ca-qkcF9LUZlYM3l01k-105" value="&lt;font face=&quot;Times New Roman&quot;&gt;rating (1-5)&lt;/font&gt;" style="shape=partialRectangle;connectable=0;fillColor=none;top=0;left=0;bottom=0;right=0;align=left;spacingLeft=6;overflow=hidden;whiteSpace=wrap;html=1;" parent="2Ca-qkcF9LUZlYM3l01k-103" vertex="1">
          <mxGeometry x="30" width="150" height="30" as="geometry">
            <mxRectangle width="150" height="30" as="alternateBounds" />
          </mxGeometry>
        </mxCell>
        <mxCell id="2Ca-qkcF9LUZlYM3l01k-106" value="" style="shape=tableRow;horizontal=0;startSize=0;swimlaneHead=0;swimlaneBody=0;fillColor=none;collapsible=0;dropTarget=0;points=[[0,0.5],[1,0.5]];portConstraint=eastwest;top=0;left=0;right=0;bottom=0;" parent="2Ca-qkcF9LUZlYM3l01k-93" vertex="1">
          <mxGeometry y="150" width="180" height="30" as="geometry" />
        </mxCell>
        <mxCell id="2Ca-qkcF9LUZlYM3l01k-107" value="" style="shape=partialRectangle;connectable=0;fillColor=none;top=0;left=0;bottom=0;right=0;editable=1;overflow=hidden;whiteSpace=wrap;html=1;" parent="2Ca-qkcF9LUZlYM3l01k-106" vertex="1">
          <mxGeometry width="30" height="30" as="geometry">
            <mxRectangle width="30" height="30" as="alternateBounds" />
          </mxGeometry>
        </mxCell>
        <mxCell id="2Ca-qkcF9LUZlYM3l01k-108" value="&lt;font face=&quot;Times New Roman&quot;&gt;Comments&lt;/font&gt;" style="shape=partialRectangle;connectable=0;fillColor=none;top=0;left=0;bottom=0;right=0;align=left;spacingLeft=6;overflow=hidden;whiteSpace=wrap;html=1;" parent="2Ca-qkcF9LUZlYM3l01k-106" vertex="1">
          <mxGeometry x="30" width="150" height="30" as="geometry">
            <mxRectangle width="150" height="30" as="alternateBounds" />
          </mxGeometry>
        </mxCell>
        <mxCell id="2Ca-qkcF9LUZlYM3l01k-109" value="" style="shape=tableRow;horizontal=0;startSize=0;swimlaneHead=0;swimlaneBody=0;fillColor=none;collapsible=0;dropTarget=0;points=[[0,0.5],[1,0.5]];portConstraint=eastwest;top=0;left=0;right=0;bottom=0;" parent="2Ca-qkcF9LUZlYM3l01k-93" vertex="1">
          <mxGeometry y="180" width="180" height="30" as="geometry" />
        </mxCell>
        <mxCell id="2Ca-qkcF9LUZlYM3l01k-110" value="" style="shape=partialRectangle;connectable=0;fillColor=none;top=0;left=0;bottom=0;right=0;editable=1;overflow=hidden;whiteSpace=wrap;html=1;" parent="2Ca-qkcF9LUZlYM3l01k-109" vertex="1">
          <mxGeometry width="30" height="30" as="geometry">
            <mxRectangle width="30" height="30" as="alternateBounds" />
          </mxGeometry>
        </mxCell>
        <mxCell id="2Ca-qkcF9LUZlYM3l01k-111" value="&lt;font face=&quot;Times New Roman&quot;&gt;Date_Created&lt;/font&gt;" style="shape=partialRectangle;connectable=0;fillColor=none;top=0;left=0;bottom=0;right=0;align=left;spacingLeft=6;overflow=hidden;whiteSpace=wrap;html=1;" parent="2Ca-qkcF9LUZlYM3l01k-109" vertex="1">
          <mxGeometry x="30" width="150" height="30" as="geometry">
            <mxRectangle width="150" height="30" as="alternateBounds" />
          </mxGeometry>
        </mxCell>
        <mxCell id="2Ca-qkcF9LUZlYM3l01k-122" value="&lt;font face=&quot;Times New Roman&quot;&gt;AdminAction&lt;/font&gt;" style="shape=table;startSize=30;container=1;collapsible=1;childLayout=tableLayout;fixedRows=1;rowLines=0;fontStyle=1;align=center;resizeLast=1;html=1;" parent="1" vertex="1">
          <mxGeometry x="319" y="337" width="180" height="210" as="geometry" />
        </mxCell>
        <mxCell id="2Ca-qkcF9LUZlYM3l01k-123" value="" style="shape=tableRow;horizontal=0;startSize=0;swimlaneHead=0;swimlaneBody=0;fillColor=none;collapsible=0;dropTarget=0;points=[[0,0.5],[1,0.5]];portConstraint=eastwest;top=0;left=0;right=0;bottom=1;" parent="2Ca-qkcF9LUZlYM3l01k-122" vertex="1">
          <mxGeometry y="30" width="180" height="30" as="geometry" />
        </mxCell>
        <mxCell id="2Ca-qkcF9LUZlYM3l01k-124" value="&lt;font face=&quot;Times New Roman&quot;&gt;PK&lt;/font&gt;" style="shape=partialRectangle;connectable=0;fillColor=none;top=0;left=0;bottom=0;right=0;fontStyle=1;overflow=hidden;whiteSpace=wrap;html=1;" parent="2Ca-qkcF9LUZlYM3l01k-123" vertex="1">
          <mxGeometry width="30" height="30" as="geometry">
            <mxRectangle width="30" height="30" as="alternateBounds" />
          </mxGeometry>
        </mxCell>
        <mxCell id="2Ca-qkcF9LUZlYM3l01k-125" value="&lt;font face=&quot;Times New Roman&quot;&gt;ActionID&lt;/font&gt;" style="shape=partialRectangle;connectable=0;fillColor=none;top=0;left=0;bottom=0;right=0;align=left;spacingLeft=6;fontStyle=5;overflow=hidden;whiteSpace=wrap;html=1;" parent="2Ca-qkcF9LUZlYM3l01k-123" vertex="1">
          <mxGeometry x="30" width="150" height="30" as="geometry">
            <mxRectangle width="150" height="30" as="alternateBounds" />
          </mxGeometry>
        </mxCell>
        <mxCell id="2Ca-qkcF9LUZlYM3l01k-126" value="" style="shape=tableRow;horizontal=0;startSize=0;swimlaneHead=0;swimlaneBody=0;fillColor=none;collapsible=0;dropTarget=0;points=[[0,0.5],[1,0.5]];portConstraint=eastwest;top=0;left=0;right=0;bottom=0;" parent="2Ca-qkcF9LUZlYM3l01k-122" vertex="1">
          <mxGeometry y="60" width="180" height="30" as="geometry" />
        </mxCell>
        <mxCell id="2Ca-qkcF9LUZlYM3l01k-127" value="" style="shape=partialRectangle;connectable=0;fillColor=none;top=0;left=0;bottom=0;right=0;editable=1;overflow=hidden;whiteSpace=wrap;html=1;" parent="2Ca-qkcF9LUZlYM3l01k-126" vertex="1">
          <mxGeometry width="30" height="30" as="geometry">
            <mxRectangle width="30" height="30" as="alternateBounds" />
          </mxGeometry>
        </mxCell>
        <mxCell id="2Ca-qkcF9LUZlYM3l01k-128" value="&lt;font face=&quot;Times New Roman&quot;&gt;admin_ID (FK)&lt;/font&gt;" style="shape=partialRectangle;connectable=0;fillColor=none;top=0;left=0;bottom=0;right=0;align=left;spacingLeft=6;overflow=hidden;whiteSpace=wrap;html=1;" parent="2Ca-qkcF9LUZlYM3l01k-126" vertex="1">
          <mxGeometry x="30" width="150" height="30" as="geometry">
            <mxRectangle width="150" height="30" as="alternateBounds" />
          </mxGeometry>
        </mxCell>
        <mxCell id="2Ca-qkcF9LUZlYM3l01k-156" value="" style="edgeStyle=entityRelationEdgeStyle;fontSize=12;html=1;endArrow=ERmandOne;rounded=0;startSize=8;endSize=8;curved=1;" parent="2Ca-qkcF9LUZlYM3l01k-126" source="2Ca-qkcF9LUZlYM3l01k-126" edge="1">
          <mxGeometry width="100" height="100" relative="1" as="geometry">
            <mxPoint x="-139" y="-282" as="sourcePoint" />
            <mxPoint x="321.4213562373095" y="75" as="targetPoint" />
          </mxGeometry>
        </mxCell>
        <mxCell id="2Ca-qkcF9LUZlYM3l01k-129" value="" style="shape=tableRow;horizontal=0;startSize=0;swimlaneHead=0;swimlaneBody=0;fillColor=none;collapsible=0;dropTarget=0;points=[[0,0.5],[1,0.5]];portConstraint=eastwest;top=0;left=0;right=0;bottom=0;" parent="2Ca-qkcF9LUZlYM3l01k-122" vertex="1">
          <mxGeometry y="90" width="180" height="30" as="geometry" />
        </mxCell>
        <mxCell id="2Ca-qkcF9LUZlYM3l01k-130" value="" style="shape=partialRectangle;connectable=0;fillColor=none;top=0;left=0;bottom=0;right=0;editable=1;overflow=hidden;whiteSpace=wrap;html=1;" parent="2Ca-qkcF9LUZlYM3l01k-129" vertex="1">
          <mxGeometry width="30" height="30" as="geometry">
            <mxRectangle width="30" height="30" as="alternateBounds" />
          </mxGeometry>
        </mxCell>
        <mxCell id="2Ca-qkcF9LUZlYM3l01k-131" value="&lt;font face=&quot;Times New Roman&quot;&gt;Action_type&lt;/font&gt;" style="shape=partialRectangle;connectable=0;fillColor=none;top=0;left=0;bottom=0;right=0;align=left;spacingLeft=6;overflow=hidden;whiteSpace=wrap;html=1;" parent="2Ca-qkcF9LUZlYM3l01k-129" vertex="1">
          <mxGeometry x="30" width="150" height="30" as="geometry">
            <mxRectangle width="150" height="30" as="alternateBounds" />
          </mxGeometry>
        </mxCell>
        <mxCell id="2Ca-qkcF9LUZlYM3l01k-132" value="" style="shape=tableRow;horizontal=0;startSize=0;swimlaneHead=0;swimlaneBody=0;fillColor=none;collapsible=0;dropTarget=0;points=[[0,0.5],[1,0.5]];portConstraint=eastwest;top=0;left=0;right=0;bottom=0;" parent="2Ca-qkcF9LUZlYM3l01k-122" vertex="1">
          <mxGeometry y="120" width="180" height="30" as="geometry" />
        </mxCell>
        <mxCell id="2Ca-qkcF9LUZlYM3l01k-133" value="" style="shape=partialRectangle;connectable=0;fillColor=none;top=0;left=0;bottom=0;right=0;editable=1;overflow=hidden;whiteSpace=wrap;html=1;" parent="2Ca-qkcF9LUZlYM3l01k-132" vertex="1">
          <mxGeometry width="30" height="30" as="geometry">
            <mxRectangle width="30" height="30" as="alternateBounds" />
          </mxGeometry>
        </mxCell>
        <mxCell id="2Ca-qkcF9LUZlYM3l01k-134" value="&lt;font face=&quot;Times New Roman&quot;&gt;Target_UserID (FK)&lt;/font&gt;" style="shape=partialRectangle;connectable=0;fillColor=none;top=0;left=0;bottom=0;right=0;align=left;spacingLeft=6;overflow=hidden;whiteSpace=wrap;html=1;" parent="2Ca-qkcF9LUZlYM3l01k-132" vertex="1">
          <mxGeometry x="30" width="150" height="30" as="geometry">
            <mxRectangle width="150" height="30" as="alternateBounds" />
          </mxGeometry>
        </mxCell>
        <mxCell id="2Ca-qkcF9LUZlYM3l01k-135" value="" style="shape=tableRow;horizontal=0;startSize=0;swimlaneHead=0;swimlaneBody=0;fillColor=none;collapsible=0;dropTarget=0;points=[[0,0.5],[1,0.5]];portConstraint=eastwest;top=0;left=0;right=0;bottom=0;" parent="2Ca-qkcF9LUZlYM3l01k-122" vertex="1">
          <mxGeometry y="150" width="180" height="30" as="geometry" />
        </mxCell>
        <mxCell id="2Ca-qkcF9LUZlYM3l01k-136" value="" style="shape=partialRectangle;connectable=0;fillColor=none;top=0;left=0;bottom=0;right=0;editable=1;overflow=hidden;whiteSpace=wrap;html=1;" parent="2Ca-qkcF9LUZlYM3l01k-135" vertex="1">
          <mxGeometry width="30" height="30" as="geometry">
            <mxRectangle width="30" height="30" as="alternateBounds" />
          </mxGeometry>
        </mxCell>
        <mxCell id="2Ca-qkcF9LUZlYM3l01k-137" value="&lt;font face=&quot;Times New Roman&quot;&gt;Target_ListingID (FK)&lt;/font&gt;" style="shape=partialRectangle;connectable=0;fillColor=none;top=0;left=0;bottom=0;right=0;align=left;spacingLeft=6;overflow=hidden;whiteSpace=wrap;html=1;" parent="2Ca-qkcF9LUZlYM3l01k-135" vertex="1">
          <mxGeometry x="30" width="150" height="30" as="geometry">
            <mxRectangle width="150" height="30" as="alternateBounds" />
          </mxGeometry>
        </mxCell>
        <mxCell id="2Ca-qkcF9LUZlYM3l01k-138" value="" style="shape=tableRow;horizontal=0;startSize=0;swimlaneHead=0;swimlaneBody=0;fillColor=none;collapsible=0;dropTarget=0;points=[[0,0.5],[1,0.5]];portConstraint=eastwest;top=0;left=0;right=0;bottom=0;" parent="2Ca-qkcF9LUZlYM3l01k-122" vertex="1">
          <mxGeometry y="180" width="180" height="30" as="geometry" />
        </mxCell>
        <mxCell id="2Ca-qkcF9LUZlYM3l01k-139" value="" style="shape=partialRectangle;connectable=0;fillColor=none;top=0;left=0;bottom=0;right=0;editable=1;overflow=hidden;whiteSpace=wrap;html=1;" parent="2Ca-qkcF9LUZlYM3l01k-138" vertex="1">
          <mxGeometry width="30" height="30" as="geometry">
            <mxRectangle width="30" height="30" as="alternateBounds" />
          </mxGeometry>
        </mxCell>
        <mxCell id="2Ca-qkcF9LUZlYM3l01k-140" value="&lt;font face=&quot;Times New Roman&quot;&gt;Date_Performed&lt;/font&gt;" style="shape=partialRectangle;connectable=0;fillColor=none;top=0;left=0;bottom=0;right=0;align=left;spacingLeft=6;overflow=hidden;whiteSpace=wrap;html=1;" parent="2Ca-qkcF9LUZlYM3l01k-138" vertex="1">
          <mxGeometry x="30" width="150" height="30" as="geometry">
            <mxRectangle width="150" height="30" as="alternateBounds" />
          </mxGeometry>
        </mxCell>
        <mxCell id="2Ca-qkcF9LUZlYM3l01k-143" value="&lt;font face=&quot;Times New Roman&quot;&gt;Posts&lt;/font&gt;" style="edgeStyle=entityRelationEdgeStyle;fontSize=12;html=1;endArrow=ERzeroToMany;startArrow=ERmandOne;rounded=0;startSize=8;endSize=8;curved=1;entryX=0.016;entryY=0.847;entryDx=0;entryDy=0;entryPerimeter=0;" parent="1" target="2Ca-qkcF9LUZlYM3l01k-15" edge="1">
          <mxGeometry width="100" height="100" relative="1" as="geometry">
            <mxPoint x="173" y="-51" as="sourcePoint" />
            <mxPoint x="280" y="79" as="targetPoint" />
          </mxGeometry>
        </mxCell>
        <mxCell id="2Ca-qkcF9LUZlYM3l01k-144" value="&lt;font style=&quot;font-size: 10px;&quot; face=&quot;Garamond&quot;&gt;one user to many requests&lt;/font&gt;" style="text;strokeColor=none;fillColor=none;html=1;align=center;verticalAlign=middle;whiteSpace=wrap;rounded=0;fontSize=16;" parent="1" vertex="1">
          <mxGeometry x="213" y="-20" width="60" height="30" as="geometry" />
        </mxCell>
        <mxCell id="2Ca-qkcF9LUZlYM3l01k-145" value="&lt;font face=&quot;Times New Roman&quot;&gt;verifies&lt;/font&gt;" style="edgeStyle=entityRelationEdgeStyle;fontSize=12;html=1;endArrow=ERoneToMany;startArrow=ERmandOne;rounded=0;startSize=8;endSize=8;curved=1;exitX=0.13;exitY=-0.013;exitDx=0;exitDy=0;exitPerimeter=0;" parent="1" source="2Ca-qkcF9LUZlYM3l01k-122" edge="1">
          <mxGeometry width="100" height="100" relative="1" as="geometry">
            <mxPoint x="229" y="344" as="sourcePoint" />
            <mxPoint x="-10" y="186" as="targetPoint" />
            <Array as="points">
              <mxPoint x="-6" y="185" />
            </Array>
          </mxGeometry>
        </mxCell>
        <mxCell id="2Ca-qkcF9LUZlYM3l01k-149" value="&lt;font face=&quot;Times New Roman&quot;&gt;verifies&lt;/font&gt;" style="edgeStyle=entityRelationEdgeStyle;fontSize=12;html=1;endArrow=ERoneToMany;startArrow=ERmandOne;rounded=0;startSize=8;endSize=8;curved=1;entryX=0.01;entryY=0.067;entryDx=0;entryDy=0;entryPerimeter=0;" parent="1" target="2Ca-qkcF9LUZlYM3l01k-68" edge="1">
          <mxGeometry width="100" height="100" relative="1" as="geometry">
            <mxPoint x="501" y="352" as="sourcePoint" />
            <mxPoint x="601" y="252" as="targetPoint" />
          </mxGeometry>
        </mxCell>
        <mxCell id="2Ca-qkcF9LUZlYM3l01k-150" value="&lt;div&gt;&lt;font face=&quot;Times New Roman&quot;&gt;makes&lt;/font&gt;&lt;/div&gt;" style="edgeStyle=entityRelationEdgeStyle;fontSize=12;html=1;endArrow=ERzeroToMany;startArrow=ERmandOne;rounded=0;startSize=8;endSize=8;curved=1;exitX=0.964;exitY=0.86;exitDx=0;exitDy=0;exitPerimeter=0;entryX=0;entryY=0.25;entryDx=0;entryDy=0;" parent="1" target="2Ca-qkcF9LUZlYM3l01k-93" edge="1">
          <mxGeometry width="100" height="100" relative="1" as="geometry">
            <mxPoint x="171.99999999999997" y="89.99999999999996" as="sourcePoint" />
            <mxPoint x="652.9200000000001" y="429.2699999999999" as="targetPoint" />
            <Array as="points">
              <mxPoint x="336.48" y="315.2" />
              <mxPoint x="325.48" y="304.2" />
            </Array>
          </mxGeometry>
        </mxCell>
        <mxCell id="2Ca-qkcF9LUZlYM3l01k-151" value="&lt;font style=&quot;font-size: 10px;&quot; face=&quot;Garamond&quot;&gt;one user to many&lt;/font&gt;" style="text;strokeColor=none;fillColor=none;html=1;align=center;verticalAlign=middle;whiteSpace=wrap;rounded=0;fontSize=16;" parent="1" vertex="1">
          <mxGeometry x="409" y="253" width="46" height="28" as="geometry" />
        </mxCell>
        <mxCell id="2Ca-qkcF9LUZlYM3l01k-152" value="&lt;font face=&quot;Times New Roman&quot;&gt;assigns&amp;amp;verifies&lt;/font&gt;" style="edgeStyle=entityRelationEdgeStyle;fontSize=12;html=1;endArrow=ERzeroToMany;startArrow=ERmandOne;rounded=0;startSize=8;endSize=8;curved=1;exitX=1.003;exitY=0.093;exitDx=0;exitDy=0;exitPerimeter=0;" parent="1" source="2Ca-qkcF9LUZlYM3l01k-36" edge="1">
          <mxGeometry width="100" height="100" relative="1" as="geometry">
            <mxPoint x="217" y="454" as="sourcePoint" />
            <mxPoint x="317" y="354" as="targetPoint" />
          </mxGeometry>
        </mxCell>
        <mxCell id="2Ca-qkcF9LUZlYM3l01k-153" value="posts" style="edgeStyle=entityRelationEdgeStyle;fontSize=12;html=1;endArrow=ERoneToMany;startArrow=ERoneToMany;rounded=0;startSize=8;endSize=8;curved=1;exitX=1;exitY=0;exitDx=0;exitDy=0;entryX=0.01;entryY=0.035;entryDx=0;entryDy=0;entryPerimeter=0;" parent="1" source="2Ca-qkcF9LUZlYM3l01k-1" target="2Ca-qkcF9LUZlYM3l01k-68" edge="1">
          <mxGeometry width="100" height="100" relative="1" as="geometry">
            <mxPoint x="261" y="-56" as="sourcePoint" />
            <mxPoint x="361" y="-156" as="targetPoint" />
          </mxGeometry>
        </mxCell>
        <mxCell id="2Ca-qkcF9LUZlYM3l01k-154" value="&lt;h2&gt;&lt;u&gt;&lt;font face=&quot;Times New Roman&quot;&gt;&lt;b&gt;NyumbaNow Entity Relationship Diagram&lt;/b&gt;&lt;/font&gt;&lt;/u&gt;&lt;/h2&gt;" style="text;strokeColor=none;fillColor=none;html=1;align=center;verticalAlign=middle;whiteSpace=wrap;rounded=0;fontSize=16;" parent="1" vertex="1">
          <mxGeometry x="205" y="-122" width="343" height="30" as="geometry" />
        </mxCell>
        <mxCell id="2Ca-qkcF9LUZlYM3l01k-157" value="&lt;font face=&quot;Times New Roman&quot;&gt;refers&lt;/font&gt;" style="edgeStyle=entityRelationEdgeStyle;fontSize=12;html=1;endArrow=ERzeroToMany;startArrow=ERmandOne;rounded=0;startSize=8;endSize=8;curved=1;entryX=0.076;entryY=1.073;entryDx=0;entryDy=0;entryPerimeter=0;" parent="1" target="2Ca-qkcF9LUZlYM3l01k-119" edge="1">
          <mxGeometry width="100" height="100" relative="1" as="geometry">
            <mxPoint x="40" y="348" as="sourcePoint" />
            <mxPoint x="140" y="248" as="targetPoint" />
          </mxGeometry>
        </mxCell>
      </root>
    </mxGraphModel>
  </diagram>
  <diagram id="8UqT-6IHnbn9gqYob_1O" name="Page-5">
    <mxGraphModel dx="1442" dy="1063" grid="0" gridSize="10" guides="1" tooltips="1" connect="1" arrows="1" fold="1" page="0" pageScale="1" pageWidth="850" pageHeight="1100" math="0" shadow="0">
      <root>
        <mxCell id="0" />
        <mxCell id="1" parent="0" />
        <mxCell id="DRK3mvMYITtGqwqKDoyz-12" value="&lt;font face=&quot;Times New Roman&quot;&gt;Listings&amp;amp;Responses&lt;/font&gt;" style="endArrow=classic;html=1;rounded=0;fontSize=12;startSize=8;endSize=8;curved=1;exitX=1;exitY=0;exitDx=0;exitDy=0;" parent="1" source="DRK3mvMYITtGqwqKDoyz-6" edge="1">
          <mxGeometry width="50" height="50" relative="1" as="geometry">
            <mxPoint x="128" y="95" as="sourcePoint" />
            <mxPoint x="233" y="73" as="targetPoint" />
          </mxGeometry>
        </mxCell>
        <mxCell id="DRK3mvMYITtGqwqKDoyz-3" value="&lt;font face=&quot;Times New Roman&quot;&gt;0&lt;/font&gt;" style="swimlane;whiteSpace=wrap;html=1;" parent="1" vertex="1">
          <mxGeometry x="234" y="-52" width="200" height="200" as="geometry">
            <mxRectangle x="83" y="-17" width="42" height="26" as="alternateBounds" />
          </mxGeometry>
        </mxCell>
        <mxCell id="DRK3mvMYITtGqwqKDoyz-4" value="&lt;font face=&quot;Times New Roman&quot;&gt;NyumbaNow System&lt;/font&gt;" style="text;html=1;align=center;verticalAlign=middle;resizable=0;points=[];autosize=1;strokeColor=none;fillColor=none;fontSize=16;" parent="DRK3mvMYITtGqwqKDoyz-3" vertex="1">
          <mxGeometry x="25" y="77" width="155" height="31" as="geometry" />
        </mxCell>
        <mxCell id="DRK3mvMYITtGqwqKDoyz-5" value="&lt;font face=&quot;Times New Roman&quot;&gt;Tenant&lt;/font&gt;" style="rounded=1;whiteSpace=wrap;html=1;" parent="1" vertex="1">
          <mxGeometry x="2" y="-50" width="107" height="44" as="geometry" />
        </mxCell>
        <mxCell id="DRK3mvMYITtGqwqKDoyz-6" value="&lt;font face=&quot;Times New Roman&quot;&gt;Landlord&lt;/font&gt;" style="rounded=1;whiteSpace=wrap;html=1;" parent="1" vertex="1">
          <mxGeometry x="-61" y="73" width="103" height="39" as="geometry" />
        </mxCell>
        <mxCell id="DRK3mvMYITtGqwqKDoyz-7" value="Admin" style="rounded=1;whiteSpace=wrap;html=1;" parent="1" vertex="1">
          <mxGeometry x="277" y="230" width="105" height="34" as="geometry" />
        </mxCell>
        <mxCell id="DRK3mvMYITtGqwqKDoyz-9" value="&lt;font face=&quot;Times New Roman&quot;&gt;DS1&lt;/font&gt;" style="html=1;dashed=0;whiteSpace=wrap;shape=mxgraph.dfd.dataStoreID;align=left;spacingLeft=3;points=[[0,0],[0.5,0],[1,0],[0,0.5],[1,0.5],[0,1],[0.5,1],[1,1]];" parent="1" vertex="1">
          <mxGeometry x="511" y="33" width="100" height="30" as="geometry" />
        </mxCell>
        <mxCell id="DRK3mvMYITtGqwqKDoyz-10" value="&lt;font face=&quot;Times New Roman&quot;&gt;requests, referrals,reviews&lt;/font&gt;" style="endArrow=classic;html=1;rounded=0;fontSize=12;startSize=8;endSize=8;curved=1;exitX=1;exitY=0.5;exitDx=0;exitDy=0;entryX=0;entryY=0.115;entryDx=0;entryDy=0;entryPerimeter=0;" parent="1" source="DRK3mvMYITtGqwqKDoyz-5" target="DRK3mvMYITtGqwqKDoyz-3" edge="1">
          <mxGeometry width="50" height="50" relative="1" as="geometry">
            <mxPoint x="145" y="24" as="sourcePoint" />
            <mxPoint x="195" y="-26" as="targetPoint" />
            <Array as="points">
              <mxPoint x="186" y="-70" />
            </Array>
          </mxGeometry>
        </mxCell>
        <mxCell id="DRK3mvMYITtGqwqKDoyz-11" value="&lt;font face=&quot;Times New Roman&quot;&gt;Listings, matches, responses&lt;/font&gt;" style="endArrow=classic;html=1;rounded=0;fontSize=12;startSize=8;endSize=8;curved=1;entryX=1;entryY=1;entryDx=0;entryDy=0;exitX=0;exitY=0.25;exitDx=0;exitDy=0;" parent="1" source="DRK3mvMYITtGqwqKDoyz-3" target="DRK3mvMYITtGqwqKDoyz-5" edge="1">
          <mxGeometry x="0.0022" y="2" width="50" height="50" relative="1" as="geometry">
            <mxPoint x="214" y="10" as="sourcePoint" />
            <mxPoint x="175" y="-11" as="targetPoint" />
            <Array as="points">
              <mxPoint x="161" y="29" />
            </Array>
            <mxPoint as="offset" />
          </mxGeometry>
        </mxCell>
        <mxCell id="DRK3mvMYITtGqwqKDoyz-13" value="&lt;font face=&quot;Times New Roman&quot;&gt;&lt;br&gt;Tenants requests&amp;amp;referrals&lt;br&gt;&lt;br&gt;&lt;/font&gt;" style="endArrow=classic;html=1;rounded=0;fontSize=12;startSize=8;endSize=8;curved=1;entryX=1;entryY=1;entryDx=0;entryDy=0;" parent="1" target="DRK3mvMYITtGqwqKDoyz-6" edge="1">
          <mxGeometry width="50" height="50" relative="1" as="geometry">
            <mxPoint x="230" y="110" as="sourcePoint" />
            <mxPoint x="162" y="107" as="targetPoint" />
          </mxGeometry>
        </mxCell>
        <mxCell id="DRK3mvMYITtGqwqKDoyz-14" value="&lt;font face=&quot;Times New Roman&quot;&gt;Verification&amp;amp;moderation&lt;/font&gt;" style="endArrow=classic;html=1;rounded=0;fontSize=12;startSize=8;endSize=8;curved=1;exitX=0.09;exitY=0.106;exitDx=0;exitDy=0;exitPerimeter=0;" parent="1" source="DRK3mvMYITtGqwqKDoyz-7" edge="1">
          <mxGeometry x="-0.2712" y="56" width="50" height="50" relative="1" as="geometry">
            <mxPoint x="259" y="217" as="sourcePoint" />
            <mxPoint x="284" y="148" as="targetPoint" />
            <mxPoint as="offset" />
          </mxGeometry>
        </mxCell>
        <mxCell id="DRK3mvMYITtGqwqKDoyz-15" value="&lt;font face=&quot;Times New Roman&quot;&gt;reports &amp;amp;flagged listings&lt;/font&gt;" style="endArrow=classic;html=1;rounded=0;fontSize=12;startSize=8;endSize=8;curved=1;exitX=0.5;exitY=1;exitDx=0;exitDy=0;" parent="1" source="DRK3mvMYITtGqwqKDoyz-3" edge="1">
          <mxGeometry x="0.5422" y="50" width="50" height="50" relative="1" as="geometry">
            <mxPoint x="393" y="225" as="sourcePoint" />
            <mxPoint x="336" y="230" as="targetPoint" />
            <mxPoint as="offset" />
          </mxGeometry>
        </mxCell>
        <mxCell id="DRK3mvMYITtGqwqKDoyz-16" value="&lt;font face=&quot;Times New Roman&quot;&gt;Store/retrieve data&lt;/font&gt;" style="endArrow=classic;html=1;rounded=0;fontSize=12;startSize=8;endSize=8;curved=1;entryX=0;entryY=0;entryDx=0;entryDy=0;" parent="1" target="DRK3mvMYITtGqwqKDoyz-9" edge="1">
          <mxGeometry width="50" height="50" relative="1" as="geometry">
            <mxPoint x="437" y="-14" as="sourcePoint" />
            <mxPoint x="514" y="-54.5" as="targetPoint" />
          </mxGeometry>
        </mxCell>
        <mxCell id="DRK3mvMYITtGqwqKDoyz-17" value="&lt;font face=&quot;Times New Roman&quot;&gt;listings,Users,Requests, reviews&lt;/font&gt;" style="endArrow=classic;html=1;rounded=0;fontSize=12;startSize=8;endSize=8;curved=1;entryX=1;entryY=0.75;entryDx=0;entryDy=0;exitX=0;exitY=1;exitDx=0;exitDy=0;" parent="1" source="DRK3mvMYITtGqwqKDoyz-9" target="DRK3mvMYITtGqwqKDoyz-3" edge="1">
          <mxGeometry x="-1" y="45" width="50" height="50" relative="1" as="geometry">
            <mxPoint x="440" y="130" as="sourcePoint" />
            <mxPoint x="490" y="80" as="targetPoint" />
            <mxPoint x="16" y="-12" as="offset" />
          </mxGeometry>
        </mxCell>
        <mxCell id="DRK3mvMYITtGqwqKDoyz-18" value="&lt;h1&gt;&lt;u&gt;&lt;font face=&quot;Times New Roman&quot;&gt;&lt;b&gt;Level 0 DFD&lt;/b&gt;&lt;/font&gt;&lt;/u&gt;&lt;/h1&gt;" style="text;strokeColor=none;fillColor=none;html=1;align=center;verticalAlign=middle;whiteSpace=wrap;rounded=0;fontSize=16;" parent="1" vertex="1">
          <mxGeometry x="245" y="-170" width="228" height="30" as="geometry" />
        </mxCell>
        <mxCell id="DRK3mvMYITtGqwqKDoyz-19" value="&lt;font style=&quot;font-size: 10px;&quot; face=&quot;Garamond&quot;&gt;Store User Data&lt;/font&gt;" style="text;strokeColor=none;fillColor=none;html=1;align=center;verticalAlign=middle;whiteSpace=wrap;rounded=0;fontSize=16;" parent="1" vertex="1">
          <mxGeometry x="542" y="30" width="74" height="30" as="geometry" />
        </mxCell>
      </root>
    </mxGraphModel>
  </diagram>
  <diagram id="04iIWk_u4OZ_WR9WgsVu" name="Page-6">
    <mxGraphModel dx="1442" dy="663" grid="0" gridSize="10" guides="1" tooltips="1" connect="1" arrows="1" fold="1" page="0" pageScale="1" pageWidth="850" pageHeight="1100" math="0" shadow="0">
      <root>
        <mxCell id="0" />
        <mxCell id="1" parent="0" />
        <mxCell id="RVrAzA3VbpWLXzSr5O4z-2" value="&lt;font face=&quot;Times New Roman&quot;&gt;1.0&lt;/font&gt;" style="swimlane;childLayout=stackLayout;horizontal=1;startSize=24;horizontalStack=0;rounded=1;fontSize=14;fontStyle=0;strokeWidth=2;resizeParent=0;resizeLast=1;shadow=0;dashed=0;align=center;arcSize=4;whiteSpace=wrap;html=1;" parent="1" vertex="1">
          <mxGeometry x="103.5" y="156" width="123" height="62" as="geometry" />
        </mxCell>
        <mxCell id="RVrAzA3VbpWLXzSr5O4z-3" value="&lt;font face=&quot;Times New Roman&quot;&gt;Manage requests&lt;/font&gt;" style="align=left;strokeColor=none;fillColor=none;spacingLeft=4;spacingRight=4;fontSize=12;verticalAlign=top;resizable=0;rotatable=0;part=1;html=1;whiteSpace=wrap;" parent="RVrAzA3VbpWLXzSr5O4z-2" vertex="1">
          <mxGeometry y="24" width="123" height="38" as="geometry" />
        </mxCell>
        <mxCell id="RVrAzA3VbpWLXzSr5O4z-8" value="&lt;font face=&quot;Times New Roman&quot;&gt;Tenant&lt;/font&gt;" style="html=1;dashed=0;whiteSpace=wrap;" parent="1" vertex="1">
          <mxGeometry x="-46" y="154" width="57" height="32" as="geometry" />
        </mxCell>
        <mxCell id="RVrAzA3VbpWLXzSr5O4z-9" value="&lt;div&gt;&lt;font face=&quot;Times New Roman&quot;&gt;DS1&lt;/font&gt;&lt;/div&gt;" style="html=1;dashed=0;whiteSpace=wrap;shape=mxgraph.dfd.dataStoreID;align=left;spacingLeft=3;points=[[0,0],[0.5,0],[1,0],[0,0.5],[1,0.5],[0,1],[0.5,1],[1,1]];" parent="1" vertex="1">
          <mxGeometry x="-204" y="380" width="100" height="30" as="geometry" />
        </mxCell>
        <mxCell id="RVrAzA3VbpWLXzSr5O4z-10" value="&lt;font face=&quot;Times New Roman&quot;&gt;Listings&lt;/font&gt;" style="text;strokeColor=none;fillColor=none;html=1;align=center;verticalAlign=middle;whiteSpace=wrap;rounded=0;fontSize=16;" parent="1" vertex="1">
          <mxGeometry x="-164" y="380" width="60" height="30" as="geometry" />
        </mxCell>
        <mxCell id="RVrAzA3VbpWLXzSr5O4z-11" value="&lt;font face=&quot;Times New Roman&quot;&gt;DS2&lt;/font&gt;" style="html=1;dashed=0;whiteSpace=wrap;shape=mxgraph.dfd.dataStoreID;align=left;spacingLeft=3;points=[[0,0],[0.5,0],[1,0],[0,0.5],[1,0.5],[0,1],[0.5,1],[1,1]];" parent="1" vertex="1">
          <mxGeometry x="415" y="388" width="100" height="30" as="geometry" />
        </mxCell>
        <mxCell id="RVrAzA3VbpWLXzSr5O4z-12" value="&lt;font face=&quot;Times New Roman&quot;&gt;Requests&lt;/font&gt;" style="text;strokeColor=none;fillColor=none;html=1;align=center;verticalAlign=middle;whiteSpace=wrap;rounded=0;fontSize=16;" parent="1" vertex="1">
          <mxGeometry x="449" y="388" width="60" height="30" as="geometry" />
        </mxCell>
        <mxCell id="RVrAzA3VbpWLXzSr5O4z-13" value="&lt;font face=&quot;Times New Roman&quot;&gt;DS3&lt;/font&gt;" style="html=1;dashed=0;whiteSpace=wrap;shape=mxgraph.dfd.dataStoreID;align=left;spacingLeft=3;points=[[0,0],[0.5,0],[1,0],[0,0.5],[1,0.5],[0,1],[0.5,1],[1,1]];" parent="1" vertex="1">
          <mxGeometry x="100" y="619" width="100" height="30" as="geometry" />
        </mxCell>
        <mxCell id="RVrAzA3VbpWLXzSr5O4z-14" value="&lt;font style=&quot;font-size: 15px;&quot; face=&quot;Times New Roman&quot;&gt;Referrals&amp;amp;Reviews&lt;/font&gt;" style="text;strokeColor=none;fillColor=none;html=1;align=center;verticalAlign=middle;whiteSpace=wrap;rounded=0;fontSize=16;" parent="1" vertex="1">
          <mxGeometry x="169" y="619" width="60" height="30" as="geometry" />
        </mxCell>
        <mxCell id="RVrAzA3VbpWLXzSr5O4z-15" value="&lt;font face=&quot;Times New Roman&quot;&gt;2.0&lt;/font&gt;" style="swimlane;childLayout=stackLayout;horizontal=1;startSize=24;horizontalStack=0;rounded=1;fontSize=14;fontStyle=0;strokeWidth=2;resizeParent=0;resizeLast=1;shadow=0;dashed=0;align=center;arcSize=4;whiteSpace=wrap;html=1;" parent="1" vertex="1">
          <mxGeometry x="103" y="270" width="128" height="61" as="geometry" />
        </mxCell>
        <mxCell id="RVrAzA3VbpWLXzSr5O4z-16" value="&lt;font face=&quot;Times New Roman&quot;&gt;Manage listings&lt;/font&gt;" style="align=left;strokeColor=none;fillColor=none;spacingLeft=4;spacingRight=4;fontSize=12;verticalAlign=top;resizable=0;rotatable=0;part=1;html=1;whiteSpace=wrap;" parent="RVrAzA3VbpWLXzSr5O4z-15" vertex="1">
          <mxGeometry y="24" width="128" height="37" as="geometry" />
        </mxCell>
        <mxCell id="RVrAzA3VbpWLXzSr5O4z-18" value="&lt;font face=&quot;Times New Roman&quot;&gt;3.0&lt;/font&gt;" style="swimlane;childLayout=stackLayout;horizontal=1;startSize=23;horizontalStack=0;rounded=1;fontSize=14;fontStyle=0;strokeWidth=2;resizeParent=0;resizeLast=1;shadow=0;dashed=0;align=center;arcSize=4;whiteSpace=wrap;html=1;" parent="1" vertex="1">
          <mxGeometry x="101" y="380" width="132" height="64" as="geometry" />
        </mxCell>
        <mxCell id="RVrAzA3VbpWLXzSr5O4z-19" value="&lt;font face=&quot;Times New Roman&quot;&gt;Verification &amp;amp;Moderation&lt;/font&gt;" style="align=left;strokeColor=none;fillColor=none;spacingLeft=4;spacingRight=4;fontSize=12;verticalAlign=top;resizable=0;rotatable=0;part=1;html=1;whiteSpace=wrap;" parent="RVrAzA3VbpWLXzSr5O4z-18" vertex="1">
          <mxGeometry y="23" width="132" height="41" as="geometry" />
        </mxCell>
        <mxCell id="RVrAzA3VbpWLXzSr5O4z-20" value="&lt;font face=&quot;Times New Roman&quot;&gt;4.0&lt;/font&gt;" style="swimlane;childLayout=stackLayout;horizontal=1;startSize=21;horizontalStack=0;rounded=1;fontSize=14;fontStyle=0;strokeWidth=2;resizeParent=0;resizeLast=1;shadow=0;dashed=0;align=center;arcSize=4;whiteSpace=wrap;html=1;" parent="1" vertex="1">
          <mxGeometry x="100" y="494" width="131" height="64" as="geometry" />
        </mxCell>
        <mxCell id="RVrAzA3VbpWLXzSr5O4z-21" value="&lt;font face=&quot;Times New Roman&quot;&gt;Referrals &amp;amp; Reviews&lt;/font&gt;" style="align=left;strokeColor=none;fillColor=none;spacingLeft=4;spacingRight=4;fontSize=12;verticalAlign=top;resizable=0;rotatable=0;part=1;html=1;whiteSpace=wrap;" parent="RVrAzA3VbpWLXzSr5O4z-20" vertex="1">
          <mxGeometry y="21" width="131" height="43" as="geometry" />
        </mxCell>
        <mxCell id="RVrAzA3VbpWLXzSr5O4z-23" value="&lt;font face=&quot;Times New Roman&quot;&gt;Landlord&lt;/font&gt;" style="html=1;dashed=0;whiteSpace=wrap;" parent="1" vertex="1">
          <mxGeometry x="-188" y="561" width="81" height="37" as="geometry" />
        </mxCell>
        <mxCell id="RVrAzA3VbpWLXzSr5O4z-24" value="&lt;font face=&quot;Times New Roman&quot;&gt;Admin&lt;/font&gt;" style="html=1;dashed=0;whiteSpace=wrap;" parent="1" vertex="1">
          <mxGeometry x="400" y="569" width="73" height="44" as="geometry" />
        </mxCell>
        <mxCell id="RVrAzA3VbpWLXzSr5O4z-25" value="" style="endArrow=classic;html=1;rounded=0;fontSize=12;startSize=8;endSize=8;curved=1;entryX=0;entryY=0;entryDx=0;entryDy=0;exitX=1;exitY=0.75;exitDx=0;exitDy=0;" parent="1" source="RVrAzA3VbpWLXzSr5O4z-8" target="RVrAzA3VbpWLXzSr5O4z-3" edge="1">
          <mxGeometry width="50" height="50" relative="1" as="geometry">
            <mxPoint x="-26" y="238" as="sourcePoint" />
            <mxPoint x="24" y="188" as="targetPoint" />
          </mxGeometry>
        </mxCell>
        <mxCell id="RVrAzA3VbpWLXzSr5O4z-26" value="&lt;font face=&quot;Times New Roman&quot;&gt;tenant raw requests&lt;/font&gt;" style="endArrow=none;html=1;rounded=0;fontSize=12;startSize=8;endSize=8;curved=1;exitX=1;exitY=0;exitDx=0;exitDy=0;" parent="1" source="RVrAzA3VbpWLXzSr5O4z-3" edge="1">
          <mxGeometry width="50" height="50" relative="1" as="geometry">
            <mxPoint x="315" y="235" as="sourcePoint" />
            <mxPoint x="432" y="180" as="targetPoint" />
          </mxGeometry>
        </mxCell>
        <mxCell id="RVrAzA3VbpWLXzSr5O4z-27" value="" style="endArrow=classic;html=1;rounded=0;fontSize=12;startSize=8;endSize=8;curved=1;entryX=0.166;entryY=0.02;entryDx=0;entryDy=0;entryPerimeter=0;" parent="1" target="RVrAzA3VbpWLXzSr5O4z-11" edge="1">
          <mxGeometry width="50" height="50" relative="1" as="geometry">
            <mxPoint x="432" y="180" as="sourcePoint" />
            <mxPoint x="456" y="280" as="targetPoint" />
          </mxGeometry>
        </mxCell>
        <mxCell id="RVrAzA3VbpWLXzSr5O4z-28" value="raw listings" style="endArrow=none;html=1;rounded=0;fontSize=12;startSize=8;endSize=8;curved=1;entryX=0;entryY=0.25;entryDx=0;entryDy=0;" parent="1" target="RVrAzA3VbpWLXzSr5O4z-15" edge="1">
          <mxGeometry width="50" height="50" relative="1" as="geometry">
            <mxPoint x="-52" y="285" as="sourcePoint" />
            <mxPoint x="4" y="260" as="targetPoint" />
          </mxGeometry>
        </mxCell>
        <mxCell id="RVrAzA3VbpWLXzSr5O4z-29" value="" style="endArrow=none;html=1;rounded=0;fontSize=12;startSize=8;endSize=8;curved=1;" parent="1" edge="1">
          <mxGeometry width="50" height="50" relative="1" as="geometry">
            <mxPoint x="-51" y="379" as="sourcePoint" />
            <mxPoint x="-51" y="288" as="targetPoint" />
          </mxGeometry>
        </mxCell>
        <mxCell id="RVrAzA3VbpWLXzSr5O4z-30" value="" style="endArrow=classic;html=1;rounded=0;fontSize=12;startSize=8;endSize=8;curved=1;entryX=1;entryY=0;entryDx=0;entryDy=0;" parent="1" target="RVrAzA3VbpWLXzSr5O4z-10" edge="1">
          <mxGeometry width="50" height="50" relative="1" as="geometry">
            <mxPoint x="-51" y="379" as="sourcePoint" />
            <mxPoint x="-33" y="404" as="targetPoint" />
          </mxGeometry>
        </mxCell>
        <mxCell id="RVrAzA3VbpWLXzSr5O4z-31" value="&lt;div&gt;&lt;font face=&quot;Times New Roman&quot;&gt;approved&lt;/font&gt;&lt;/div&gt;&lt;div&gt;&lt;font face=&quot;Times New Roman&quot;&gt;listings&lt;/font&gt;&lt;/div&gt;" style="endArrow=classic;html=1;rounded=0;fontSize=12;startSize=8;endSize=8;curved=1;entryX=1;entryY=0.5;entryDx=0;entryDy=0;exitX=0;exitY=0.25;exitDx=0;exitDy=0;" parent="1" source="RVrAzA3VbpWLXzSr5O4z-18" target="RVrAzA3VbpWLXzSr5O4z-10" edge="1">
          <mxGeometry x="0.2003" y="-6" width="50" height="50" relative="1" as="geometry">
            <mxPoint x="-25" y="450" as="sourcePoint" />
            <mxPoint x="25" y="400" as="targetPoint" />
            <mxPoint as="offset" />
          </mxGeometry>
        </mxCell>
        <mxCell id="RVrAzA3VbpWLXzSr5O4z-32" value="&lt;div&gt;property&lt;/div&gt;&lt;div&gt;listings&lt;/div&gt;" style="endArrow=none;html=1;rounded=0;fontSize=12;startSize=8;endSize=8;curved=1;exitX=1;exitY=0.5;exitDx=0;exitDy=0;" parent="1" source="RVrAzA3VbpWLXzSr5O4z-23" edge="1">
          <mxGeometry width="50" height="50" relative="1" as="geometry">
            <mxPoint x="-57" y="591" as="sourcePoint" />
            <mxPoint x="5" y="580" as="targetPoint" />
          </mxGeometry>
        </mxCell>
        <mxCell id="RVrAzA3VbpWLXzSr5O4z-33" value="" style="endArrow=none;html=1;rounded=0;fontSize=12;startSize=8;endSize=8;curved=1;" parent="1" edge="1">
          <mxGeometry width="50" height="50" relative="1" as="geometry">
            <mxPoint x="4" y="581" as="sourcePoint" />
            <mxPoint x="4" y="319" as="targetPoint" />
          </mxGeometry>
        </mxCell>
        <mxCell id="RVrAzA3VbpWLXzSr5O4z-34" value="" style="endArrow=classic;html=1;rounded=0;fontSize=12;startSize=8;endSize=8;curved=1;entryX=0;entryY=0.75;entryDx=0;entryDy=0;" parent="1" target="RVrAzA3VbpWLXzSr5O4z-15" edge="1">
          <mxGeometry width="50" height="50" relative="1" as="geometry">
            <mxPoint x="4" y="319" as="sourcePoint" />
            <mxPoint x="64" y="316" as="targetPoint" />
          </mxGeometry>
        </mxCell>
        <mxCell id="RVrAzA3VbpWLXzSr5O4z-36" value="&lt;font face=&quot;Times New Roman&quot;&gt;approved reqs&lt;/font&gt;" style="endArrow=classic;html=1;rounded=0;fontSize=12;startSize=8;endSize=8;curved=1;entryX=0;entryY=0.5;entryDx=0;entryDy=0;exitX=1;exitY=0;exitDx=0;exitDy=0;" parent="1" source="RVrAzA3VbpWLXzSr5O4z-19" target="RVrAzA3VbpWLXzSr5O4z-11" edge="1">
          <mxGeometry width="50" height="50" relative="1" as="geometry">
            <mxPoint x="355" y="418" as="sourcePoint" />
            <mxPoint x="405" y="368" as="targetPoint" />
          </mxGeometry>
        </mxCell>
        <mxCell id="RVrAzA3VbpWLXzSr5O4z-37" value="" style="endArrow=classic;html=1;rounded=0;fontSize=12;startSize=8;endSize=8;curved=1;exitX=0.212;exitY=0;exitDx=0;exitDy=0;exitPerimeter=0;" parent="1" source="RVrAzA3VbpWLXzSr5O4z-13" edge="1">
          <mxGeometry width="50" height="50" relative="1" as="geometry">
            <mxPoint x="86" y="629" as="sourcePoint" />
            <mxPoint x="121" y="559" as="targetPoint" />
          </mxGeometry>
        </mxCell>
        <mxCell id="RVrAzA3VbpWLXzSr5O4z-38" value="" style="endArrow=classic;html=1;rounded=0;fontSize=12;startSize=8;endSize=8;curved=1;entryX=0.652;entryY=-0.027;entryDx=0;entryDy=0;entryPerimeter=0;exitX=0.5;exitY=1;exitDx=0;exitDy=0;" parent="1" source="RVrAzA3VbpWLXzSr5O4z-21" target="RVrAzA3VbpWLXzSr5O4z-13" edge="1">
          <mxGeometry width="50" height="50" relative="1" as="geometry">
            <mxPoint x="143" y="619" as="sourcePoint" />
            <mxPoint x="193" y="569" as="targetPoint" />
          </mxGeometry>
        </mxCell>
        <mxCell id="RVrAzA3VbpWLXzSr5O4z-39" value="&lt;font face=&quot;Times New Roman&quot;&gt;raw requests&lt;/font&gt;" style="endArrow=classic;html=1;rounded=0;fontSize=12;startSize=8;endSize=8;curved=1;exitX=0;exitY=1;exitDx=0;exitDy=0;" parent="1" source="RVrAzA3VbpWLXzSr5O4z-11" edge="1">
          <mxGeometry width="50" height="50" relative="1" as="geometry">
            <mxPoint x="299" y="482" as="sourcePoint" />
            <mxPoint x="236" y="418" as="targetPoint" />
          </mxGeometry>
        </mxCell>
        <mxCell id="RVrAzA3VbpWLXzSr5O4z-40" value="&lt;font face=&quot;Times New Roman&quot;&gt;raw listings&lt;/font&gt;" style="endArrow=classic;html=1;rounded=0;fontSize=12;startSize=8;endSize=8;curved=1;entryX=0;entryY=0.25;entryDx=0;entryDy=0;exitX=1;exitY=1;exitDx=0;exitDy=0;" parent="1" source="RVrAzA3VbpWLXzSr5O4z-10" target="RVrAzA3VbpWLXzSr5O4z-19" edge="1">
          <mxGeometry x="0.4835" y="-4" width="50" height="50" relative="1" as="geometry">
            <mxPoint x="-107" y="472" as="sourcePoint" />
            <mxPoint x="-57" y="422" as="targetPoint" />
            <mxPoint as="offset" />
          </mxGeometry>
        </mxCell>
        <mxCell id="RVrAzA3VbpWLXzSr5O4z-42" value="" style="endArrow=none;html=1;rounded=0;fontSize=12;startSize=8;endSize=8;curved=1;entryX=0;entryY=0.5;entryDx=0;entryDy=0;" parent="1" target="RVrAzA3VbpWLXzSr5O4z-24" edge="1">
          <mxGeometry width="50" height="50" relative="1" as="geometry">
            <mxPoint x="325" y="593" as="sourcePoint" />
            <mxPoint x="365" y="577" as="targetPoint" />
          </mxGeometry>
        </mxCell>
        <mxCell id="RVrAzA3VbpWLXzSr5O4z-43" value="" style="endArrow=none;html=1;rounded=0;fontSize=12;startSize=8;endSize=8;curved=1;" parent="1" edge="1">
          <mxGeometry width="50" height="50" relative="1" as="geometry">
            <mxPoint x="325" y="595" as="sourcePoint" />
            <mxPoint x="325" y="444" as="targetPoint" />
          </mxGeometry>
        </mxCell>
        <mxCell id="RVrAzA3VbpWLXzSr5O4z-44" value="" style="endArrow=classic;html=1;rounded=0;fontSize=12;startSize=8;endSize=8;curved=1;" parent="1" edge="1">
          <mxGeometry width="50" height="50" relative="1" as="geometry">
            <mxPoint x="326" y="443" as="sourcePoint" />
            <mxPoint x="235" y="439" as="targetPoint" />
          </mxGeometry>
        </mxCell>
        <mxCell id="RVrAzA3VbpWLXzSr5O4z-45" value="" style="endArrow=classic;html=1;rounded=0;fontSize=12;startSize=8;endSize=8;curved=1;entryX=1;entryY=0.25;entryDx=0;entryDy=0;" parent="1" target="RVrAzA3VbpWLXzSr5O4z-21" edge="1">
          <mxGeometry width="50" height="50" relative="1" as="geometry">
            <mxPoint x="323" y="526" as="sourcePoint" />
            <mxPoint x="311" y="524" as="targetPoint" />
          </mxGeometry>
        </mxCell>
        <mxCell id="RVrAzA3VbpWLXzSr5O4z-46" value="&lt;font face=&quot;Times New Roman&quot;&gt;referrals&amp;amp;reviews&lt;/font&gt;" style="endArrow=none;html=1;rounded=0;fontSize=12;startSize=8;endSize=8;curved=1;entryX=0.5;entryY=1;entryDx=0;entryDy=0;" parent="1" target="RVrAzA3VbpWLXzSr5O4z-8" edge="1">
          <mxGeometry x="0.6269" width="50" height="50" relative="1" as="geometry">
            <mxPoint x="-17" y="513" as="sourcePoint" />
            <mxPoint x="24" y="211" as="targetPoint" />
            <mxPoint as="offset" />
          </mxGeometry>
        </mxCell>
        <mxCell id="RVrAzA3VbpWLXzSr5O4z-47" value="" style="endArrow=classic;html=1;rounded=0;fontSize=12;startSize=8;endSize=8;curved=1;entryX=0;entryY=0.25;entryDx=0;entryDy=0;" parent="1" target="RVrAzA3VbpWLXzSr5O4z-20" edge="1">
          <mxGeometry width="50" height="50" relative="1" as="geometry">
            <mxPoint x="-17" y="512" as="sourcePoint" />
            <mxPoint x="73" y="486" as="targetPoint" />
          </mxGeometry>
        </mxCell>
        <mxCell id="RVrAzA3VbpWLXzSr5O4z-48" value="&lt;h1&gt;&lt;u&gt;&lt;font style=&quot;font-size: 25px;&quot; face=&quot;Times New Roman&quot;&gt;Level 1 DFD&lt;/font&gt;&lt;/u&gt;&lt;/h1&gt;" style="text;strokeColor=none;fillColor=none;html=1;align=center;verticalAlign=middle;whiteSpace=wrap;rounded=0;fontSize=16;" parent="1" vertex="1">
          <mxGeometry x="78" y="80" width="186" height="30" as="geometry" />
        </mxCell>
      </root>
    </mxGraphModel>
  </diagram>
  <diagram id="L_cycx1nerCiunHvIoeM" name="Page-7">
    <mxGraphModel dx="1442" dy="1063" grid="0" gridSize="10" guides="1" tooltips="1" connect="1" arrows="1" fold="1" page="0" pageScale="1" pageWidth="850" pageHeight="1100" math="0" shadow="0">
      <root>
        <mxCell id="0" />
        <mxCell id="1" parent="0" />
        <mxCell id="1RcIlxyCIUTL_GrIezrg-1" value="&lt;font face=&quot;Times New Roman&quot;&gt;1.1&lt;/font&gt;" style="swimlane;childLayout=stackLayout;horizontal=1;startSize=24;horizontalStack=0;rounded=1;fontSize=14;fontStyle=0;strokeWidth=2;resizeParent=0;resizeLast=1;shadow=0;dashed=0;align=center;arcSize=4;whiteSpace=wrap;html=1;" parent="1" vertex="1">
          <mxGeometry x="100" y="29" width="128" height="61" as="geometry" />
        </mxCell>
        <mxCell id="1RcIlxyCIUTL_GrIezrg-2" value="&lt;font face=&quot;Times New Roman&quot;&gt;Validate request&lt;/font&gt;" style="align=left;strokeColor=none;fillColor=none;spacingLeft=4;spacingRight=4;fontSize=12;verticalAlign=top;resizable=0;rotatable=0;part=1;html=1;whiteSpace=wrap;" parent="1RcIlxyCIUTL_GrIezrg-1" vertex="1">
          <mxGeometry y="24" width="128" height="37" as="geometry" />
        </mxCell>
        <mxCell id="f1lV0R8t8NgRan-0_1Tb-1" value="&lt;font face=&quot;Times New Roman&quot;&gt;1.2&lt;/font&gt;" style="swimlane;childLayout=stackLayout;horizontal=1;startSize=24;horizontalStack=0;rounded=1;fontSize=14;fontStyle=0;strokeWidth=2;resizeParent=0;resizeLast=1;shadow=0;dashed=0;align=center;arcSize=4;whiteSpace=wrap;html=1;" parent="1" vertex="1">
          <mxGeometry x="100" y="111" width="128" height="61" as="geometry" />
        </mxCell>
        <mxCell id="f1lV0R8t8NgRan-0_1Tb-2" value="&lt;font face=&quot;Times New Roman&quot;&gt;Store request&lt;/font&gt;" style="align=left;strokeColor=none;fillColor=none;spacingLeft=4;spacingRight=4;fontSize=12;verticalAlign=top;resizable=0;rotatable=0;part=1;html=1;whiteSpace=wrap;" parent="f1lV0R8t8NgRan-0_1Tb-1" vertex="1">
          <mxGeometry y="24" width="128" height="37" as="geometry" />
        </mxCell>
        <mxCell id="f1lV0R8t8NgRan-0_1Tb-4" value="&lt;font face=&quot;Times New Roman&quot;&gt;1.3&lt;/font&gt;" style="swimlane;childLayout=stackLayout;horizontal=1;startSize=24;horizontalStack=0;rounded=1;fontSize=14;fontStyle=0;strokeWidth=2;resizeParent=0;resizeLast=1;shadow=0;dashed=0;align=center;arcSize=4;whiteSpace=wrap;html=1;" parent="1" vertex="1">
          <mxGeometry x="98" y="212" width="128" height="61" as="geometry" />
        </mxCell>
        <mxCell id="f1lV0R8t8NgRan-0_1Tb-5" value="&lt;font face=&quot;Times New Roman&quot;&gt;Retrieve listings&lt;/font&gt;" style="align=left;strokeColor=none;fillColor=none;spacingLeft=4;spacingRight=4;fontSize=12;verticalAlign=top;resizable=0;rotatable=0;part=1;html=1;whiteSpace=wrap;" parent="f1lV0R8t8NgRan-0_1Tb-4" vertex="1">
          <mxGeometry y="24" width="128" height="37" as="geometry" />
        </mxCell>
        <mxCell id="f1lV0R8t8NgRan-0_1Tb-6" value="&lt;font face=&quot;Times New Roman&quot;&gt;1.4&lt;/font&gt;" style="swimlane;childLayout=stackLayout;horizontal=1;startSize=24;horizontalStack=0;rounded=1;fontSize=14;fontStyle=0;strokeWidth=2;resizeParent=0;resizeLast=1;shadow=0;dashed=0;align=center;arcSize=4;whiteSpace=wrap;html=1;" parent="1" vertex="1">
          <mxGeometry x="103" y="313" width="128" height="61" as="geometry" />
        </mxCell>
        <mxCell id="f1lV0R8t8NgRan-0_1Tb-7" value="&lt;font face=&quot;Times New Roman&quot;&gt;match requests to listings&lt;/font&gt;" style="align=left;strokeColor=none;fillColor=none;spacingLeft=4;spacingRight=4;fontSize=12;verticalAlign=top;resizable=0;rotatable=0;part=1;html=1;whiteSpace=wrap;" parent="f1lV0R8t8NgRan-0_1Tb-6" vertex="1">
          <mxGeometry y="24" width="128" height="37" as="geometry" />
        </mxCell>
        <mxCell id="f1lV0R8t8NgRan-0_1Tb-8" value="&lt;font face=&quot;Times New Roman&quot;&gt;1.5&lt;/font&gt;" style="swimlane;childLayout=stackLayout;horizontal=1;startSize=24;horizontalStack=0;rounded=1;fontSize=14;fontStyle=0;strokeWidth=2;resizeParent=0;resizeLast=1;shadow=0;dashed=0;align=center;arcSize=4;whiteSpace=wrap;html=1;" parent="1" vertex="1">
          <mxGeometry x="100" y="404" width="128" height="61" as="geometry">
            <mxRectangle x="100" y="404" width="54" height="29" as="alternateBounds" />
          </mxGeometry>
        </mxCell>
        <mxCell id="f1lV0R8t8NgRan-0_1Tb-9" value="&lt;font face=&quot;Times New Roman&quot;&gt;Return results&lt;/font&gt;" style="align=left;strokeColor=none;fillColor=none;spacingLeft=4;spacingRight=4;fontSize=12;verticalAlign=top;resizable=0;rotatable=0;part=1;html=1;whiteSpace=wrap;" parent="f1lV0R8t8NgRan-0_1Tb-8" vertex="1">
          <mxGeometry y="24" width="128" height="37" as="geometry" />
        </mxCell>
        <mxCell id="f1lV0R8t8NgRan-0_1Tb-10" value="&lt;font face=&quot;Times New Roman&quot;&gt;1.7&lt;/font&gt;" style="swimlane;childLayout=stackLayout;horizontal=1;startSize=24;horizontalStack=0;rounded=1;fontSize=14;fontStyle=0;strokeWidth=2;resizeParent=0;resizeLast=1;shadow=0;dashed=0;align=center;arcSize=4;whiteSpace=wrap;html=1;" parent="1" vertex="1">
          <mxGeometry x="305" y="412" width="128" height="61" as="geometry" />
        </mxCell>
        <mxCell id="f1lV0R8t8NgRan-0_1Tb-11" value="&lt;font face=&quot;Times New Roman&quot;&gt;Update request status&lt;/font&gt;" style="align=left;strokeColor=none;fillColor=none;spacingLeft=4;spacingRight=4;fontSize=12;verticalAlign=top;resizable=0;rotatable=0;part=1;html=1;whiteSpace=wrap;" parent="f1lV0R8t8NgRan-0_1Tb-10" vertex="1">
          <mxGeometry y="24" width="128" height="37" as="geometry" />
        </mxCell>
        <mxCell id="DTYUl0Cr2zBTYcZAjqxS-3" value="&lt;font face=&quot;Times New Roman&quot;&gt;Update request status&lt;/font&gt;" style="align=left;strokeColor=none;fillColor=none;spacingLeft=4;spacingRight=4;fontSize=12;verticalAlign=top;resizable=0;rotatable=0;part=1;html=1;whiteSpace=wrap;" vertex="1" parent="f1lV0R8t8NgRan-0_1Tb-10">
          <mxGeometry y="61" width="128" as="geometry" />
        </mxCell>
        <mxCell id="f1lV0R8t8NgRan-0_1Tb-12" value="&lt;font face=&quot;Times New Roman&quot;&gt;DS4&lt;/font&gt;" style="html=1;dashed=0;whiteSpace=wrap;shape=mxgraph.dfd.dataStoreID;align=left;spacingLeft=3;points=[[0,0],[0.5,0],[1,0],[0,0.5],[1,0.5],[0,1],[0.5,1],[1,1]];" parent="1" vertex="1">
          <mxGeometry x="-101" y="66" width="100" height="30" as="geometry" />
        </mxCell>
        <mxCell id="f1lV0R8t8NgRan-0_1Tb-13" value="&lt;font face=&quot;Times New Roman&quot;&gt;DS1&lt;/font&gt;" style="html=1;dashed=0;whiteSpace=wrap;shape=mxgraph.dfd.dataStoreID;align=left;spacingLeft=3;points=[[0,0],[0.5,0],[1,0],[0,0.5],[1,0.5],[0,1],[0.5,1],[1,1]];" parent="1" vertex="1">
          <mxGeometry x="-101" y="243" width="100" height="30" as="geometry" />
        </mxCell>
        <mxCell id="f1lV0R8t8NgRan-0_1Tb-14" value="&lt;font face=&quot;Times New Roman&quot;&gt;DS2&lt;/font&gt;" style="html=1;dashed=0;whiteSpace=wrap;shape=mxgraph.dfd.dataStoreID;align=left;spacingLeft=3;points=[[0,0],[0.5,0],[1,0],[0,0.5],[1,0.5],[0,1],[0.5,1],[1,1]];" parent="1" vertex="1">
          <mxGeometry x="326" y="137" width="100" height="30" as="geometry" />
        </mxCell>
        <mxCell id="f1lV0R8t8NgRan-0_1Tb-15" value="&lt;font face=&quot;Times New Roman&quot;&gt;Users&lt;/font&gt;" style="text;strokeColor=none;fillColor=none;html=1;align=center;verticalAlign=middle;whiteSpace=wrap;rounded=0;fontSize=16;" parent="1" vertex="1">
          <mxGeometry x="-65" y="66" width="60" height="30" as="geometry" />
        </mxCell>
        <mxCell id="f1lV0R8t8NgRan-0_1Tb-16" value="&lt;font face=&quot;Times New Roman&quot;&gt;Listings&lt;/font&gt;" style="text;strokeColor=none;fillColor=none;html=1;align=center;verticalAlign=middle;whiteSpace=wrap;rounded=0;fontSize=16;" parent="1" vertex="1">
          <mxGeometry x="-65" y="243" width="60" height="30" as="geometry" />
        </mxCell>
        <mxCell id="f1lV0R8t8NgRan-0_1Tb-17" value="&lt;font face=&quot;Times New Roman&quot;&gt;Requests&lt;/font&gt;" style="text;strokeColor=none;fillColor=none;html=1;align=center;verticalAlign=middle;whiteSpace=wrap;rounded=0;fontSize=16;" parent="1" vertex="1">
          <mxGeometry x="356" y="137" width="60" height="30" as="geometry" />
        </mxCell>
        <mxCell id="f1lV0R8t8NgRan-0_1Tb-18" value="" style="endArrow=classic;html=1;rounded=0;fontSize=12;startSize=8;endSize=8;curved=1;entryX=0.25;entryY=0;entryDx=0;entryDy=0;" parent="1" target="1RcIlxyCIUTL_GrIezrg-1" edge="1">
          <mxGeometry width="50" height="50" relative="1" as="geometry">
            <mxPoint x="132" y="-6" as="sourcePoint" />
            <mxPoint x="15" y="-34" as="targetPoint" />
          </mxGeometry>
        </mxCell>
        <mxCell id="f1lV0R8t8NgRan-0_1Tb-19" value="" style="endArrow=none;html=1;rounded=0;fontSize=12;startSize=8;endSize=8;curved=1;" parent="1" edge="1">
          <mxGeometry width="50" height="50" relative="1" as="geometry">
            <mxPoint x="19" y="-4" as="sourcePoint" />
            <mxPoint x="133" y="-4" as="targetPoint" />
          </mxGeometry>
        </mxCell>
        <mxCell id="f1lV0R8t8NgRan-0_1Tb-21" value="&lt;div&gt;&lt;font face=&quot;Times New Roman&quot;&gt;user&lt;/font&gt;&lt;/div&gt;&lt;div&gt;&lt;font face=&quot;Times New Roman&quot;&gt;login info&lt;/font&gt;&lt;/div&gt;" style="endArrow=classic;html=1;rounded=0;fontSize=12;startSize=8;endSize=8;curved=1;entryX=0;entryY=0.75;entryDx=0;entryDy=0;" parent="1" target="1RcIlxyCIUTL_GrIezrg-1" edge="1">
          <mxGeometry width="50" height="50" relative="1" as="geometry">
            <mxPoint x="-5" y="78" as="sourcePoint" />
            <mxPoint x="67" y="47" as="targetPoint" />
          </mxGeometry>
        </mxCell>
        <mxCell id="f1lV0R8t8NgRan-0_1Tb-22" value="&lt;div&gt;&lt;font face=&quot;Times New Roman&quot;&gt;tenant&lt;/font&gt;&lt;/div&gt;&lt;div&gt;&lt;font face=&quot;Times New Roman&quot;&gt;request&lt;/font&gt;&lt;/div&gt;" style="endArrow=classic;html=1;rounded=0;fontSize=12;startSize=8;endSize=8;curved=1;exitX=1;exitY=0.25;exitDx=0;exitDy=0;entryX=0.016;entryY=0.253;entryDx=0;entryDy=0;entryPerimeter=0;" parent="1" source="f1lV0R8t8NgRan-0_1Tb-2" target="f1lV0R8t8NgRan-0_1Tb-14" edge="1">
          <mxGeometry width="50" height="50" relative="1" as="geometry">
            <mxPoint x="241" y="174" as="sourcePoint" />
            <mxPoint x="291" y="124" as="targetPoint" />
          </mxGeometry>
        </mxCell>
        <mxCell id="f1lV0R8t8NgRan-0_1Tb-23" value="" style="endArrow=classic;html=1;rounded=0;fontSize=12;startSize=8;endSize=8;curved=1;entryX=0.5;entryY=0;entryDx=0;entryDy=0;exitX=0.556;exitY=0.946;exitDx=0;exitDy=0;exitPerimeter=0;" parent="1" source="f1lV0R8t8NgRan-0_1Tb-5" target="f1lV0R8t8NgRan-0_1Tb-6" edge="1">
          <mxGeometry width="50" height="50" relative="1" as="geometry">
            <mxPoint x="98" y="319" as="sourcePoint" />
            <mxPoint x="148" y="269" as="targetPoint" />
          </mxGeometry>
        </mxCell>
        <mxCell id="f1lV0R8t8NgRan-0_1Tb-24" value="&lt;div&gt;&lt;font face=&quot;Times New Roman&quot;&gt;tenant&lt;/font&gt;&lt;/div&gt;&lt;div&gt;&lt;font face=&quot;Times New Roman&quot;&gt;requests&lt;/font&gt;&lt;/div&gt;" style="endArrow=none;html=1;rounded=0;fontSize=12;startSize=8;endSize=8;curved=1;entryX=0.11;entryY=1;entryDx=0;entryDy=0;entryPerimeter=0;" parent="1" target="f1lV0R8t8NgRan-0_1Tb-14" edge="1">
          <mxGeometry width="50" height="50" relative="1" as="geometry">
            <mxPoint x="337" y="323" as="sourcePoint" />
            <mxPoint x="349" y="218" as="targetPoint" />
          </mxGeometry>
        </mxCell>
        <mxCell id="f1lV0R8t8NgRan-0_1Tb-25" value="" style="endArrow=classic;html=1;rounded=0;fontSize=12;startSize=8;endSize=8;curved=1;entryX=0.998;entryY=0.138;entryDx=0;entryDy=0;entryPerimeter=0;" parent="1" target="f1lV0R8t8NgRan-0_1Tb-6" edge="1">
          <mxGeometry width="50" height="50" relative="1" as="geometry">
            <mxPoint x="336" y="321" as="sourcePoint" />
            <mxPoint x="341" y="272" as="targetPoint" />
          </mxGeometry>
        </mxCell>
        <mxCell id="f1lV0R8t8NgRan-0_1Tb-27" value="&lt;div&gt;&lt;font face=&quot;Times New Roman&quot;&gt;updated&lt;/font&gt;&lt;/div&gt;&lt;div&gt;&lt;font face=&quot;Times New Roman&quot;&gt;requests&lt;/font&gt;&lt;/div&gt;&lt;div&gt;&lt;font face=&quot;Times New Roman&quot;&gt;status&lt;/font&gt;&lt;/div&gt;" style="endArrow=classic;html=1;rounded=0;fontSize=12;startSize=8;endSize=8;curved=1;entryX=0.5;entryY=1;entryDx=0;entryDy=0;exitX=0.664;exitY=-0.003;exitDx=0;exitDy=0;exitPerimeter=0;" parent="1" source="f1lV0R8t8NgRan-0_1Tb-10" target="f1lV0R8t8NgRan-0_1Tb-17" edge="1">
          <mxGeometry width="50" height="50" relative="1" as="geometry">
            <mxPoint x="417" y="314" as="sourcePoint" />
            <mxPoint x="467" y="264" as="targetPoint" />
          </mxGeometry>
        </mxCell>
        <mxCell id="f1lV0R8t8NgRan-0_1Tb-28" value="" style="endArrow=classic;html=1;rounded=0;fontSize=12;startSize=8;endSize=8;curved=1;exitX=1;exitY=0.5;exitDx=0;exitDy=0;entryX=0;entryY=0;entryDx=0;entryDy=0;" parent="1" source="f1lV0R8t8NgRan-0_1Tb-8" target="f1lV0R8t8NgRan-0_1Tb-11" edge="1">
          <mxGeometry width="50" height="50" relative="1" as="geometry">
            <mxPoint x="246" y="482" as="sourcePoint" />
            <mxPoint x="296" y="432" as="targetPoint" />
          </mxGeometry>
        </mxCell>
        <mxCell id="f1lV0R8t8NgRan-0_1Tb-29" value="&lt;div&gt;&lt;font face=&quot;Times New Roman&quot;&gt;approved&lt;/font&gt;&lt;/div&gt;&lt;div&gt;&lt;font face=&quot;Times New Roman&quot;&gt;listings&lt;/font&gt;&lt;/div&gt;" style="endArrow=classic;html=1;rounded=0;fontSize=12;startSize=8;endSize=8;curved=1;exitX=1;exitY=0.25;exitDx=0;exitDy=0;" parent="1" source="f1lV0R8t8NgRan-0_1Tb-16" edge="1">
          <mxGeometry width="50" height="50" relative="1" as="geometry">
            <mxPoint x="26" y="281" as="sourcePoint" />
            <mxPoint x="93" y="251" as="targetPoint" />
          </mxGeometry>
        </mxCell>
        <mxCell id="f1lV0R8t8NgRan-0_1Tb-30" value="" style="endArrow=classic;html=1;rounded=0;fontSize=12;startSize=8;endSize=8;curved=1;entryX=0.5;entryY=0;entryDx=0;entryDy=0;exitX=0.5;exitY=1;exitDx=0;exitDy=0;" parent="1" source="f1lV0R8t8NgRan-0_1Tb-7" target="f1lV0R8t8NgRan-0_1Tb-8" edge="1">
          <mxGeometry width="50" height="50" relative="1" as="geometry">
            <mxPoint x="15" y="428" as="sourcePoint" />
            <mxPoint x="65" y="378" as="targetPoint" />
          </mxGeometry>
        </mxCell>
        <mxCell id="f1lV0R8t8NgRan-0_1Tb-31" value="&lt;font face=&quot;Times New Roman&quot;&gt;1.6&lt;/font&gt;" style="swimlane;childLayout=stackLayout;horizontal=1;startSize=24;horizontalStack=0;rounded=1;fontSize=14;fontStyle=0;strokeWidth=2;resizeParent=0;resizeLast=1;shadow=0;dashed=0;align=center;arcSize=4;whiteSpace=wrap;html=1;" parent="1" vertex="1">
          <mxGeometry x="96" y="487" width="128" height="61" as="geometry" />
        </mxCell>
        <mxCell id="f1lV0R8t8NgRan-0_1Tb-32" value="&lt;font face=&quot;Times New Roman&quot;&gt;Notify landlord/tenant&lt;/font&gt;" style="align=left;strokeColor=none;fillColor=none;spacingLeft=4;spacingRight=4;fontSize=12;verticalAlign=top;resizable=0;rotatable=0;part=1;html=1;whiteSpace=wrap;" parent="f1lV0R8t8NgRan-0_1Tb-31" vertex="1">
          <mxGeometry y="24" width="128" height="37" as="geometry" />
        </mxCell>
        <mxCell id="f1lV0R8t8NgRan-0_1Tb-33" value="" style="endArrow=classic;html=1;rounded=0;fontSize=12;startSize=8;endSize=8;curved=1;entryX=0.438;entryY=-0.016;entryDx=0;entryDy=0;entryPerimeter=0;exitX=0.416;exitY=0.989;exitDx=0;exitDy=0;exitPerimeter=0;" parent="1" source="f1lV0R8t8NgRan-0_1Tb-9" target="f1lV0R8t8NgRan-0_1Tb-31" edge="1">
          <mxGeometry width="50" height="50" relative="1" as="geometry">
            <mxPoint x="83" y="509" as="sourcePoint" />
            <mxPoint x="133" y="459" as="targetPoint" />
          </mxGeometry>
        </mxCell>
        <mxCell id="f1lV0R8t8NgRan-0_1Tb-34" value="&lt;h1&gt;&lt;u&gt;&lt;font face=&quot;Times New Roman&quot;&gt;Level 2 DFD&lt;/font&gt;&lt;/u&gt;&lt;/h1&gt;" style="text;strokeColor=none;fillColor=none;html=1;align=center;verticalAlign=middle;whiteSpace=wrap;rounded=0;fontSize=16;" parent="1" vertex="1">
          <mxGeometry x="103" y="-82" width="203" height="30" as="geometry" />
        </mxCell>
      </root>
    </mxGraphModel>
  </diagram>
  <diagram id="Vk8tBYX1trbNyY3dSeRE" name="Page-8">
    <mxGraphModel dx="1442" dy="1063" grid="0" gridSize="10" guides="1" tooltips="1" connect="1" arrows="1" fold="1" page="0" pageScale="1" pageWidth="850" pageHeight="1100" math="0" shadow="0">
      <root>
        <mxCell id="0" />
        <mxCell id="1" parent="0" />
        <UserObject label="" plantUmlData="{&#xa;  &quot;data&quot;: &quot;@startuml\ntitle NyumbaNow - Class Diagram\n\n&#39; Base User Class\nclass User {\n  - user_id\n  - name\n  - email\n  - password\n  - phone_number\n  - role\n  - verification_status\n  + register()\n  + login()\n  + updateProfile()\n  + verifyUser()\n}\n\n&#39; Tenant class\nclass Tenant {\n  - preferences\n  + createRequest()\n  + browseListings()\n  + submitReferral()\n  + writeReview()\n}\n\n&#39; Landlord class\nclass Landlord {\n  - agency_name\n  - properties_owned\n  + postListing()\n  + respondToRequest()\n  + viewReferrals()\n}\n\n&#39; Administrator class\nclass Administrator {\n  - admin_level\n  + verifyListing()\n  + manageUsers()\n  + flagContent()\n}\n\n&#39; Listing class\nclass Listing {\n  - listing_id\n  - title\n  - description\n  - location\n  - rent_amount\n  - house_type\n  - availability_status\n  - date_posted\n  + addListing()\n  + updateListing()\n  + removeListing()\n  + markUnavailable()\n}\n\n&#39; Request class\nclass Request {\n  - request_id\n  - tenant_id\n  - preferred_location\n  - budget\n  - house_type\n  - status\n  - date_created\n  + createRequest()\n  + matchWithListing()\n  + closeRequest()\n}\n\n&#39; Referral class\nclass Referral {\n  - referral_id\n  - tenant_id\n  - referred_agent_name\n  - contact_details\n  - notes\n  + addReferral()\n  + getReferrals()\n}\n\n&#39; Review class\nclass Review {\n  - review_id\n  - tenant_id\n  - landlord_id\n  - rating\n  - comments\n  - date_posted\n  + addReview()\n  + getReviews()\n}\n\n&#39; AdminAction class\nclass AdminAction {\n  - action_id\n  - admin_id\n  - action_type\n  - target_user_id\n  - target_listing_id\n  - date_performed\n  + performAction()\n  + logAction()\n}\n\n&#39; Inheritance\nTenant --|&gt; User\nLandlord --|&gt; User\nAdministrator --|&gt; User\n\n&#39; Associations\nTenant \&quot;1\&quot; --&gt; \&quot;many\&quot; Request : creates\nTenant \&quot;1\&quot; --&gt; \&quot;many\&quot; Referral : submits\nTenant \&quot;1\&quot; --&gt; \&quot;many\&quot; Review : writes\nLandlord \&quot;1\&quot; --&gt; \&quot;many\&quot; Listing : owns\nRequest --&gt; Listing : matches\nAdministrator --&gt; AdminAction : performs\nAdministrator --&gt; Listing : verifies\nAdministrator --&gt; User : manages\n\n@enduml\n&quot;,&#xa;  &quot;format&quot;: &quot;svg&quot;&#xa;}" id="Qtg141VqstgDhlSu0qyg-1">
          <mxCell style="shape=image;noLabel=1;verticalAlign=top;aspect=fixed;imageAspect=0;image=data:image/svg+xml,PHN2ZyB4bWxucz0iaHR0cDovL3d3dy53My5vcmcvMjAwMC9zdmciIHhtbG5zOnhsaW5rPSJodHRwOi8vd3d3LnczLm9yZy8xOTk5L3hsaW5rIiBjb250ZW50U3R5bGVUeXBlPSJ0ZXh0L2NzcyIgZGF0YS1kaWFncmFtLXR5cGU9IkNMQVNTIiBoZWlnaHQ9Ijc0OHB4IiBwcmVzZXJ2ZUFzcGVjdFJhdGlvPSJub25lIiBzdHlsZT0id2lkdGg6MTA5OHB4O2hlaWdodDo3NDhweDtiYWNrZ3JvdW5kOiNGRkZGRkY7IiB2ZXJzaW9uPSIxLjEiIHZpZXdCb3g9IjAgMCAxMDk4IDc0OCIgd2lkdGg9IjEwOThweCIgem9vbUFuZFBhbj0ibWFnbmlmeSI+PHRpdGxlPk55dW1iYU5vdyAtIENsYXNzIERpYWdyYW08L3RpdGxlPjxkZWZzLz48Zz48dGV4dCBmaWxsPSIjMDAwMDAwIiBmb250LWZhbWlseT0ic2Fucy1zZXJpZiIgZm9udC1zaXplPSIxNCIgZm9udC13ZWlnaHQ9ImJvbGQiIGxlbmd0aEFkanVzdD0ic3BhY2luZyIgdGV4dExlbmd0aD0iMTc1IiB4PSI0NTQuNzUiIHk9IjIzLjIzNDQiPk55dW1iYU5vdyAtIENsYXNzIERpYWdyYW08L3RleHQ+PCEtLWNsYXNzIFVzZXItLT48ZyBjbGFzcz0iZW50aXR5IiBkYXRhLWVudGl0eT0iVXNlciIgZGF0YS1zb3VyY2UtbGluZT0iNCIgZGF0YS11aWQ9ImVudDAwMDIiIGlkPSJlbnRpdHlfVXNlciI+PHJlY3QgZmlsbD0iI0YxRjFGMSIgaGVpZ2h0PSIyMTIuODI4MSIgcng9IjIuNSIgcnk9IjIuNSIgc3R5bGU9InN0cm9rZTojMTgxODE4O3N0cm9rZS13aWR0aDowLjU7IiB3aWR0aD0iMTU5IiB4PSI3MDYuNSIgeT0iNTIxLjQ4NDQiLz48ZWxsaXBzZSBjeD0iNzY3Ljc1IiBjeT0iNTM3LjQ4NDQiIGZpbGw9IiNBREQxQjIiIHJ4PSIxMSIgcnk9IjExIiBzdHlsZT0ic3Ryb2tlOiMxODE4MTg7c3Ryb2tlLXdpZHRoOjE7Ii8+PHBhdGggZD0iTTc2NS4zNzUsNTQxLjczNDQgTDc2NS4zNzUsNTQzLjQ4NDQgTDc3MC4zMTI1LDU0My40ODQ0IEw3NzAuMzEyNSw1NDEuNzM0NCBMNzY1LjM3NSw1NDEuNzM0NCBaIE03NjYuMDYyNSw1NDIuNDIxOSBRNzY2LjA2MjUsNTQyLjQyMTkgNzY2LjA2MjUsNTMzLjIzNDQgTDc2NC4zMTI1LDUzMy4yMzQ0IFE3NjQuMzEyNSw1MzMuMjM0NCA3NjQuMzEyNSw1NDIuNDIxOSBMNzY2LjA2MjUsNTQyLjQyMTkgWiBNNzY5LjYyNSw1NDIuNDIxOSBMNzcxLjM3NSw1NDIuNDIxOSBRNzcxLjM3NSw1NDIuNDIxOSA3NzEuMzc1LDUzOS42MDk0IEw3NjkuNjI1LDUzOS42MDk0IFE3NjkuNjI1LDUzOS42MDk0IDc2OS42MjUsNTQyLjQyMTkgWiBNNzY5LjYyNSw1MzMuMjM0NCBRNzY5LjYyNSw1MzMuMjM0NCA3NjkuNjI1LDUzNi4wNDY5IEw3NzEuMzc1LDUzNi4wNDY5IFE3NzEuMzc1LDUzNi4wNDY5IDc3MS4zNzUsNTMzLjIzNDQgTDc2OS42MjUsNTMzLjIzNDQgWiBNNzY1LjM3NSw1MzMuOTIxOSBMNzcwLjMxMjUsNTMzLjkyMTkgTDc3MC4zMTI1LDUzMi4xNzE5IEw3NjUuMzc1LDUzMi4xNzE5IEw3NjUuMzc1LDUzMy45MjE5IFogIiBmaWxsPSIjMDAwMDAwIi8+PHRleHQgZmlsbD0iIzAwMDAwMCIgZm9udC1mYW1pbHk9InNhbnMtc2VyaWYiIGZvbnQtc2l6ZT0iMTQiIGxlbmd0aEFkanVzdD0ic3BhY2luZyIgdGV4dExlbmd0aD0iMjgiIHg9Ijc4OC4yNSIgeT0iNTQzLjIyNjYiPlVzZXI8L3RleHQ+PGxpbmUgc3R5bGU9InN0cm9rZTojMTgxODE4O3N0cm9rZS13aWR0aDowLjU7IiB4MT0iNzA3LjUiIHgyPSI4NjQuNSIgeTE9IjU1My40ODQ0IiB5Mj0iNTUzLjQ4NDQiLz48cmVjdCBmaWxsPSJub25lIiBoZWlnaHQ9IjYiIHN0eWxlPSJzdHJva2U6I0M4MjkzMDtzdHJva2Utd2lkdGg6MTsiIHdpZHRoPSI2IiB4PSI3MTQuNSIgeT0iNTYzLjQ3NjYiLz48dGV4dCBmaWxsPSIjMDAwMDAwIiBmb250LWZhbWlseT0ic2Fucy1zZXJpZiIgZm9udC1zaXplPSIxNCIgbGVuZ3RoQWRqdXN0PSJzcGFjaW5nIiB0ZXh0TGVuZ3RoPSI0OSIgeD0iNzI2LjUiIHk9IjU3MC43MTg4Ij51c2VyX2lkPC90ZXh0PjxyZWN0IGZpbGw9Im5vbmUiIGhlaWdodD0iNiIgc3R5bGU9InN0cm9rZTojQzgyOTMwO3N0cm9rZS13aWR0aDoxOyIgd2lkdGg9IjYiIHg9IjcxNC41IiB5PSI1NzguNDYwOSIvPjx0ZXh0IGZpbGw9IiMwMDAwMDAiIGZvbnQtZmFtaWx5PSJzYW5zLXNlcmlmIiBmb250LXNpemU9IjE0IiBsZW5ndGhBZGp1c3Q9InNwYWNpbmciIHRleHRMZW5ndGg9IjI4IiB4PSI3MjYuNSIgeT0iNTg1LjcwMzEiPm5hbWU8L3RleHQ+PHJlY3QgZmlsbD0ibm9uZSIgaGVpZ2h0PSI2IiBzdHlsZT0ic3Ryb2tlOiNDODI5MzA7c3Ryb2tlLXdpZHRoOjE7IiB3aWR0aD0iNiIgeD0iNzE0LjUiIHk9IjU5My40NDUzIi8+PHRleHQgZmlsbD0iIzAwMDAwMCIgZm9udC1mYW1pbHk9InNhbnMtc2VyaWYiIGZvbnQtc2l6ZT0iMTQiIGxlbmd0aEFkanVzdD0ic3BhY2luZyIgdGV4dExlbmd0aD0iMzUiIHg9IjcyNi41IiB5PSI2MDAuNjg3NSI+ZW1haWw8L3RleHQ+PHJlY3QgZmlsbD0ibm9uZSIgaGVpZ2h0PSI2IiBzdHlsZT0ic3Ryb2tlOiNDODI5MzA7c3Ryb2tlLXdpZHRoOjE7IiB3aWR0aD0iNiIgeD0iNzE0LjUiIHk9IjYwOC40Mjk3Ii8+PHRleHQgZmlsbD0iIzAwMDAwMCIgZm9udC1mYW1pbHk9InNhbnMtc2VyaWYiIGZvbnQtc2l6ZT0iMTQiIGxlbmd0aEFkanVzdD0ic3BhY2luZyIgdGV4dExlbmd0aD0iNTYiIHg9IjcyNi41IiB5PSI2MTUuNjcxOSI+cGFzc3dvcmQ8L3RleHQ+PHJlY3QgZmlsbD0ibm9uZSIgaGVpZ2h0PSI2IiBzdHlsZT0ic3Ryb2tlOiNDODI5MzA7c3Ryb2tlLXdpZHRoOjE7IiB3aWR0aD0iNiIgeD0iNzE0LjUiIHk9IjYyMy40MTQxIi8+PHRleHQgZmlsbD0iIzAwMDAwMCIgZm9udC1mYW1pbHk9InNhbnMtc2VyaWYiIGZvbnQtc2l6ZT0iMTQiIGxlbmd0aEFkanVzdD0ic3BhY2luZyIgdGV4dExlbmd0aD0iODQiIHg9IjcyNi41IiB5PSI2MzAuNjU2MyI+cGhvbmVfbnVtYmVyPC90ZXh0PjxyZWN0IGZpbGw9Im5vbmUiIGhlaWdodD0iNiIgc3R5bGU9InN0cm9rZTojQzgyOTMwO3N0cm9rZS13aWR0aDoxOyIgd2lkdGg9IjYiIHg9IjcxNC41IiB5PSI2MzguMzk4NCIvPjx0ZXh0IGZpbGw9IiMwMDAwMDAiIGZvbnQtZmFtaWx5PSJzYW5zLXNlcmlmIiBmb250LXNpemU9IjE0IiBsZW5ndGhBZGp1c3Q9InNwYWNpbmciIHRleHRMZW5ndGg9IjI4IiB4PSI3MjYuNSIgeT0iNjQ1LjY0MDYiPnJvbGU8L3RleHQ+PHJlY3QgZmlsbD0ibm9uZSIgaGVpZ2h0PSI2IiBzdHlsZT0ic3Ryb2tlOiNDODI5MzA7c3Ryb2tlLXdpZHRoOjE7IiB3aWR0aD0iNiIgeD0iNzE0LjUiIHk9IjY1My4zODI4Ii8+PHRleHQgZmlsbD0iIzAwMDAwMCIgZm9udC1mYW1pbHk9InNhbnMtc2VyaWYiIGZvbnQtc2l6ZT0iMTQiIGxlbmd0aEFkanVzdD0ic3BhY2luZyIgdGV4dExlbmd0aD0iMTMzIiB4PSI3MjYuNSIgeT0iNjYwLjYyNSI+dmVyaWZpY2F0aW9uX3N0YXR1czwvdGV4dD48bGluZSBzdHlsZT0ic3Ryb2tlOiMxODE4MTg7c3Ryb2tlLXdpZHRoOjAuNTsiIHgxPSI3MDcuNSIgeDI9Ijg2NC41IiB5MT0iNjY2LjM3NSIgeTI9IjY2Ni4zNzUiLz48ZWxsaXBzZSBjeD0iNzE3LjUiIGN5PSI2NzkuMzY3MiIgZmlsbD0iIzg0QkU4NCIgcng9IjMiIHJ5PSIzIiBzdHlsZT0ic3Ryb2tlOiMwMzgwNDg7c3Ryb2tlLXdpZHRoOjE7Ii8+PHRleHQgZmlsbD0iIzAwMDAwMCIgZm9udC1mYW1pbHk9InNhbnMtc2VyaWYiIGZvbnQtc2l6ZT0iMTQiIGxlbmd0aEFkanVzdD0ic3BhY2luZyIgdGV4dExlbmd0aD0iNzAiIHg9IjcyNi41IiB5PSI2ODMuNjA5NCI+cmVnaXN0ZXIoKTwvdGV4dD48ZWxsaXBzZSBjeD0iNzE3LjUiIGN5PSI2OTQuMzUxNiIgZmlsbD0iIzg0QkU4NCIgcng9IjMiIHJ5PSIzIiBzdHlsZT0ic3Ryb2tlOiMwMzgwNDg7c3Ryb2tlLXdpZHRoOjE7Ii8+PHRleHQgZmlsbD0iIzAwMDAwMCIgZm9udC1mYW1pbHk9InNhbnMtc2VyaWYiIGZvbnQtc2l6ZT0iMTQiIGxlbmd0aEFkanVzdD0ic3BhY2luZyIgdGV4dExlbmd0aD0iNDkiIHg9IjcyNi41IiB5PSI2OTguNTkzOCI+bG9naW4oKTwvdGV4dD48ZWxsaXBzZSBjeD0iNzE3LjUiIGN5PSI3MDkuMzM1OSIgZmlsbD0iIzg0QkU4NCIgcng9IjMiIHJ5PSIzIiBzdHlsZT0ic3Ryb2tlOiMwMzgwNDg7c3Ryb2tlLXdpZHRoOjE7Ii8+PHRleHQgZmlsbD0iIzAwMDAwMCIgZm9udC1mYW1pbHk9InNhbnMtc2VyaWYiIGZvbnQtc2l6ZT0iMTQiIGxlbmd0aEFkanVzdD0ic3BhY2luZyIgdGV4dExlbmd0aD0iMTA1IiB4PSI3MjYuNSIgeT0iNzEzLjU3ODEiPnVwZGF0ZVByb2ZpbGUoKTwvdGV4dD48ZWxsaXBzZSBjeD0iNzE3LjUiIGN5PSI3MjQuMzIwMyIgZmlsbD0iIzg0QkU4NCIgcng9IjMiIHJ5PSIzIiBzdHlsZT0ic3Ryb2tlOiMwMzgwNDg7c3Ryb2tlLXdpZHRoOjE7Ii8+PHRleHQgZmlsbD0iIzAwMDAwMCIgZm9udC1mYW1pbHk9InNhbnMtc2VyaWYiIGZvbnQtc2l6ZT0iMTQiIGxlbmd0aEFkanVzdD0ic3BhY2luZyIgdGV4dExlbmd0aD0iODQiIHg9IjcyNi41IiB5PSI3MjguNTYyNSI+dmVyaWZ5VXNlcigpPC90ZXh0PjwvZz48IS0tY2xhc3MgVGVuYW50LS0+PGcgY2xhc3M9ImVudGl0eSIgZGF0YS1lbnRpdHk9IlRlbmFudCIgZGF0YS1zb3VyY2UtbGluZT0iMTkiIGRhdGEtdWlkPSJlbnQwMDAzIiBpZD0iZW50aXR5X1RlbmFudCI+PHJlY3QgZmlsbD0iI0YxRjFGMSIgaGVpZ2h0PSIxMjIuOTIxOSIgcng9IjIuNSIgcnk9IjIuNSIgc3R5bGU9InN0cm9rZTojMTgxODE4O3N0cm9rZS13aWR0aDowLjU7IiB3aWR0aD0iMTM4IiB4PSI0NzciIHk9IjQyLjk4NDQiLz48ZWxsaXBzZSBjeD0iNTIwLjgiIGN5PSI1OC45ODQ0IiBmaWxsPSIjQUREMUIyIiByeD0iMTEiIHJ5PSIxMSIgc3R5bGU9InN0cm9rZTojMTgxODE4O3N0cm9rZS13aWR0aDoxOyIvPjxwYXRoIGQ9Ik01MTguNDI1LDYzLjIzNDQgTDUxOC40MjUsNjQuOTg0NCBMNTIzLjM2MjUsNjQuOTg0NCBMNTIzLjM2MjUsNjMuMjM0NCBMNTE4LjQyNSw2My4yMzQ0IFogTTUxOS4xMTI1LDYzLjkyMTkgUTUxOS4xMTI1LDYzLjkyMTkgNTE5LjExMjUsNTQuNzM0NCBMNTE3LjM2MjUsNTQuNzM0NCBRNTE3LjM2MjUsNTQuNzM0NCA1MTcuMzYyNSw2My45MjE5IEw1MTkuMTEyNSw2My45MjE5IFogTTUyMi42NzUsNjMuOTIxOSBMNTI0LjQyNSw2My45MjE5IFE1MjQuNDI1LDYzLjkyMTkgNTI0LjQyNSw2MS4xMDk0IEw1MjIuNjc1LDYxLjEwOTQgUTUyMi42NzUsNjEuMTA5NCA1MjIuNjc1LDYzLjkyMTkgWiBNNTIyLjY3NSw1NC43MzQ0IFE1MjIuNjc1LDU0LjczNDQgNTIyLjY3NSw1Ny41NDY5IEw1MjQuNDI1LDU3LjU0NjkgUTUyNC40MjUsNTcuNTQ2OSA1MjQuNDI1LDU0LjczNDQgTDUyMi42NzUsNTQuNzM0NCBaIE01MTguNDI1LDU1LjQyMTkgTDUyMy4zNjI1LDU1LjQyMTkgTDUyMy4zNjI1LDUzLjY3MTkgTDUxOC40MjUsNTMuNjcxOSBMNTE4LjQyNSw1NS40MjE5IFogIiBmaWxsPSIjMDAwMDAwIi8+PHRleHQgZmlsbD0iIzAwMDAwMCIgZm9udC1mYW1pbHk9InNhbnMtc2VyaWYiIGZvbnQtc2l6ZT0iMTQiIGxlbmd0aEFkanVzdD0ic3BhY2luZyIgdGV4dExlbmd0aD0iNDIiIHg9IjU0MS4yIiB5PSI2NC43MjY2Ij5UZW5hbnQ8L3RleHQ+PGxpbmUgc3R5bGU9InN0cm9rZTojMTgxODE4O3N0cm9rZS13aWR0aDowLjU7IiB4MT0iNDc4IiB4Mj0iNjE0IiB5MT0iNzQuOTg0NCIgeTI9Ijc0Ljk4NDQiLz48cmVjdCBmaWxsPSJub25lIiBoZWlnaHQ9IjYiIHN0eWxlPSJzdHJva2U6I0M4MjkzMDtzdHJva2Utd2lkdGg6MTsiIHdpZHRoPSI2IiB4PSI0ODUiIHk9Ijg0Ljk3NjYiLz48dGV4dCBmaWxsPSIjMDAwMDAwIiBmb250LWZhbWlseT0ic2Fucy1zZXJpZiIgZm9udC1zaXplPSIxNCIgbGVuZ3RoQWRqdXN0PSJzcGFjaW5nIiB0ZXh0TGVuZ3RoPSI3NyIgeD0iNDk3IiB5PSI5Mi4yMTg4Ij5wcmVmZXJlbmNlczwvdGV4dD48bGluZSBzdHlsZT0ic3Ryb2tlOiMxODE4MTg7c3Ryb2tlLXdpZHRoOjAuNTsiIHgxPSI0NzgiIHgyPSI2MTQiIHkxPSI5Ny45Njg4IiB5Mj0iOTcuOTY4OCIvPjxlbGxpcHNlIGN4PSI0ODgiIGN5PSIxMTAuOTYwOSIgZmlsbD0iIzg0QkU4NCIgcng9IjMiIHJ5PSIzIiBzdHlsZT0ic3Ryb2tlOiMwMzgwNDg7c3Ryb2tlLXdpZHRoOjE7Ii8+PHRleHQgZmlsbD0iIzAwMDAwMCIgZm9udC1mYW1pbHk9InNhbnMtc2VyaWYiIGZvbnQtc2l6ZT0iMTQiIGxlbmd0aEFkanVzdD0ic3BhY2luZyIgdGV4dExlbmd0aD0iMTA1IiB4PSI0OTciIHk9IjExNS4yMDMxIj5jcmVhdGVSZXF1ZXN0KCk8L3RleHQ+PGVsbGlwc2UgY3g9IjQ4OCIgY3k9IjEyNS45NDUzIiBmaWxsPSIjODRCRTg0IiByeD0iMyIgcnk9IjMiIHN0eWxlPSJzdHJva2U6IzAzODA0ODtzdHJva2Utd2lkdGg6MTsiLz48dGV4dCBmaWxsPSIjMDAwMDAwIiBmb250LWZhbWlseT0ic2Fucy1zZXJpZiIgZm9udC1zaXplPSIxNCIgbGVuZ3RoQWRqdXN0PSJzcGFjaW5nIiB0ZXh0TGVuZ3RoPSIxMTIiIHg9IjQ5NyIgeT0iMTMwLjE4NzUiPmJyb3dzZUxpc3RpbmdzKCk8L3RleHQ+PGVsbGlwc2UgY3g9IjQ4OCIgY3k9IjE0MC45Mjk3IiBmaWxsPSIjODRCRTg0IiByeD0iMyIgcnk9IjMiIHN0eWxlPSJzdHJva2U6IzAzODA0ODtzdHJva2Utd2lkdGg6MTsiLz48dGV4dCBmaWxsPSIjMDAwMDAwIiBmb250LWZhbWlseT0ic2Fucy1zZXJpZiIgZm9udC1zaXplPSIxNCIgbGVuZ3RoQWRqdXN0PSJzcGFjaW5nIiB0ZXh0TGVuZ3RoPSIxMTIiIHg9IjQ5NyIgeT0iMTQ1LjE3MTkiPnN1Ym1pdFJlZmVycmFsKCk8L3RleHQ+PGVsbGlwc2UgY3g9IjQ4OCIgY3k9IjE1NS45MTQxIiBmaWxsPSIjODRCRTg0IiByeD0iMyIgcnk9IjMiIHN0eWxlPSJzdHJva2U6IzAzODA0ODtzdHJva2Utd2lkdGg6MTsiLz48dGV4dCBmaWxsPSIjMDAwMDAwIiBmb250LWZhbWlseT0ic2Fucy1zZXJpZiIgZm9udC1zaXplPSIxNCIgbGVuZ3RoQWRqdXN0PSJzcGFjaW5nIiB0ZXh0TGVuZ3RoPSI5MSIgeD0iNDk3IiB5PSIxNjAuMTU2MyI+d3JpdGVSZXZpZXcoKTwvdGV4dD48L2c+PCEtLWNsYXNzIExhbmRsb3JkLS0+PGcgY2xhc3M9ImVudGl0eSIgZGF0YS1lbnRpdHk9IkxhbmRsb3JkIiBkYXRhLXNvdXJjZS1saW5lPSIyOCIgZGF0YS11aWQ9ImVudDAwMDQiIGlkPSJlbnRpdHlfTGFuZGxvcmQiPjxyZWN0IGZpbGw9IiNGMUYxRjEiIGhlaWdodD0iMTIyLjkyMTkiIHJ4PSIyLjUiIHJ5PSIyLjUiIHN0eWxlPSJzdHJva2U6IzE4MTgxODtzdHJva2Utd2lkdGg6MC41OyIgd2lkdGg9IjE1MiIgeD0iMTk0IiB5PSIyNzguNDg0NCIvPjxlbGxpcHNlIGN4PSIyMzcuOCIgY3k9IjI5NC40ODQ0IiBmaWxsPSIjQUREMUIyIiByeD0iMTEiIHJ5PSIxMSIgc3R5bGU9InN0cm9rZTojMTgxODE4O3N0cm9rZS13aWR0aDoxOyIvPjxwYXRoIGQ9Ik0yMzUuNDI1LDI5OC43MzQ0IEwyMzUuNDI1LDMwMC40ODQ0IEwyNDAuMzYyNSwzMDAuNDg0NCBMMjQwLjM2MjUsMjk4LjczNDQgTDIzNS40MjUsMjk4LjczNDQgWiBNMjM2LjExMjUsMjk5LjQyMTkgUTIzNi4xMTI1LDI5OS40MjE5IDIzNi4xMTI1LDI5MC4yMzQ0IEwyMzQuMzYyNSwyOTAuMjM0NCBRMjM0LjM2MjUsMjkwLjIzNDQgMjM0LjM2MjUsMjk5LjQyMTkgTDIzNi4xMTI1LDI5OS40MjE5IFogTTIzOS42NzUsMjk5LjQyMTkgTDI0MS40MjUsMjk5LjQyMTkgUTI0MS40MjUsMjk5LjQyMTkgMjQxLjQyNSwyOTYuNjA5NCBMMjM5LjY3NSwyOTYuNjA5NCBRMjM5LjY3NSwyOTYuNjA5NCAyMzkuNjc1LDI5OS40MjE5IFogTTIzOS42NzUsMjkwLjIzNDQgUTIzOS42NzUsMjkwLjIzNDQgMjM5LjY3NSwyOTMuMDQ2OSBMMjQxLjQyNSwyOTMuMDQ2OSBRMjQxLjQyNSwyOTMuMDQ2OSAyNDEuNDI1LDI5MC4yMzQ0IEwyMzkuNjc1LDI5MC4yMzQ0IFogTTIzNS40MjUsMjkwLjkyMTkgTDI0MC4zNjI1LDI5MC45MjE5IEwyNDAuMzYyNSwyODkuMTcxOSBMMjM1LjQyNSwyODkuMTcxOSBMMjM1LjQyNSwyOTAuOTIxOSBaICIgZmlsbD0iIzAwMDAwMCIvPjx0ZXh0IGZpbGw9IiMwMDAwMDAiIGZvbnQtZmFtaWx5PSJzYW5zLXNlcmlmIiBmb250LXNpemU9IjE0IiBsZW5ndGhBZGp1c3Q9InNwYWNpbmciIHRleHRMZW5ndGg9IjU2IiB4PSIyNTguMiIgeT0iMzAwLjIyNjYiPkxhbmRsb3JkPC90ZXh0PjxsaW5lIHN0eWxlPSJzdHJva2U6IzE4MTgxODtzdHJva2Utd2lkdGg6MC41OyIgeDE9IjE5NSIgeDI9IjM0NSIgeTE9IjMxMC40ODQ0IiB5Mj0iMzEwLjQ4NDQiLz48cmVjdCBmaWxsPSJub25lIiBoZWlnaHQ9IjYiIHN0eWxlPSJzdHJva2U6I0M4MjkzMDtzdHJva2Utd2lkdGg6MTsiIHdpZHRoPSI2IiB4PSIyMDIiIHk9IjMyMC40NzY2Ii8+PHRleHQgZmlsbD0iIzAwMDAwMCIgZm9udC1mYW1pbHk9InNhbnMtc2VyaWYiIGZvbnQtc2l6ZT0iMTQiIGxlbmd0aEFkanVzdD0ic3BhY2luZyIgdGV4dExlbmd0aD0iNzciIHg9IjIxNCIgeT0iMzI3LjcxODgiPmFnZW5jeV9uYW1lPC90ZXh0PjxyZWN0IGZpbGw9Im5vbmUiIGhlaWdodD0iNiIgc3R5bGU9InN0cm9rZTojQzgyOTMwO3N0cm9rZS13aWR0aDoxOyIgd2lkdGg9IjYiIHg9IjIwMiIgeT0iMzM1LjQ2MDkiLz48dGV4dCBmaWxsPSIjMDAwMDAwIiBmb250LWZhbWlseT0ic2Fucy1zZXJpZiIgZm9udC1zaXplPSIxNCIgbGVuZ3RoQWRqdXN0PSJzcGFjaW5nIiB0ZXh0TGVuZ3RoPSIxMTIiIHg9IjIxNCIgeT0iMzQyLjcwMzEiPnByb3BlcnRpZXNfb3duZWQ8L3RleHQ+PGxpbmUgc3R5bGU9InN0cm9rZTojMTgxODE4O3N0cm9rZS13aWR0aDowLjU7IiB4MT0iMTk1IiB4Mj0iMzQ1IiB5MT0iMzQ4LjQ1MzEiIHkyPSIzNDguNDUzMSIvPjxlbGxpcHNlIGN4PSIyMDUiIGN5PSIzNjEuNDQ1MyIgZmlsbD0iIzg0QkU4NCIgcng9IjMiIHJ5PSIzIiBzdHlsZT0ic3Ryb2tlOiMwMzgwNDg7c3Ryb2tlLXdpZHRoOjE7Ii8+PHRleHQgZmlsbD0iIzAwMDAwMCIgZm9udC1mYW1pbHk9InNhbnMtc2VyaWYiIGZvbnQtc2l6ZT0iMTQiIGxlbmd0aEFkanVzdD0ic3BhY2luZyIgdGV4dExlbmd0aD0iOTEiIHg9IjIxNCIgeT0iMzY1LjY4NzUiPnBvc3RMaXN0aW5nKCk8L3RleHQ+PGVsbGlwc2UgY3g9IjIwNSIgY3k9IjM3Ni40Mjk3IiBmaWxsPSIjODRCRTg0IiByeD0iMyIgcnk9IjMiIHN0eWxlPSJzdHJva2U6IzAzODA0ODtzdHJva2Utd2lkdGg6MTsiLz48dGV4dCBmaWxsPSIjMDAwMDAwIiBmb250LWZhbWlseT0ic2Fucy1zZXJpZiIgZm9udC1zaXplPSIxNCIgbGVuZ3RoQWRqdXN0PSJzcGFjaW5nIiB0ZXh0TGVuZ3RoPSIxMjYiIHg9IjIxNCIgeT0iMzgwLjY3MTkiPnJlc3BvbmRUb1JlcXVlc3QoKTwvdGV4dD48ZWxsaXBzZSBjeD0iMjA1IiBjeT0iMzkxLjQxNDEiIGZpbGw9IiM4NEJFODQiIHJ4PSIzIiByeT0iMyIgc3R5bGU9InN0cm9rZTojMDM4MDQ4O3N0cm9rZS13aWR0aDoxOyIvPjx0ZXh0IGZpbGw9IiMwMDAwMDAiIGZvbnQtZmFtaWx5PSJzYW5zLXNlcmlmIiBmb250LXNpemU9IjE0IiBsZW5ndGhBZGp1c3Q9InNwYWNpbmciIHRleHRMZW5ndGg9IjEwNSIgeD0iMjE0IiB5PSIzOTUuNjU2MyI+dmlld1JlZmVycmFscygpPC90ZXh0PjwvZz48IS0tY2xhc3MgQWRtaW5pc3RyYXRvci0tPjxnIGNsYXNzPSJlbnRpdHkiIGRhdGEtZW50aXR5PSJBZG1pbmlzdHJhdG9yIiBkYXRhLXNvdXJjZS1saW5lPSIzNyIgZGF0YS11aWQ9ImVudDAwMDUiIGlkPSJlbnRpdHlfQWRtaW5pc3RyYXRvciI+PHJlY3QgZmlsbD0iI0YxRjFGMSIgaGVpZ2h0PSIxMDcuOTM3NSIgcng9IjIuNSIgcnk9IjIuNSIgc3R5bGU9InN0cm9rZTojMTgxODE4O3N0cm9rZS13aWR0aDowLjU7IiB3aWR0aD0iMTMxIiB4PSI4MzcuNSIgeT0iMjg1Ljk4NDQiLz48ZWxsaXBzZSBjeD0iODU2LjEiIGN5PSIzMDEuOTg0NCIgZmlsbD0iI0FERDFCMiIgcng9IjExIiByeT0iMTEiIHN0eWxlPSJzdHJva2U6IzE4MTgxODtzdHJva2Utd2lkdGg6MTsiLz48cGF0aCBkPSJNODUzLjcyNSwzMDYuMjM0NCBMODUzLjcyNSwzMDcuOTg0NCBMODU4LjY2MjUsMzA3Ljk4NDQgTDg1OC42NjI1LDMwNi4yMzQ0IEw4NTMuNzI1LDMwNi4yMzQ0IFogTTg1NC40MTI1LDMwNi45MjE5IFE4NTQuNDEyNSwzMDYuOTIxOSA4NTQuNDEyNSwyOTcuNzM0NCBMODUyLjY2MjUsMjk3LjczNDQgUTg1Mi42NjI1LDI5Ny43MzQ0IDg1Mi42NjI1LDMwNi45MjE5IEw4NTQuNDEyNSwzMDYuOTIxOSBaIE04NTcuOTc1LDMwNi45MjE5IEw4NTkuNzI1LDMwNi45MjE5IFE4NTkuNzI1LDMwNi45MjE5IDg1OS43MjUsMzA0LjEwOTQgTDg1Ny45NzUsMzA0LjEwOTQgUTg1Ny45NzUsMzA0LjEwOTQgODU3Ljk3NSwzMDYuOTIxOSBaIE04NTcuOTc1LDI5Ny43MzQ0IFE4NTcuOTc1LDI5Ny43MzQ0IDg1Ny45NzUsMzAwLjU0NjkgTDg1OS43MjUsMzAwLjU0NjkgUTg1OS43MjUsMzAwLjU0NjkgODU5LjcyNSwyOTcuNzM0NCBMODU3Ljk3NSwyOTcuNzM0NCBaIE04NTMuNzI1LDI5OC40MjE5IEw4NTguNjYyNSwyOTguNDIxOSBMODU4LjY2MjUsMjk2LjY3MTkgTDg1My43MjUsMjk2LjY3MTkgTDg1My43MjUsMjk4LjQyMTkgWiAiIGZpbGw9IiMwMDAwMDAiLz48dGV4dCBmaWxsPSIjMDAwMDAwIiBmb250LWZhbWlseT0ic2Fucy1zZXJpZiIgZm9udC1zaXplPSIxNCIgbGVuZ3RoQWRqdXN0PSJzcGFjaW5nIiB0ZXh0TGVuZ3RoPSI5MSIgeD0iODcwLjkiIHk9IjMwNy43MjY2Ij5BZG1pbmlzdHJhdG9yPC90ZXh0PjxsaW5lIHN0eWxlPSJzdHJva2U6IzE4MTgxODtzdHJva2Utd2lkdGg6MC41OyIgeDE9IjgzOC41IiB4Mj0iOTY3LjUiIHkxPSIzMTcuOTg0NCIgeTI9IjMxNy45ODQ0Ii8+PHJlY3QgZmlsbD0ibm9uZSIgaGVpZ2h0PSI2IiBzdHlsZT0ic3Ryb2tlOiNDODI5MzA7c3Ryb2tlLXdpZHRoOjE7IiB3aWR0aD0iNiIgeD0iODQ1LjUiIHk9IjMyNy45NzY2Ii8+PHRleHQgZmlsbD0iIzAwMDAwMCIgZm9udC1mYW1pbHk9InNhbnMtc2VyaWYiIGZvbnQtc2l6ZT0iMTQiIGxlbmd0aEFkanVzdD0ic3BhY2luZyIgdGV4dExlbmd0aD0iNzciIHg9Ijg1Ny41IiB5PSIzMzUuMjE4OCI+YWRtaW5fbGV2ZWw8L3RleHQ+PGxpbmUgc3R5bGU9InN0cm9rZTojMTgxODE4O3N0cm9rZS13aWR0aDowLjU7IiB4MT0iODM4LjUiIHgyPSI5NjcuNSIgeTE9IjM0MC45Njg4IiB5Mj0iMzQwLjk2ODgiLz48ZWxsaXBzZSBjeD0iODQ4LjUiIGN5PSIzNTMuOTYwOSIgZmlsbD0iIzg0QkU4NCIgcng9IjMiIHJ5PSIzIiBzdHlsZT0ic3Ryb2tlOiMwMzgwNDg7c3Ryb2tlLXdpZHRoOjE7Ii8+PHRleHQgZmlsbD0iIzAwMDAwMCIgZm9udC1mYW1pbHk9InNhbnMtc2VyaWYiIGZvbnQtc2l6ZT0iMTQiIGxlbmd0aEFkanVzdD0ic3BhY2luZyIgdGV4dExlbmd0aD0iMTA1IiB4PSI4NTcuNSIgeT0iMzU4LjIwMzEiPnZlcmlmeUxpc3RpbmcoKTwvdGV4dD48ZWxsaXBzZSBjeD0iODQ4LjUiIGN5PSIzNjguOTQ1MyIgZmlsbD0iIzg0QkU4NCIgcng9IjMiIHJ5PSIzIiBzdHlsZT0ic3Ryb2tlOiMwMzgwNDg7c3Ryb2tlLXdpZHRoOjE7Ii8+PHRleHQgZmlsbD0iIzAwMDAwMCIgZm9udC1mYW1pbHk9InNhbnMtc2VyaWYiIGZvbnQtc2l6ZT0iMTQiIGxlbmd0aEFkanVzdD0ic3BhY2luZyIgdGV4dExlbmd0aD0iOTEiIHg9Ijg1Ny41IiB5PSIzNzMuMTg3NSI+bWFuYWdlVXNlcnMoKTwvdGV4dD48ZWxsaXBzZSBjeD0iODQ4LjUiIGN5PSIzODMuOTI5NyIgZmlsbD0iIzg0QkU4NCIgcng9IjMiIHJ5PSIzIiBzdHlsZT0ic3Ryb2tlOiMwMzgwNDg7c3Ryb2tlLXdpZHRoOjE7Ii8+PHRleHQgZmlsbD0iIzAwMDAwMCIgZm9udC1mYW1pbHk9InNhbnMtc2VyaWYiIGZvbnQtc2l6ZT0iMTQiIGxlbmd0aEFkanVzdD0ic3BhY2luZyIgdGV4dExlbmd0aD0iOTEiIHg9Ijg1Ny41IiB5PSIzODguMTcxOSI+ZmxhZ0NvbnRlbnQoKTwvdGV4dD48L2c+PCEtLWNsYXNzIExpc3RpbmctLT48ZyBjbGFzcz0iZW50aXR5IiBkYXRhLWVudGl0eT0iTGlzdGluZyIgZGF0YS1zb3VyY2UtbGluZT0iNDUiIGRhdGEtdWlkPSJlbnQwMDA2IiBpZD0iZW50aXR5X0xpc3RpbmciPjxyZWN0IGZpbGw9IiNGMUYxRjEiIGhlaWdodD0iMjI3LjgxMjUiIHJ4PSIyLjUiIHJ5PSIyLjUiIHN0eWxlPSJzdHJva2U6IzE4MTgxODtzdHJva2Utd2lkdGg6MC41OyIgd2lkdGg9IjE1OSIgeD0iMTkwLjUiIHk9IjUxMy45ODQ0Ii8+PGVsbGlwc2UgY3g9IjI0MS4yNSIgY3k9IjUyOS45ODQ0IiBmaWxsPSIjQUREMUIyIiByeD0iMTEiIHJ5PSIxMSIgc3R5bGU9InN0cm9rZTojMTgxODE4O3N0cm9rZS13aWR0aDoxOyIvPjxwYXRoIGQ9Ik0yMzguODc1LDUzNC4yMzQ0IEwyMzguODc1LDUzNS45ODQ0IEwyNDMuODEyNSw1MzUuOTg0NCBMMjQzLjgxMjUsNTM0LjIzNDQgTDIzOC44NzUsNTM0LjIzNDQgWiBNMjM5LjU2MjUsNTM0LjkyMTkgUTIzOS41NjI1LDUzNC45MjE5IDIzOS41NjI1LDUyNS43MzQ0IEwyMzcuODEyNSw1MjUuNzM0NCBRMjM3LjgxMjUsNTI1LjczNDQgMjM3LjgxMjUsNTM0LjkyMTkgTDIzOS41NjI1LDUzNC45MjE5IFogTTI0My4xMjUsNTM0LjkyMTkgTDI0NC44NzUsNTM0LjkyMTkgUTI0NC44NzUsNTM0LjkyMTkgMjQ0Ljg3NSw1MzIuMTA5NCBMMjQzLjEyNSw1MzIuMTA5NCBRMjQzLjEyNSw1MzIuMTA5NCAyNDMuMTI1LDUzNC45MjE5IFogTTI0My4xMjUsNTI1LjczNDQgUTI0My4xMjUsNTI1LjczNDQgMjQzLjEyNSw1MjguNTQ2OSBMMjQ0Ljg3NSw1MjguNTQ2OSBRMjQ0Ljg3NSw1MjguNTQ2OSAyNDQuODc1LDUyNS43MzQ0IEwyNDMuMTI1LDUyNS43MzQ0IFogTTIzOC44NzUsNTI2LjQyMTkgTDI0My44MTI1LDUyNi40MjE5IEwyNDMuODEyNSw1MjQuNjcxOSBMMjM4Ljg3NSw1MjQuNjcxOSBMMjM4Ljg3NSw1MjYuNDIxOSBaICIgZmlsbD0iIzAwMDAwMCIvPjx0ZXh0IGZpbGw9IiMwMDAwMDAiIGZvbnQtZmFtaWx5PSJzYW5zLXNlcmlmIiBmb250LXNpemU9IjE0IiBsZW5ndGhBZGp1c3Q9InNwYWNpbmciIHRleHRMZW5ndGg9IjQ5IiB4PSIyNjEuNzUiIHk9IjUzNS43MjY2Ij5MaXN0aW5nPC90ZXh0PjxsaW5lIHN0eWxlPSJzdHJva2U6IzE4MTgxODtzdHJva2Utd2lkdGg6MC41OyIgeDE9IjE5MS41IiB4Mj0iMzQ4LjUiIHkxPSI1NDUuOTg0NCIgeTI9IjU0NS45ODQ0Ii8+PHJlY3QgZmlsbD0ibm9uZSIgaGVpZ2h0PSI2IiBzdHlsZT0ic3Ryb2tlOiNDODI5MzA7c3Ryb2tlLXdpZHRoOjE7IiB3aWR0aD0iNiIgeD0iMTk4LjUiIHk9IjU1NS45NzY2Ii8+PHRleHQgZmlsbD0iIzAwMDAwMCIgZm9udC1mYW1pbHk9InNhbnMtc2VyaWYiIGZvbnQtc2l6ZT0iMTQiIGxlbmd0aEFkanVzdD0ic3BhY2luZyIgdGV4dExlbmd0aD0iNzAiIHg9IjIxMC41IiB5PSI1NjMuMjE4OCI+bGlzdGluZ19pZDwvdGV4dD48cmVjdCBmaWxsPSJub25lIiBoZWlnaHQ9IjYiIHN0eWxlPSJzdHJva2U6I0M4MjkzMDtzdHJva2Utd2lkdGg6MTsiIHdpZHRoPSI2IiB4PSIxOTguNSIgeT0iNTcwLjk2MDkiLz48dGV4dCBmaWxsPSIjMDAwMDAwIiBmb250LWZhbWlseT0ic2Fucy1zZXJpZiIgZm9udC1zaXplPSIxNCIgbGVuZ3RoQWRqdXN0PSJzcGFjaW5nIiB0ZXh0TGVuZ3RoPSIzNSIgeD0iMjEwLjUiIHk9IjU3OC4yMDMxIj50aXRsZTwvdGV4dD48cmVjdCBmaWxsPSJub25lIiBoZWlnaHQ9IjYiIHN0eWxlPSJzdHJva2U6I0M4MjkzMDtzdHJva2Utd2lkdGg6MTsiIHdpZHRoPSI2IiB4PSIxOTguNSIgeT0iNTg1Ljk0NTMiLz48dGV4dCBmaWxsPSIjMDAwMDAwIiBmb250LWZhbWlseT0ic2Fucy1zZXJpZiIgZm9udC1zaXplPSIxNCIgbGVuZ3RoQWRqdXN0PSJzcGFjaW5nIiB0ZXh0TGVuZ3RoPSI3NyIgeD0iMjEwLjUiIHk9IjU5My4xODc1Ij5kZXNjcmlwdGlvbjwvdGV4dD48cmVjdCBmaWxsPSJub25lIiBoZWlnaHQ9IjYiIHN0eWxlPSJzdHJva2U6I0M4MjkzMDtzdHJva2Utd2lkdGg6MTsiIHdpZHRoPSI2IiB4PSIxOTguNSIgeT0iNjAwLjkyOTciLz48dGV4dCBmaWxsPSIjMDAwMDAwIiBmb250LWZhbWlseT0ic2Fucy1zZXJpZiIgZm9udC1zaXplPSIxNCIgbGVuZ3RoQWRqdXN0PSJzcGFjaW5nIiB0ZXh0TGVuZ3RoPSI1NiIgeD0iMjEwLjUiIHk9IjYwOC4xNzE5Ij5sb2NhdGlvbjwvdGV4dD48cmVjdCBmaWxsPSJub25lIiBoZWlnaHQ9IjYiIHN0eWxlPSJzdHJva2U6I0M4MjkzMDtzdHJva2Utd2lkdGg6MTsiIHdpZHRoPSI2IiB4PSIxOTguNSIgeT0iNjE1LjkxNDEiLz48dGV4dCBmaWxsPSIjMDAwMDAwIiBmb250LWZhbWlseT0ic2Fucy1zZXJpZiIgZm9udC1zaXplPSIxNCIgbGVuZ3RoQWRqdXN0PSJzcGFjaW5nIiB0ZXh0TGVuZ3RoPSI3NyIgeD0iMjEwLjUiIHk9IjYyMy4xNTYzIj5yZW50X2Ftb3VudDwvdGV4dD48cmVjdCBmaWxsPSJub25lIiBoZWlnaHQ9IjYiIHN0eWxlPSJzdHJva2U6I0M4MjkzMDtzdHJva2Utd2lkdGg6MTsiIHdpZHRoPSI2IiB4PSIxOTguNSIgeT0iNjMwLjg5ODQiLz48dGV4dCBmaWxsPSIjMDAwMDAwIiBmb250LWZhbWlseT0ic2Fucy1zZXJpZiIgZm9udC1zaXplPSIxNCIgbGVuZ3RoQWRqdXN0PSJzcGFjaW5nIiB0ZXh0TGVuZ3RoPSI3MCIgeD0iMjEwLjUiIHk9IjYzOC4xNDA2Ij5ob3VzZV90eXBlPC90ZXh0PjxyZWN0IGZpbGw9Im5vbmUiIGhlaWdodD0iNiIgc3R5bGU9InN0cm9rZTojQzgyOTMwO3N0cm9rZS13aWR0aDoxOyIgd2lkdGg9IjYiIHg9IjE5OC41IiB5PSI2NDUuODgyOCIvPjx0ZXh0IGZpbGw9IiMwMDAwMDAiIGZvbnQtZmFtaWx5PSJzYW5zLXNlcmlmIiBmb250LXNpemU9IjE0IiBsZW5ndGhBZGp1c3Q9InNwYWNpbmciIHRleHRMZW5ndGg9IjEzMyIgeD0iMjEwLjUiIHk9IjY1My4xMjUiPmF2YWlsYWJpbGl0eV9zdGF0dXM8L3RleHQ+PHJlY3QgZmlsbD0ibm9uZSIgaGVpZ2h0PSI2IiBzdHlsZT0ic3Ryb2tlOiNDODI5MzA7c3Ryb2tlLXdpZHRoOjE7IiB3aWR0aD0iNiIgeD0iMTk4LjUiIHk9IjY2MC44NjcyIi8+PHRleHQgZmlsbD0iIzAwMDAwMCIgZm9udC1mYW1pbHk9InNhbnMtc2VyaWYiIGZvbnQtc2l6ZT0iMTQiIGxlbmd0aEFkanVzdD0ic3BhY2luZyIgdGV4dExlbmd0aD0iNzciIHg9IjIxMC41IiB5PSI2NjguMTA5NCI+ZGF0ZV9wb3N0ZWQ8L3RleHQ+PGxpbmUgc3R5bGU9InN0cm9rZTojMTgxODE4O3N0cm9rZS13aWR0aDowLjU7IiB4MT0iMTkxLjUiIHgyPSIzNDguNSIgeTE9IjY3My44NTk0IiB5Mj0iNjczLjg1OTQiLz48ZWxsaXBzZSBjeD0iMjAxLjUiIGN5PSI2ODYuODUxNiIgZmlsbD0iIzg0QkU4NCIgcng9IjMiIHJ5PSIzIiBzdHlsZT0ic3Ryb2tlOiMwMzgwNDg7c3Ryb2tlLXdpZHRoOjE7Ii8+PHRleHQgZmlsbD0iIzAwMDAwMCIgZm9udC1mYW1pbHk9InNhbnMtc2VyaWYiIGZvbnQtc2l6ZT0iMTQiIGxlbmd0aEFkanVzdD0ic3BhY2luZyIgdGV4dExlbmd0aD0iODQiIHg9IjIxMC41IiB5PSI2OTEuMDkzOCI+YWRkTGlzdGluZygpPC90ZXh0PjxlbGxpcHNlIGN4PSIyMDEuNSIgY3k9IjcwMS44MzU5IiBmaWxsPSIjODRCRTg0IiByeD0iMyIgcnk9IjMiIHN0eWxlPSJzdHJva2U6IzAzODA0ODtzdHJva2Utd2lkdGg6MTsiLz48dGV4dCBmaWxsPSIjMDAwMDAwIiBmb250LWZhbWlseT0ic2Fucy1zZXJpZiIgZm9udC1zaXplPSIxNCIgbGVuZ3RoQWRqdXN0PSJzcGFjaW5nIiB0ZXh0TGVuZ3RoPSIxMDUiIHg9IjIxMC41IiB5PSI3MDYuMDc4MSI+dXBkYXRlTGlzdGluZygpPC90ZXh0PjxlbGxpcHNlIGN4PSIyMDEuNSIgY3k9IjcxNi44MjAzIiBmaWxsPSIjODRCRTg0IiByeD0iMyIgcnk9IjMiIHN0eWxlPSJzdHJva2U6IzAzODA0ODtzdHJva2Utd2lkdGg6MTsiLz48dGV4dCBmaWxsPSIjMDAwMDAwIiBmb250LWZhbWlseT0ic2Fucy1zZXJpZiIgZm9udC1zaXplPSIxNCIgbGVuZ3RoQWRqdXN0PSJzcGFjaW5nIiB0ZXh0TGVuZ3RoPSIxMDUiIHg9IjIxMC41IiB5PSI3MjEuMDYyNSI+cmVtb3ZlTGlzdGluZygpPC90ZXh0PjxlbGxpcHNlIGN4PSIyMDEuNSIgY3k9IjczMS44MDQ3IiBmaWxsPSIjODRCRTg0IiByeD0iMyIgcnk9IjMiIHN0eWxlPSJzdHJva2U6IzAzODA0ODtzdHJva2Utd2lkdGg6MTsiLz48dGV4dCBmaWxsPSIjMDAwMDAwIiBmb250LWZhbWlseT0ic2Fucy1zZXJpZiIgZm9udC1zaXplPSIxNCIgbGVuZ3RoQWRqdXN0PSJzcGFjaW5nIiB0ZXh0TGVuZ3RoPSIxMTkiIHg9IjIxMC41IiB5PSI3MzYuMDQ2OSI+bWFya1VuYXZhaWxhYmxlKCk8L3RleHQ+PC9nPjwhLS1jbGFzcyBSZXF1ZXN0LS0+PGcgY2xhc3M9ImVudGl0eSIgZGF0YS1lbnRpdHk9IlJlcXVlc3QiIGRhdGEtc291cmNlLWxpbmU9IjYxIiBkYXRhLXVpZD0iZW50MDAwNyIgaWQ9ImVudGl0eV9SZXF1ZXN0Ij48cmVjdCBmaWxsPSIjRjFGMUYxIiBoZWlnaHQ9IjE5Ny44NDM4IiByeD0iMi41IiByeT0iMi41IiBzdHlsZT0ic3Ryb2tlOiMxODE4MTg7c3Ryb2tlLXdpZHRoOjAuNTsiIHdpZHRoPSIxNTIiIHg9IjciIHk9IjI0MC45ODQ0Ii8+PGVsbGlwc2UgY3g9IjU0LjI1IiBjeT0iMjU2Ljk4NDQiIGZpbGw9IiNBREQxQjIiIHJ4PSIxMSIgcnk9IjExIiBzdHlsZT0ic3Ryb2tlOiMxODE4MTg7c3Ryb2tlLXdpZHRoOjE7Ii8+PHBhdGggZD0iTTUxLjg3NSwyNjEuMjM0NCBMNTEuODc1LDI2Mi45ODQ0IEw1Ni44MTI1LDI2Mi45ODQ0IEw1Ni44MTI1LDI2MS4yMzQ0IEw1MS44NzUsMjYxLjIzNDQgWiBNNTIuNTYyNSwyNjEuOTIxOSBRNTIuNTYyNSwyNjEuOTIxOSA1Mi41NjI1LDI1Mi43MzQ0IEw1MC44MTI1LDI1Mi43MzQ0IFE1MC44MTI1LDI1Mi43MzQ0IDUwLjgxMjUsMjYxLjkyMTkgTDUyLjU2MjUsMjYxLjkyMTkgWiBNNTYuMTI1LDI2MS45MjE5IEw1Ny44NzUsMjYxLjkyMTkgUTU3Ljg3NSwyNjEuOTIxOSA1Ny44NzUsMjU5LjEwOTQgTDU2LjEyNSwyNTkuMTA5NCBRNTYuMTI1LDI1OS4xMDk0IDU2LjEyNSwyNjEuOTIxOSBaIE01Ni4xMjUsMjUyLjczNDQgUTU2LjEyNSwyNTIuNzM0NCA1Ni4xMjUsMjU1LjU0NjkgTDU3Ljg3NSwyNTUuNTQ2OSBRNTcuODc1LDI1NS41NDY5IDU3Ljg3NSwyNTIuNzM0NCBMNTYuMTI1LDI1Mi43MzQ0IFogTTUxLjg3NSwyNTMuNDIxOSBMNTYuODEyNSwyNTMuNDIxOSBMNTYuODEyNSwyNTEuNjcxOSBMNTEuODc1LDI1MS42NzE5IEw1MS44NzUsMjUzLjQyMTkgWiAiIGZpbGw9IiMwMDAwMDAiLz48dGV4dCBmaWxsPSIjMDAwMDAwIiBmb250LWZhbWlseT0ic2Fucy1zZXJpZiIgZm9udC1zaXplPSIxNCIgbGVuZ3RoQWRqdXN0PSJzcGFjaW5nIiB0ZXh0TGVuZ3RoPSI0OSIgeD0iNzQuNzUiIHk9IjI2Mi43MjY2Ij5SZXF1ZXN0PC90ZXh0PjxsaW5lIHN0eWxlPSJzdHJva2U6IzE4MTgxODtzdHJva2Utd2lkdGg6MC41OyIgeDE9IjgiIHgyPSIxNTgiIHkxPSIyNzIuOTg0NCIgeTI9IjI3Mi45ODQ0Ii8+PHJlY3QgZmlsbD0ibm9uZSIgaGVpZ2h0PSI2IiBzdHlsZT0ic3Ryb2tlOiNDODI5MzA7c3Ryb2tlLXdpZHRoOjE7IiB3aWR0aD0iNiIgeD0iMTUiIHk9IjI4Mi45NzY2Ii8+PHRleHQgZmlsbD0iIzAwMDAwMCIgZm9udC1mYW1pbHk9InNhbnMtc2VyaWYiIGZvbnQtc2l6ZT0iMTQiIGxlbmd0aEFkanVzdD0ic3BhY2luZyIgdGV4dExlbmd0aD0iNzAiIHg9IjI3IiB5PSIyOTAuMjE4OCI+cmVxdWVzdF9pZDwvdGV4dD48cmVjdCBmaWxsPSJub25lIiBoZWlnaHQ9IjYiIHN0eWxlPSJzdHJva2U6I0M4MjkzMDtzdHJva2Utd2lkdGg6MTsiIHdpZHRoPSI2IiB4PSIxNSIgeT0iMjk3Ljk2MDkiLz48dGV4dCBmaWxsPSIjMDAwMDAwIiBmb250LWZhbWlseT0ic2Fucy1zZXJpZiIgZm9udC1zaXplPSIxNCIgbGVuZ3RoQWRqdXN0PSJzcGFjaW5nIiB0ZXh0TGVuZ3RoPSI2MyIgeD0iMjciIHk9IjMwNS4yMDMxIj50ZW5hbnRfaWQ8L3RleHQ+PHJlY3QgZmlsbD0ibm9uZSIgaGVpZ2h0PSI2IiBzdHlsZT0ic3Ryb2tlOiNDODI5MzA7c3Ryb2tlLXdpZHRoOjE7IiB3aWR0aD0iNiIgeD0iMTUiIHk9IjMxMi45NDUzIi8+PHRleHQgZmlsbD0iIzAwMDAwMCIgZm9udC1mYW1pbHk9InNhbnMtc2VyaWYiIGZvbnQtc2l6ZT0iMTQiIGxlbmd0aEFkanVzdD0ic3BhY2luZyIgdGV4dExlbmd0aD0iMTI2IiB4PSIyNyIgeT0iMzIwLjE4NzUiPnByZWZlcnJlZF9sb2NhdGlvbjwvdGV4dD48cmVjdCBmaWxsPSJub25lIiBoZWlnaHQ9IjYiIHN0eWxlPSJzdHJva2U6I0M4MjkzMDtzdHJva2Utd2lkdGg6MTsiIHdpZHRoPSI2IiB4PSIxNSIgeT0iMzI3LjkyOTciLz48dGV4dCBmaWxsPSIjMDAwMDAwIiBmb250LWZhbWlseT0ic2Fucy1zZXJpZiIgZm9udC1zaXplPSIxNCIgbGVuZ3RoQWRqdXN0PSJzcGFjaW5nIiB0ZXh0TGVuZ3RoPSI0MiIgeD0iMjciIHk9IjMzNS4xNzE5Ij5idWRnZXQ8L3RleHQ+PHJlY3QgZmlsbD0ibm9uZSIgaGVpZ2h0PSI2IiBzdHlsZT0ic3Ryb2tlOiNDODI5MzA7c3Ryb2tlLXdpZHRoOjE7IiB3aWR0aD0iNiIgeD0iMTUiIHk9IjM0Mi45MTQxIi8+PHRleHQgZmlsbD0iIzAwMDAwMCIgZm9udC1mYW1pbHk9InNhbnMtc2VyaWYiIGZvbnQtc2l6ZT0iMTQiIGxlbmd0aEFkanVzdD0ic3BhY2luZyIgdGV4dExlbmd0aD0iNzAiIHg9IjI3IiB5PSIzNTAuMTU2MyI+aG91c2VfdHlwZTwvdGV4dD48cmVjdCBmaWxsPSJub25lIiBoZWlnaHQ9IjYiIHN0eWxlPSJzdHJva2U6I0M4MjkzMDtzdHJva2Utd2lkdGg6MTsiIHdpZHRoPSI2IiB4PSIxNSIgeT0iMzU3Ljg5ODQiLz48dGV4dCBmaWxsPSIjMDAwMDAwIiBmb250LWZhbWlseT0ic2Fucy1zZXJpZiIgZm9udC1zaXplPSIxNCIgbGVuZ3RoQWRqdXN0PSJzcGFjaW5nIiB0ZXh0TGVuZ3RoPSI0MiIgeD0iMjciIHk9IjM2NS4xNDA2Ij5zdGF0dXM8L3RleHQ+PHJlY3QgZmlsbD0ibm9uZSIgaGVpZ2h0PSI2IiBzdHlsZT0ic3Ryb2tlOiNDODI5MzA7c3Ryb2tlLXdpZHRoOjE7IiB3aWR0aD0iNiIgeD0iMTUiIHk9IjM3Mi44ODI4Ii8+PHRleHQgZmlsbD0iIzAwMDAwMCIgZm9udC1mYW1pbHk9InNhbnMtc2VyaWYiIGZvbnQtc2l6ZT0iMTQiIGxlbmd0aEFkanVzdD0ic3BhY2luZyIgdGV4dExlbmd0aD0iODQiIHg9IjI3IiB5PSIzODAuMTI1Ij5kYXRlX2NyZWF0ZWQ8L3RleHQ+PGxpbmUgc3R5bGU9InN0cm9rZTojMTgxODE4O3N0cm9rZS13aWR0aDowLjU7IiB4MT0iOCIgeDI9IjE1OCIgeTE9IjM4NS44NzUiIHkyPSIzODUuODc1Ii8+PGVsbGlwc2UgY3g9IjE4IiBjeT0iMzk4Ljg2NzIiIGZpbGw9IiM4NEJFODQiIHJ4PSIzIiByeT0iMyIgc3R5bGU9InN0cm9rZTojMDM4MDQ4O3N0cm9rZS13aWR0aDoxOyIvPjx0ZXh0IGZpbGw9IiMwMDAwMDAiIGZvbnQtZmFtaWx5PSJzYW5zLXNlcmlmIiBmb250LXNpemU9IjE0IiBsZW5ndGhBZGp1c3Q9InNwYWNpbmciIHRleHRMZW5ndGg9IjEwNSIgeD0iMjciIHk9IjQwMy4xMDk0Ij5jcmVhdGVSZXF1ZXN0KCk8L3RleHQ+PGVsbGlwc2UgY3g9IjE4IiBjeT0iNDEzLjg1MTYiIGZpbGw9IiM4NEJFODQiIHJ4PSIzIiByeT0iMyIgc3R5bGU9InN0cm9rZTojMDM4MDQ4O3N0cm9rZS13aWR0aDoxOyIvPjx0ZXh0IGZpbGw9IiMwMDAwMDAiIGZvbnQtZmFtaWx5PSJzYW5zLXNlcmlmIiBmb250LXNpemU9IjE0IiBsZW5ndGhBZGp1c3Q9InNwYWNpbmciIHRleHRMZW5ndGg9IjEyNiIgeD0iMjciIHk9IjQxOC4wOTM4Ij5tYXRjaFdpdGhMaXN0aW5nKCk8L3RleHQ+PGVsbGlwc2UgY3g9IjE4IiBjeT0iNDI4LjgzNTkiIGZpbGw9IiM4NEJFODQiIHJ4PSIzIiByeT0iMyIgc3R5bGU9InN0cm9rZTojMDM4MDQ4O3N0cm9rZS13aWR0aDoxOyIvPjx0ZXh0IGZpbGw9IiMwMDAwMDAiIGZvbnQtZmFtaWx5PSJzYW5zLXNlcmlmIiBmb250LXNpemU9IjE0IiBsZW5ndGhBZGp1c3Q9InNwYWNpbmciIHRleHRMZW5ndGg9Ijk4IiB4PSIyNyIgeT0iNDMzLjA3ODEiPmNsb3NlUmVxdWVzdCgpPC90ZXh0PjwvZz48IS0tY2xhc3MgUmVmZXJyYWwtLT48ZyBjbGFzcz0iZW50aXR5IiBkYXRhLWVudGl0eT0iUmVmZXJyYWwiIGRhdGEtc291cmNlLWxpbmU9Ijc1IiBkYXRhLXVpZD0iZW50MDAwOCIgaWQ9ImVudGl0eV9SZWZlcnJhbCI+PHJlY3QgZmlsbD0iI0YxRjFGMSIgaGVpZ2h0PSIxNTIuODkwNiIgcng9IjIuNSIgcnk9IjIuNSIgc3R5bGU9InN0cm9rZTojMTgxODE4O3N0cm9rZS13aWR0aDowLjU7IiB3aWR0aD0iMTU5IiB4PSIzODEuNSIgeT0iMjYzLjQ4NDQiLz48ZWxsaXBzZSBjeD0iNDI4Ljc1IiBjeT0iMjc5LjQ4NDQiIGZpbGw9IiNBREQxQjIiIHJ4PSIxMSIgcnk9IjExIiBzdHlsZT0ic3Ryb2tlOiMxODE4MTg7c3Ryb2tlLXdpZHRoOjE7Ii8+PHBhdGggZD0iTTQyNi4zNzUsMjgzLjczNDQgTDQyNi4zNzUsMjg1LjQ4NDQgTDQzMS4zMTI1LDI4NS40ODQ0IEw0MzEuMzEyNSwyODMuNzM0NCBMNDI2LjM3NSwyODMuNzM0NCBaIE00MjcuMDYyNSwyODQuNDIxOSBRNDI3LjA2MjUsMjg0LjQyMTkgNDI3LjA2MjUsMjc1LjIzNDQgTDQyNS4zMTI1LDI3NS4yMzQ0IFE0MjUuMzEyNSwyNzUuMjM0NCA0MjUuMzEyNSwyODQuNDIxOSBMNDI3LjA2MjUsMjg0LjQyMTkgWiBNNDMwLjYyNSwyODQuNDIxOSBMNDMyLjM3NSwyODQuNDIxOSBRNDMyLjM3NSwyODQuNDIxOSA0MzIuMzc1LDI4MS42MDk0IEw0MzAuNjI1LDI4MS42MDk0IFE0MzAuNjI1LDI4MS42MDk0IDQzMC42MjUsMjg0LjQyMTkgWiBNNDMwLjYyNSwyNzUuMjM0NCBRNDMwLjYyNSwyNzUuMjM0NCA0MzAuNjI1LDI3OC4wNDY5IEw0MzIuMzc1LDI3OC4wNDY5IFE0MzIuMzc1LDI3OC4wNDY5IDQzMi4zNzUsMjc1LjIzNDQgTDQzMC42MjUsMjc1LjIzNDQgWiBNNDI2LjM3NSwyNzUuOTIxOSBMNDMxLjMxMjUsMjc1LjkyMTkgTDQzMS4zMTI1LDI3NC4xNzE5IEw0MjYuMzc1LDI3NC4xNzE5IEw0MjYuMzc1LDI3NS45MjE5IFogIiBmaWxsPSIjMDAwMDAwIi8+PHRleHQgZmlsbD0iIzAwMDAwMCIgZm9udC1mYW1pbHk9InNhbnMtc2VyaWYiIGZvbnQtc2l6ZT0iMTQiIGxlbmd0aEFkanVzdD0ic3BhY2luZyIgdGV4dExlbmd0aD0iNTYiIHg9IjQ0OS4yNSIgeT0iMjg1LjIyNjYiPlJlZmVycmFsPC90ZXh0PjxsaW5lIHN0eWxlPSJzdHJva2U6IzE4MTgxODtzdHJva2Utd2lkdGg6MC41OyIgeDE9IjM4Mi41IiB4Mj0iNTM5LjUiIHkxPSIyOTUuNDg0NCIgeTI9IjI5NS40ODQ0Ii8+PHJlY3QgZmlsbD0ibm9uZSIgaGVpZ2h0PSI2IiBzdHlsZT0ic3Ryb2tlOiNDODI5MzA7c3Ryb2tlLXdpZHRoOjE7IiB3aWR0aD0iNiIgeD0iMzg5LjUiIHk9IjMwNS40NzY2Ii8+PHRleHQgZmlsbD0iIzAwMDAwMCIgZm9udC1mYW1pbHk9InNhbnMtc2VyaWYiIGZvbnQtc2l6ZT0iMTQiIGxlbmd0aEFkanVzdD0ic3BhY2luZyIgdGV4dExlbmd0aD0iNzciIHg9IjQwMS41IiB5PSIzMTIuNzE4OCI+cmVmZXJyYWxfaWQ8L3RleHQ+PHJlY3QgZmlsbD0ibm9uZSIgaGVpZ2h0PSI2IiBzdHlsZT0ic3Ryb2tlOiNDODI5MzA7c3Ryb2tlLXdpZHRoOjE7IiB3aWR0aD0iNiIgeD0iMzg5LjUiIHk9IjMyMC40NjA5Ii8+PHRleHQgZmlsbD0iIzAwMDAwMCIgZm9udC1mYW1pbHk9InNhbnMtc2VyaWYiIGZvbnQtc2l6ZT0iMTQiIGxlbmd0aEFkanVzdD0ic3BhY2luZyIgdGV4dExlbmd0aD0iNjMiIHg9IjQwMS41IiB5PSIzMjcuNzAzMSI+dGVuYW50X2lkPC90ZXh0PjxyZWN0IGZpbGw9Im5vbmUiIGhlaWdodD0iNiIgc3R5bGU9InN0cm9rZTojQzgyOTMwO3N0cm9rZS13aWR0aDoxOyIgd2lkdGg9IjYiIHg9IjM4OS41IiB5PSIzMzUuNDQ1MyIvPjx0ZXh0IGZpbGw9IiMwMDAwMDAiIGZvbnQtZmFtaWx5PSJzYW5zLXNlcmlmIiBmb250LXNpemU9IjE0IiBsZW5ndGhBZGp1c3Q9InNwYWNpbmciIHRleHRMZW5ndGg9IjEzMyIgeD0iNDAxLjUiIHk9IjM0Mi42ODc1Ij5yZWZlcnJlZF9hZ2VudF9uYW1lPC90ZXh0PjxyZWN0IGZpbGw9Im5vbmUiIGhlaWdodD0iNiIgc3R5bGU9InN0cm9rZTojQzgyOTMwO3N0cm9rZS13aWR0aDoxOyIgd2lkdGg9IjYiIHg9IjM4OS41IiB5PSIzNTAuNDI5NyIvPjx0ZXh0IGZpbGw9IiMwMDAwMDAiIGZvbnQtZmFtaWx5PSJzYW5zLXNlcmlmIiBmb250LXNpemU9IjE0IiBsZW5ndGhBZGp1c3Q9InNwYWNpbmciIHRleHRMZW5ndGg9IjEwNSIgeD0iNDAxLjUiIHk9IjM1Ny42NzE5Ij5jb250YWN0X2RldGFpbHM8L3RleHQ+PHJlY3QgZmlsbD0ibm9uZSIgaGVpZ2h0PSI2IiBzdHlsZT0ic3Ryb2tlOiNDODI5MzA7c3Ryb2tlLXdpZHRoOjE7IiB3aWR0aD0iNiIgeD0iMzg5LjUiIHk9IjM2NS40MTQxIi8+PHRleHQgZmlsbD0iIzAwMDAwMCIgZm9udC1mYW1pbHk9InNhbnMtc2VyaWYiIGZvbnQtc2l6ZT0iMTQiIGxlbmd0aEFkanVzdD0ic3BhY2luZyIgdGV4dExlbmd0aD0iMzUiIHg9IjQwMS41IiB5PSIzNzIuNjU2MyI+bm90ZXM8L3RleHQ+PGxpbmUgc3R5bGU9InN0cm9rZTojMTgxODE4O3N0cm9rZS13aWR0aDowLjU7IiB4MT0iMzgyLjUiIHgyPSI1MzkuNSIgeTE9IjM3OC40MDYzIiB5Mj0iMzc4LjQwNjMiLz48ZWxsaXBzZSBjeD0iMzkyLjUiIGN5PSIzOTEuMzk4NCIgZmlsbD0iIzg0QkU4NCIgcng9IjMiIHJ5PSIzIiBzdHlsZT0ic3Ryb2tlOiMwMzgwNDg7c3Ryb2tlLXdpZHRoOjE7Ii8+PHRleHQgZmlsbD0iIzAwMDAwMCIgZm9udC1mYW1pbHk9InNhbnMtc2VyaWYiIGZvbnQtc2l6ZT0iMTQiIGxlbmd0aEFkanVzdD0ic3BhY2luZyIgdGV4dExlbmd0aD0iOTEiIHg9IjQwMS41IiB5PSIzOTUuNjQwNiI+YWRkUmVmZXJyYWwoKTwvdGV4dD48ZWxsaXBzZSBjeD0iMzkyLjUiIGN5PSI0MDYuMzgyOCIgZmlsbD0iIzg0QkU4NCIgcng9IjMiIHJ5PSIzIiBzdHlsZT0ic3Ryb2tlOiMwMzgwNDg7c3Ryb2tlLXdpZHRoOjE7Ii8+PHRleHQgZmlsbD0iIzAwMDAwMCIgZm9udC1mYW1pbHk9InNhbnMtc2VyaWYiIGZvbnQtc2l6ZT0iMTQiIGxlbmd0aEFkanVzdD0ic3BhY2luZyIgdGV4dExlbmd0aD0iOTgiIHg9IjQwMS41IiB5PSI0MTAuNjI1Ij5nZXRSZWZlcnJhbHMoKTwvdGV4dD48L2c+PCEtLWNsYXNzIFJldmlldy0tPjxnIGNsYXNzPSJlbnRpdHkiIGRhdGEtZW50aXR5PSJSZXZpZXciIGRhdGEtc291cmNlLWxpbmU9Ijg2IiBkYXRhLXVpZD0iZW50MDAwOSIgaWQ9ImVudGl0eV9SZXZpZXciPjxyZWN0IGZpbGw9IiNGMUYxRjEiIGhlaWdodD0iMTY3Ljg3NSIgcng9IjIuNSIgcnk9IjIuNSIgc3R5bGU9InN0cm9rZTojMTgxODE4O3N0cm9rZS13aWR0aDowLjU7IiB3aWR0aD0iMTEwIiB4PSI1NzYiIHk9IjI1NS45ODQ0Ii8+PGVsbGlwc2UgY3g9IjYwNy4yIiBjeT0iMjcxLjk4NDQiIGZpbGw9IiNBREQxQjIiIHJ4PSIxMSIgcnk9IjExIiBzdHlsZT0ic3Ryb2tlOiMxODE4MTg7c3Ryb2tlLXdpZHRoOjE7Ii8+PHBhdGggZD0iTTYwNC44MjUsMjc2LjIzNDQgTDYwNC44MjUsMjc3Ljk4NDQgTDYwOS43NjI1LDI3Ny45ODQ0IEw2MDkuNzYyNSwyNzYuMjM0NCBMNjA0LjgyNSwyNzYuMjM0NCBaIE02MDUuNTEyNSwyNzYuOTIxOSBRNjA1LjUxMjUsMjc2LjkyMTkgNjA1LjUxMjUsMjY3LjczNDQgTDYwMy43NjI1LDI2Ny43MzQ0IFE2MDMuNzYyNSwyNjcuNzM0NCA2MDMuNzYyNSwyNzYuOTIxOSBMNjA1LjUxMjUsMjc2LjkyMTkgWiBNNjA5LjA3NSwyNzYuOTIxOSBMNjEwLjgyNSwyNzYuOTIxOSBRNjEwLjgyNSwyNzYuOTIxOSA2MTAuODI1LDI3NC4xMDk0IEw2MDkuMDc1LDI3NC4xMDk0IFE2MDkuMDc1LDI3NC4xMDk0IDYwOS4wNzUsMjc2LjkyMTkgWiBNNjA5LjA3NSwyNjcuNzM0NCBRNjA5LjA3NSwyNjcuNzM0NCA2MDkuMDc1LDI3MC41NDY5IEw2MTAuODI1LDI3MC41NDY5IFE2MTAuODI1LDI3MC41NDY5IDYxMC44MjUsMjY3LjczNDQgTDYwOS4wNzUsMjY3LjczNDQgWiBNNjA0LjgyNSwyNjguNDIxOSBMNjA5Ljc2MjUsMjY4LjQyMTkgTDYwOS43NjI1LDI2Ni42NzE5IEw2MDQuODI1LDI2Ni42NzE5IEw2MDQuODI1LDI2OC40MjE5IFogIiBmaWxsPSIjMDAwMDAwIi8+PHRleHQgZmlsbD0iIzAwMDAwMCIgZm9udC1mYW1pbHk9InNhbnMtc2VyaWYiIGZvbnQtc2l6ZT0iMTQiIGxlbmd0aEFkanVzdD0ic3BhY2luZyIgdGV4dExlbmd0aD0iNDIiIHg9IjYyNC44IiB5PSIyNzcuNzI2NiI+UmV2aWV3PC90ZXh0PjxsaW5lIHN0eWxlPSJzdHJva2U6IzE4MTgxODtzdHJva2Utd2lkdGg6MC41OyIgeDE9IjU3NyIgeDI9IjY4NSIgeTE9IjI4Ny45ODQ0IiB5Mj0iMjg3Ljk4NDQiLz48cmVjdCBmaWxsPSJub25lIiBoZWlnaHQ9IjYiIHN0eWxlPSJzdHJva2U6I0M4MjkzMDtzdHJva2Utd2lkdGg6MTsiIHdpZHRoPSI2IiB4PSI1ODQiIHk9IjI5Ny45NzY2Ii8+PHRleHQgZmlsbD0iIzAwMDAwMCIgZm9udC1mYW1pbHk9InNhbnMtc2VyaWYiIGZvbnQtc2l6ZT0iMTQiIGxlbmd0aEFkanVzdD0ic3BhY2luZyIgdGV4dExlbmd0aD0iNjMiIHg9IjU5NiIgeT0iMzA1LjIxODgiPnJldmlld19pZDwvdGV4dD48cmVjdCBmaWxsPSJub25lIiBoZWlnaHQ9IjYiIHN0eWxlPSJzdHJva2U6I0M4MjkzMDtzdHJva2Utd2lkdGg6MTsiIHdpZHRoPSI2IiB4PSI1ODQiIHk9IjMxMi45NjA5Ii8+PHRleHQgZmlsbD0iIzAwMDAwMCIgZm9udC1mYW1pbHk9InNhbnMtc2VyaWYiIGZvbnQtc2l6ZT0iMTQiIGxlbmd0aEFkanVzdD0ic3BhY2luZyIgdGV4dExlbmd0aD0iNjMiIHg9IjU5NiIgeT0iMzIwLjIwMzEiPnRlbmFudF9pZDwvdGV4dD48cmVjdCBmaWxsPSJub25lIiBoZWlnaHQ9IjYiIHN0eWxlPSJzdHJva2U6I0M4MjkzMDtzdHJva2Utd2lkdGg6MTsiIHdpZHRoPSI2IiB4PSI1ODQiIHk9IjMyNy45NDUzIi8+PHRleHQgZmlsbD0iIzAwMDAwMCIgZm9udC1mYW1pbHk9InNhbnMtc2VyaWYiIGZvbnQtc2l6ZT0iMTQiIGxlbmd0aEFkanVzdD0ic3BhY2luZyIgdGV4dExlbmd0aD0iNzciIHg9IjU5NiIgeT0iMzM1LjE4NzUiPmxhbmRsb3JkX2lkPC90ZXh0PjxyZWN0IGZpbGw9Im5vbmUiIGhlaWdodD0iNiIgc3R5bGU9InN0cm9rZTojQzgyOTMwO3N0cm9rZS13aWR0aDoxOyIgd2lkdGg9IjYiIHg9IjU4NCIgeT0iMzQyLjkyOTciLz48dGV4dCBmaWxsPSIjMDAwMDAwIiBmb250LWZhbWlseT0ic2Fucy1zZXJpZiIgZm9udC1zaXplPSIxNCIgbGVuZ3RoQWRqdXN0PSJzcGFjaW5nIiB0ZXh0TGVuZ3RoPSI0MiIgeD0iNTk2IiB5PSIzNTAuMTcxOSI+cmF0aW5nPC90ZXh0PjxyZWN0IGZpbGw9Im5vbmUiIGhlaWdodD0iNiIgc3R5bGU9InN0cm9rZTojQzgyOTMwO3N0cm9rZS13aWR0aDoxOyIgd2lkdGg9IjYiIHg9IjU4NCIgeT0iMzU3LjkxNDEiLz48dGV4dCBmaWxsPSIjMDAwMDAwIiBmb250LWZhbWlseT0ic2Fucy1zZXJpZiIgZm9udC1zaXplPSIxNCIgbGVuZ3RoQWRqdXN0PSJzcGFjaW5nIiB0ZXh0TGVuZ3RoPSI1NiIgeD0iNTk2IiB5PSIzNjUuMTU2MyI+Y29tbWVudHM8L3RleHQ+PHJlY3QgZmlsbD0ibm9uZSIgaGVpZ2h0PSI2IiBzdHlsZT0ic3Ryb2tlOiNDODI5MzA7c3Ryb2tlLXdpZHRoOjE7IiB3aWR0aD0iNiIgeD0iNTg0IiB5PSIzNzIuODk4NCIvPjx0ZXh0IGZpbGw9IiMwMDAwMDAiIGZvbnQtZmFtaWx5PSJzYW5zLXNlcmlmIiBmb250LXNpemU9IjE0IiBsZW5ndGhBZGp1c3Q9InNwYWNpbmciIHRleHRMZW5ndGg9Ijc3IiB4PSI1OTYiIHk9IjM4MC4xNDA2Ij5kYXRlX3Bvc3RlZDwvdGV4dD48bGluZSBzdHlsZT0ic3Ryb2tlOiMxODE4MTg7c3Ryb2tlLXdpZHRoOjAuNTsiIHgxPSI1NzciIHgyPSI2ODUiIHkxPSIzODUuODkwNiIgeTI9IjM4NS44OTA2Ii8+PGVsbGlwc2UgY3g9IjU4NyIgY3k9IjM5OC44ODI4IiBmaWxsPSIjODRCRTg0IiByeD0iMyIgcnk9IjMiIHN0eWxlPSJzdHJva2U6IzAzODA0ODtzdHJva2Utd2lkdGg6MTsiLz48dGV4dCBmaWxsPSIjMDAwMDAwIiBmb250LWZhbWlseT0ic2Fucy1zZXJpZiIgZm9udC1zaXplPSIxNCIgbGVuZ3RoQWRqdXN0PSJzcGFjaW5nIiB0ZXh0TGVuZ3RoPSI3NyIgeD0iNTk2IiB5PSI0MDMuMTI1Ij5hZGRSZXZpZXcoKTwvdGV4dD48ZWxsaXBzZSBjeD0iNTg3IiBjeT0iNDEzLjg2NzIiIGZpbGw9IiM4NEJFODQiIHJ4PSIzIiByeT0iMyIgc3R5bGU9InN0cm9rZTojMDM4MDQ4O3N0cm9rZS13aWR0aDoxOyIvPjx0ZXh0IGZpbGw9IiMwMDAwMDAiIGZvbnQtZmFtaWx5PSJzYW5zLXNlcmlmIiBmb250LXNpemU9IjE0IiBsZW5ndGhBZGp1c3Q9InNwYWNpbmciIHRleHRMZW5ndGg9Ijg0IiB4PSI1OTYiIHk9IjQxOC4xMDk0Ij5nZXRSZXZpZXdzKCk8L3RleHQ+PC9nPjwhLS1jbGFzcyBBZG1pbkFjdGlvbi0tPjxnIGNsYXNzPSJlbnRpdHkiIGRhdGEtZW50aXR5PSJBZG1pbkFjdGlvbiIgZGF0YS1zb3VyY2UtbGluZT0iOTgiIGRhdGEtdWlkPSJlbnQwMDEwIiBpZD0iZW50aXR5X0FkbWluQWN0aW9uIj48cmVjdCBmaWxsPSIjRjFGMUYxIiBoZWlnaHQ9IjE2Ny44NzUiIHJ4PSIyLjUiIHJ5PSIyLjUiIHN0eWxlPSJzdHJva2U6IzE4MTgxODtzdHJva2Utd2lkdGg6MC41OyIgd2lkdGg9IjE0NSIgeD0iOTQ2LjUiIHk9IjU0My45ODQ0Ii8+PGVsbGlwc2UgY3g9Ijk3Ny43IiBjeT0iNTU5Ljk4NDQiIGZpbGw9IiNBREQxQjIiIHJ4PSIxMSIgcnk9IjExIiBzdHlsZT0ic3Ryb2tlOiMxODE4MTg7c3Ryb2tlLXdpZHRoOjE7Ii8+PHBhdGggZD0iTTk3NS4zMjUsNTY0LjIzNDQgTDk3NS4zMjUsNTY1Ljk4NDQgTDk4MC4yNjI1LDU2NS45ODQ0IEw5ODAuMjYyNSw1NjQuMjM0NCBMOTc1LjMyNSw1NjQuMjM0NCBaIE05NzYuMDEyNSw1NjQuOTIxOSBROTc2LjAxMjUsNTY0LjkyMTkgOTc2LjAxMjUsNTU1LjczNDQgTDk3NC4yNjI1LDU1NS43MzQ0IFE5NzQuMjYyNSw1NTUuNzM0NCA5NzQuMjYyNSw1NjQuOTIxOSBMOTc2LjAxMjUsNTY0LjkyMTkgWiBNOTc5LjU3NSw1NjQuOTIxOSBMOTgxLjMyNSw1NjQuOTIxOSBROTgxLjMyNSw1NjQuOTIxOSA5ODEuMzI1LDU2Mi4xMDk0IEw5NzkuNTc1LDU2Mi4xMDk0IFE5NzkuNTc1LDU2Mi4xMDk0IDk3OS41NzUsNTY0LjkyMTkgWiBNOTc5LjU3NSw1NTUuNzM0NCBROTc5LjU3NSw1NTUuNzM0NCA5NzkuNTc1LDU1OC41NDY5IEw5ODEuMzI1LDU1OC41NDY5IFE5ODEuMzI1LDU1OC41NDY5IDk4MS4zMjUsNTU1LjczNDQgTDk3OS41NzUsNTU1LjczNDQgWiBNOTc1LjMyNSw1NTYuNDIxOSBMOTgwLjI2MjUsNTU2LjQyMTkgTDk4MC4yNjI1LDU1NC42NzE5IEw5NzUuMzI1LDU1NC42NzE5IEw5NzUuMzI1LDU1Ni40MjE5IFogIiBmaWxsPSIjMDAwMDAwIi8+PHRleHQgZmlsbD0iIzAwMDAwMCIgZm9udC1mYW1pbHk9InNhbnMtc2VyaWYiIGZvbnQtc2l6ZT0iMTQiIGxlbmd0aEFkanVzdD0ic3BhY2luZyIgdGV4dExlbmd0aD0iNzciIHg9Ijk5NS4zIiB5PSI1NjUuNzI2NiI+QWRtaW5BY3Rpb248L3RleHQ+PGxpbmUgc3R5bGU9InN0cm9rZTojMTgxODE4O3N0cm9rZS13aWR0aDowLjU7IiB4MT0iOTQ3LjUiIHgyPSIxMDkwLjUiIHkxPSI1NzUuOTg0NCIgeTI9IjU3NS45ODQ0Ii8+PHJlY3QgZmlsbD0ibm9uZSIgaGVpZ2h0PSI2IiBzdHlsZT0ic3Ryb2tlOiNDODI5MzA7c3Ryb2tlLXdpZHRoOjE7IiB3aWR0aD0iNiIgeD0iOTU0LjUiIHk9IjU4NS45NzY2Ii8+PHRleHQgZmlsbD0iIzAwMDAwMCIgZm9udC1mYW1pbHk9InNhbnMtc2VyaWYiIGZvbnQtc2l6ZT0iMTQiIGxlbmd0aEFkanVzdD0ic3BhY2luZyIgdGV4dExlbmd0aD0iNjMiIHg9Ijk2Ni41IiB5PSI1OTMuMjE4OCI+YWN0aW9uX2lkPC90ZXh0PjxyZWN0IGZpbGw9Im5vbmUiIGhlaWdodD0iNiIgc3R5bGU9InN0cm9rZTojQzgyOTMwO3N0cm9rZS13aWR0aDoxOyIgd2lkdGg9IjYiIHg9Ijk1NC41IiB5PSI2MDAuOTYwOSIvPjx0ZXh0IGZpbGw9IiMwMDAwMDAiIGZvbnQtZmFtaWx5PSJzYW5zLXNlcmlmIiBmb250LXNpemU9IjE0IiBsZW5ndGhBZGp1c3Q9InNwYWNpbmciIHRleHRMZW5ndGg9IjU2IiB4PSI5NjYuNSIgeT0iNjA4LjIwMzEiPmFkbWluX2lkPC90ZXh0PjxyZWN0IGZpbGw9Im5vbmUiIGhlaWdodD0iNiIgc3R5bGU9InN0cm9rZTojQzgyOTMwO3N0cm9rZS13aWR0aDoxOyIgd2lkdGg9IjYiIHg9Ijk1NC41IiB5PSI2MTUuOTQ1MyIvPjx0ZXh0IGZpbGw9IiMwMDAwMDAiIGZvbnQtZmFtaWx5PSJzYW5zLXNlcmlmIiBmb250LXNpemU9IjE0IiBsZW5ndGhBZGp1c3Q9InNwYWNpbmciIHRleHRMZW5ndGg9Ijc3IiB4PSI5NjYuNSIgeT0iNjIzLjE4NzUiPmFjdGlvbl90eXBlPC90ZXh0PjxyZWN0IGZpbGw9Im5vbmUiIGhlaWdodD0iNiIgc3R5bGU9InN0cm9rZTojQzgyOTMwO3N0cm9rZS13aWR0aDoxOyIgd2lkdGg9IjYiIHg9Ijk1NC41IiB5PSI2MzAuOTI5NyIvPjx0ZXh0IGZpbGw9IiMwMDAwMDAiIGZvbnQtZmFtaWx5PSJzYW5zLXNlcmlmIiBmb250LXNpemU9IjE0IiBsZW5ndGhBZGp1c3Q9InNwYWNpbmciIHRleHRMZW5ndGg9Ijk4IiB4PSI5NjYuNSIgeT0iNjM4LjE3MTkiPnRhcmdldF91c2VyX2lkPC90ZXh0PjxyZWN0IGZpbGw9Im5vbmUiIGhlaWdodD0iNiIgc3R5bGU9InN0cm9rZTojQzgyOTMwO3N0cm9rZS13aWR0aDoxOyIgd2lkdGg9IjYiIHg9Ijk1NC41IiB5PSI2NDUuOTE0MSIvPjx0ZXh0IGZpbGw9IiMwMDAwMDAiIGZvbnQtZmFtaWx5PSJzYW5zLXNlcmlmIiBmb250LXNpemU9IjE0IiBsZW5ndGhBZGp1c3Q9InNwYWNpbmciIHRleHRMZW5ndGg9IjExOSIgeD0iOTY2LjUiIHk9IjY1My4xNTYzIj50YXJnZXRfbGlzdGluZ19pZDwvdGV4dD48cmVjdCBmaWxsPSJub25lIiBoZWlnaHQ9IjYiIHN0eWxlPSJzdHJva2U6I0M4MjkzMDtzdHJva2Utd2lkdGg6MTsiIHdpZHRoPSI2IiB4PSI5NTQuNSIgeT0iNjYwLjg5ODQiLz48dGV4dCBmaWxsPSIjMDAwMDAwIiBmb250LWZhbWlseT0ic2Fucy1zZXJpZiIgZm9udC1zaXplPSIxNCIgbGVuZ3RoQWRqdXN0PSJzcGFjaW5nIiB0ZXh0TGVuZ3RoPSI5OCIgeD0iOTY2LjUiIHk9IjY2OC4xNDA2Ij5kYXRlX3BlcmZvcm1lZDwvdGV4dD48bGluZSBzdHlsZT0ic3Ryb2tlOiMxODE4MTg7c3Ryb2tlLXdpZHRoOjAuNTsiIHgxPSI5NDcuNSIgeDI9IjEwOTAuNSIgeTE9IjY3My44OTA2IiB5Mj0iNjczLjg5MDYiLz48ZWxsaXBzZSBjeD0iOTU3LjUiIGN5PSI2ODYuODgyOCIgZmlsbD0iIzg0QkU4NCIgcng9IjMiIHJ5PSIzIiBzdHlsZT0ic3Ryb2tlOiMwMzgwNDg7c3Ryb2tlLXdpZHRoOjE7Ii8+PHRleHQgZmlsbD0iIzAwMDAwMCIgZm9udC1mYW1pbHk9InNhbnMtc2VyaWYiIGZvbnQtc2l6ZT0iMTQiIGxlbmd0aEFkanVzdD0ic3BhY2luZyIgdGV4dExlbmd0aD0iMTA1IiB4PSI5NjYuNSIgeT0iNjkxLjEyNSI+cGVyZm9ybUFjdGlvbigpPC90ZXh0PjxlbGxpcHNlIGN4PSI5NTcuNSIgY3k9IjcwMS44NjcyIiBmaWxsPSIjODRCRTg0IiByeD0iMyIgcnk9IjMiIHN0eWxlPSJzdHJva2U6IzAzODA0ODtzdHJva2Utd2lkdGg6MTsiLz48dGV4dCBmaWxsPSIjMDAwMDAwIiBmb250LWZhbWlseT0ic2Fucy1zZXJpZiIgZm9udC1zaXplPSIxNCIgbGVuZ3RoQWRqdXN0PSJzcGFjaW5nIiB0ZXh0TGVuZ3RoPSI3NyIgeD0iOTY2LjUiIHk9IjcwNi4xMDk0Ij5sb2dBY3Rpb24oKTwvdGV4dD48L2c+PCEtLWxpbmsgVGVuYW50IHRvIFVzZXItLT48ZyBjbGFzcz0ibGluayIgZGF0YS1lbnRpdHktMT0iVGVuYW50IiBkYXRhLWVudGl0eS0yPSJVc2VyIiBkYXRhLXNvdXJjZS1saW5lPSIxMTAiIGRhdGEtdWlkPSJsbmsxMSIgaWQ9ImxpbmtfVGVuYW50X1VzZXIiPjxwYXRoIGNvZGVMaW5lPSIxMTAiIGQ9Ik02MTUuMjcsMTQ5LjE5NDQgQzY0Ni45NywxNzIuNjY0NCA2ODIuMjQsMjA0LjMxNDQgNzA0LDI0MC45ODQ0IEM3MTguMjcsMjY1LjAyNDQgNzQ0LjQzNjgsMzk3LjY3MDggNzYzLjg3NjgsNTAzLjQ2MDgiIGZpbGw9Im5vbmUiIGlkPSJUZW5hbnQtdG8tVXNlciIgc3R5bGU9InN0cm9rZTojMTgxODE4O3N0cm9rZS13aWR0aDoxOyIvPjxwb2x5Z29uIGZpbGw9Im5vbmUiIHBvaW50cz0iNzY3LjEzLDUyMS4xNjQ0LDc2OS43NzgsNTAyLjM3NjQsNzU3Ljk3NTYsNTA0LjU0NTIsNzY3LjEzLDUyMS4xNjQ0IiBzdHlsZT0ic3Ryb2tlOiMxODE4MTg7c3Ryb2tlLXdpZHRoOjE7Ii8+PC9nPjwhLS1saW5rIExhbmRsb3JkIHRvIFVzZXItLT48ZyBjbGFzcz0ibGluayIgZGF0YS1lbnRpdHktMT0iTGFuZGxvcmQiIGRhdGEtZW50aXR5LTI9IlVzZXIiIGRhdGEtc291cmNlLWxpbmU9IjExMSIgZGF0YS11aWQ9ImxuazEyIiBpZD0ibGlua19MYW5kbG9yZF9Vc2VyIj48cGF0aCBjb2RlTGluZT0iMTExIiBkPSJNMzIxLjA3LDQwMS42NDQ0IEMzMzQuMTcsNDE1LjAxNDQgMzQ4Ljg2LDQyOC4zNDQ0IDM2NCw0MzguOTg0NCBDNDcyLjc2LDUxNS40MzQ0IDYwMC41NTA4LDU2NS44OTIyIDY4OS4xNTA4LDU5Ni4wNjIyIiBmaWxsPSJub25lIiBpZD0iTGFuZGxvcmQtdG8tVXNlciIgc3R5bGU9InN0cm9rZTojMTgxODE4O3N0cm9rZS13aWR0aDoxOyIvPjxwb2x5Z29uIGZpbGw9Im5vbmUiIHBvaW50cz0iNzA2LjE5LDYwMS44NjQ0LDY5MS4wODQ4LDU5MC4zODI1LDY4Ny4yMTY3LDYwMS43NDE5LDcwNi4xOSw2MDEuODY0NCIgc3R5bGU9InN0cm9rZTojMTgxODE4O3N0cm9rZS13aWR0aDoxOyIvPjwvZz48IS0tbGluayBBZG1pbmlzdHJhdG9yIHRvIFVzZXItLT48ZyBjbGFzcz0ibGluayIgZGF0YS1lbnRpdHktMT0iQWRtaW5pc3RyYXRvciIgZGF0YS1lbnRpdHktMj0iVXNlciIgZGF0YS1zb3VyY2UtbGluZT0iMTEyIiBkYXRhLXVpZD0ibG5rMTMiIGlkPSJsaW5rX0FkbWluaXN0cmF0b3JfVXNlciI+PHBhdGggY29kZUxpbmU9IjExMiIgZD0iTTg4NS4zNSwzOTQuMDQ0NCBDODc2LDQyMS4xNzQ0IDg2NCw0NTQuNTc0NCA4NTIsNDgzLjk4NDQgQzg0Ny4wNCw0OTYuMTM0NCA4NDguOTA3Myw0OTIuMjk1NSA4NDMuMzc3Myw1MDQuNzg1NSIgZmlsbD0ibm9uZSIgaWQ9IkFkbWluaXN0cmF0b3ItdG8tVXNlciIgc3R5bGU9InN0cm9rZTojMTgxODE4O3N0cm9rZS13aWR0aDoxOyIvPjxwb2x5Z29uIGZpbGw9Im5vbmUiIHBvaW50cz0iODM2LjA5LDUyMS4yNDQ0LDg0OC44NjM2LDUwNy4yMTQ1LDgzNy44OTA5LDUwMi4zNTY0LDgzNi4wOSw1MjEuMjQ0NCIgc3R5bGU9InN0cm9rZTojMTgxODE4O3N0cm9rZS13aWR0aDoxOyIvPjwvZz48IS0tbGluayBBZG1pbmlzdHJhdG9yIHRvIFVzZXItLT48ZyBjbGFzcz0ibGluayIgZGF0YS1lbnRpdHktMT0iQWRtaW5pc3RyYXRvciIgZGF0YS1lbnRpdHktMj0iVXNlciIgZGF0YS1zb3VyY2UtbGluZT0iMTIyIiBkYXRhLXVpZD0ibG5rMjEiIGlkPSJsaW5rX0FkbWluaXN0cmF0b3JfVXNlciI+PHBhdGggY29kZUxpbmU9IjEyMiIgZD0iTTg5OS44MiwzOTQuMDA0NCBDODk2Ljg1LDQyMS41NzQ0IDg5MS4xMSw0NTUuMzg0NCA4ODAsNDgzLjk4NDQgQzg3NS4xNiw0OTYuNDQ0NCA4NzIuMDEyNSw1MDMuNjg3NiA4NjUuMzMyNSw1MTUuODI3NiIgZmlsbD0ibm9uZSIgaWQ9IkFkbWluaXN0cmF0b3ItdG8tVXNlci0xIiBzdHlsZT0ic3Ryb2tlOiMxODE4MTg7c3Ryb2tlLXdpZHRoOjE7Ii8+PHBvbHlnb24gZmlsbD0iIzE4MTgxOCIgcG9pbnRzPSI4NjIuNDQsNTIxLjA4NDQsODcwLjI4MzMsNTE1LjEyNzYsODY0Ljg1MDQsNTE2LjcwMzgsODYzLjI3NDMsNTExLjI3MDksODYyLjQ0LDUyMS4wODQ0IiBzdHlsZT0ic3Ryb2tlOiMxODE4MTg7c3Ryb2tlLXdpZHRoOjE7Ii8+PHRleHQgZmlsbD0iIzAwMDAwMCIgZm9udC1mYW1pbHk9InNhbnMtc2VyaWYiIGZvbnQtc2l6ZT0iMTMiIGxlbmd0aEFkanVzdD0ic3BhY2luZyIgdGV4dExlbmd0aD0iNDUuNSIgeD0iODg2IiB5PSI0ODIuMjczNCI+bWFuYWdlczwvdGV4dD48L2c+PCEtLWxpbmsgVGVuYW50IHRvIFJlcXVlc3QtLT48ZyBjbGFzcz0ibGluayIgZGF0YS1lbnRpdHktMT0iVGVuYW50IiBkYXRhLWVudGl0eS0yPSJSZXF1ZXN0IiBkYXRhLXNvdXJjZS1saW5lPSIxMTUiIGRhdGEtdWlkPSJsbmsxNCIgaWQ9ImxpbmtfVGVuYW50X1JlcXVlc3QiPjxwYXRoIGNvZGVMaW5lPSIxMTUiIGQ9Ik00NzYuODUsMTIwLjY1NDQgQzM5OS4wNywxMzkuOTM0NCAyNzEuMTksMTc4LjQ0NDQgMTc2LDI0MC45ODQ0IEMxNzAuMzIsMjQ0LjcyNDQgMTY5LjM3NjcsMjQ1LjA4MDggMTYzLjkzNjcsMjQ5LjUwMDgiIGZpbGw9Im5vbmUiIGlkPSJUZW5hbnQtdG8tUmVxdWVzdCIgc3R5bGU9InN0cm9rZTojMTgxODE4O3N0cm9rZS13aWR0aDoxOyIvPjxwb2x5Z29uIGZpbGw9IiMxODE4MTgiIHBvaW50cz0iMTU5LjI4LDI1My4yODQ0LDE2OC43ODc0LDI1MC43MTM1LDE2My4xNjA2LDI1MC4xMzE0LDE2My43NDI3LDI0NC41MDQ2LDE1OS4yOCwyNTMuMjg0NCIgc3R5bGU9InN0cm9rZTojMTgxODE4O3N0cm9rZS13aWR0aDoxOyIvPjx0ZXh0IGZpbGw9IiMwMDAwMDAiIGZvbnQtZmFtaWx5PSJzYW5zLXNlcmlmIiBmb250LXNpemU9IjEzIiBsZW5ndGhBZGp1c3Q9InNwYWNpbmciIHRleHRMZW5ndGg9IjQ1LjUiIHg9IjI1MiIgeT0iMjA5LjI3MzQiPmNyZWF0ZXM8L3RleHQ+PHRleHQgZmlsbD0iIzAwMDAwMCIgZm9udC1mYW1pbHk9InNhbnMtc2VyaWYiIGZvbnQtc2l6ZT0iMTMiIGxlbmd0aEFkanVzdD0ic3BhY2luZyIgdGV4dExlbmd0aD0iNi41IiB4PSI0NjIuNTM2NiIgeT0iMTIxLjExODkiPjE8L3RleHQ+PHRleHQgZmlsbD0iIzAwMDAwMCIgZm9udC1mYW1pbHk9InNhbnMtc2VyaWYiIGZvbnQtc2l6ZT0iMTMiIGxlbmd0aEFkanVzdD0ic3BhY2luZyIgdGV4dExlbmd0aD0iMjYiIHg9IjE2Ni45NTI1IiB5PSIyNDQuNjEwMSI+bWFueTwvdGV4dD48L2c+PCEtLWxpbmsgVGVuYW50IHRvIFJlZmVycmFsLS0+PGcgY2xhc3M9ImxpbmsiIGRhdGEtZW50aXR5LTE9IlRlbmFudCIgZGF0YS1lbnRpdHktMj0iUmVmZXJyYWwiIGRhdGEtc291cmNlLWxpbmU9IjExNiIgZGF0YS11aWQ9ImxuazE1IiBpZD0ibGlua19UZW5hbnRfUmVmZXJyYWwiPjxwYXRoIGNvZGVMaW5lPSIxMTYiIGQ9Ik01MjMuODksMTY2LjIyNDQgQzUxMy4xMiwxOTUuODE0NCA1MDIuMTAxOSwyMjYuMDY2MSA0OTAuNjgxOSwyNTcuNDQ2MSIgZmlsbD0ibm9uZSIgaWQ9IlRlbmFudC10by1SZWZlcnJhbCIgc3R5bGU9InN0cm9rZTojMTgxODE4O3N0cm9rZS13aWR0aDoxOyIvPjxwb2x5Z29uIGZpbGw9IiMxODE4MTgiIHBvaW50cz0iNDg4LjYzLDI2My4wODQ0LDQ5NS40NjY3LDI1NS45OTUsNDkwLjMzOTksMjU4LjM4NTgsNDg3Ljk0OSwyNTMuMjU5MSw0ODguNjMsMjYzLjA4NDQiIHN0eWxlPSJzdHJva2U6IzE4MTgxODtzdHJva2Utd2lkdGg6MTsiLz48dGV4dCBmaWxsPSIjMDAwMDAwIiBmb250LWZhbWlseT0ic2Fucy1zZXJpZiIgZm9udC1zaXplPSIxMyIgbGVuZ3RoQWRqdXN0PSJzcGFjaW5nIiB0ZXh0TGVuZ3RoPSI0NS41IiB4PSI1MTMiIHk9IjIwOS4yNzM0Ij5zdWJtaXRzPC90ZXh0Pjx0ZXh0IGZpbGw9IiMwMDAwMDAiIGZvbnQtZmFtaWx5PSJzYW5zLXNlcmlmIiBmb250LXNpemU9IjEzIiBsZW5ndGhBZGp1c3Q9InNwYWNpbmciIHRleHRMZW5ndGg9IjYuNSIgeD0iNTE1LjE3MDkiIHk9IjE4Ni4wMzE0Ij4xPC90ZXh0Pjx0ZXh0IGZpbGw9IiMwMDAwMDAiIGZvbnQtZmFtaWx5PSJzYW5zLXNlcmlmIiBmb250LXNpemU9IjEzIiBsZW5ndGhBZGp1c3Q9InNwYWNpbmciIHRleHRMZW5ndGg9IjI2IiB4PSI0NjQuMTM4NyIgeT0iMjUzLjgyNTYiPm1hbnk8L3RleHQ+PC9nPjwhLS1saW5rIFRlbmFudCB0byBSZXZpZXctLT48ZyBjbGFzcz0ibGluayIgZGF0YS1lbnRpdHktMT0iVGVuYW50IiBkYXRhLWVudGl0eS0yPSJSZXZpZXciIGRhdGEtc291cmNlLWxpbmU9IjExNyIgZGF0YS11aWQ9ImxuazE2IiBpZD0ibGlua19UZW5hbnRfUmV2aWV3Ij48cGF0aCBjb2RlTGluZT0iMTE3IiBkPSJNNTY4LjExLDE2Ni4yMjQ0IEM1NzguMDUsMTkzLjUyNDQgNTg3Ljg3NzUsMjIwLjUyNjMgNTk4LjYyNzUsMjUwLjA1NjMiIGZpbGw9Im5vbmUiIGlkPSJUZW5hbnQtdG8tUmV2aWV3IiBzdHlsZT0ic3Ryb2tlOiMxODE4MTg7c3Ryb2tlLXdpZHRoOjE7Ii8+PHBvbHlnb24gZmlsbD0iIzE4MTgxOCIgcG9pbnRzPSI2MDAuNjgsMjU1LjY5NDQsNjAxLjM2LDI0NS44NjksNTk4Ljk2OTYsMjUwLjk5Niw1OTMuODQyNiwyNDguNjA1Niw2MDAuNjgsMjU1LjY5NDQiIHN0eWxlPSJzdHJva2U6IzE4MTgxODtzdHJva2Utd2lkdGg6MTsiLz48dGV4dCBmaWxsPSIjMDAwMDAwIiBmb250LWZhbWlseT0ic2Fucy1zZXJpZiIgZm9udC1zaXplPSIxMyIgbGVuZ3RoQWRqdXN0PSJzcGFjaW5nIiB0ZXh0TGVuZ3RoPSIzOSIgeD0iNTg0IiB5PSIyMDkuMjczNCI+d3JpdGVzPC90ZXh0Pjx0ZXh0IGZpbGw9IiMwMDAwMDAiIGZvbnQtZmFtaWx5PSJzYW5zLXNlcmlmIiBmb250LXNpemU9IjEzIiBsZW5ndGhBZGp1c3Q9InNwYWNpbmciIHRleHRMZW5ndGg9IjYuNSIgeD0iNTY0LjIyNzUiIHk9IjE4Ni4wMzE0Ij4xPC90ZXh0Pjx0ZXh0IGZpbGw9IiMwMDAwMDAiIGZvbnQtZmFtaWx5PSJzYW5zLXNlcmlmIiBmb250LXNpemU9IjEzIiBsZW5ndGhBZGp1c3Q9InNwYWNpbmciIHRleHRMZW5ndGg9IjI2IiB4PSI1NzAuNTUxMSIgeT0iMjQ2LjM3OTUiPm1hbnk8L3RleHQ+PC9nPjwhLS1saW5rIExhbmRsb3JkIHRvIExpc3RpbmctLT48ZyBjbGFzcz0ibGluayIgZGF0YS1lbnRpdHktMT0iTGFuZGxvcmQiIGRhdGEtZW50aXR5LTI9Ikxpc3RpbmciIGRhdGEtc291cmNlLWxpbmU9IjExOCIgZGF0YS11aWQ9ImxuazE3IiBpZD0ibGlua19MYW5kbG9yZF9MaXN0aW5nIj48cGF0aCBjb2RlTGluZT0iMTE4IiBkPSJNMjcwLDQwMS42MzQ0IEMyNzAsNDM0LjI2NDQgMjcwLDQ2OS41NzQ0IDI3MCw1MDcuODg0NCIgZmlsbD0ibm9uZSIgaWQ9IkxhbmRsb3JkLXRvLUxpc3RpbmciIHN0eWxlPSJzdHJva2U6IzE4MTgxODtzdHJva2Utd2lkdGg6MTsiLz48cG9seWdvbiBmaWxsPSIjMTgxODE4IiBwb2ludHM9IjI3MCw1MTMuODg0NCwyNzQsNTA0Ljg4NDQsMjcwLDUwOC44ODQ0LDI2Niw1MDQuODg0NCwyNzAsNTEzLjg4NDQiIHN0eWxlPSJzdHJva2U6IzE4MTgxODtzdHJva2Utd2lkdGg6MTsiLz48dGV4dCBmaWxsPSIjMDAwMDAwIiBmb250LWZhbWlseT0ic2Fucy1zZXJpZiIgZm9udC1zaXplPSIxMyIgbGVuZ3RoQWRqdXN0PSJzcGFjaW5nIiB0ZXh0TGVuZ3RoPSIyNiIgeD0iMjcxIiB5PSI0ODIuMjczNCI+b3duczwvdGV4dD48dGV4dCBmaWxsPSIjMDAwMDAwIiBmb250LWZhbWlseT0ic2Fucy1zZXJpZiIgZm9udC1zaXplPSIxMyIgbGVuZ3RoQWRqdXN0PSJzcGFjaW5nIiB0ZXh0TGVuZ3RoPSI2LjUiIHg9IjI2My42ODIiIHk9IjQyMS44NjA2Ij4xPC90ZXh0Pjx0ZXh0IGZpbGw9IiMwMDAwMDAiIGZvbnQtZmFtaWx5PSJzYW5zLXNlcmlmIiBmb250LXNpemU9IjEzIiBsZW5ndGhBZGp1c3Q9InNwYWNpbmciIHRleHRMZW5ndGg9IjI2IiB4PSIyNDMuMDQ1MyIgeT0iNTA0LjM1NzMiPm1hbnk8L3RleHQ+PC9nPjwhLS1saW5rIFJlcXVlc3QgdG8gTGlzdGluZy0tPjxnIGNsYXNzPSJsaW5rIiBkYXRhLWVudGl0eS0xPSJSZXF1ZXN0IiBkYXRhLWVudGl0eS0yPSJMaXN0aW5nIiBkYXRhLXNvdXJjZS1saW5lPSIxMTkiIGRhdGEtdWlkPSJsbmsxOCIgaWQ9ImxpbmtfUmVxdWVzdF9MaXN0aW5nIj48cGF0aCBjb2RlTGluZT0iMTE5IiBkPSJNMTQ3LjA5LDQzOS4wMDQ0IEMxNjIuODUsNDYzLjEwNDQgMTc2LjU1Niw0ODQuMDcyOSAxOTIuNzM2LDUwOC44MTI5IiBmaWxsPSJub25lIiBpZD0iUmVxdWVzdC10by1MaXN0aW5nIiBzdHlsZT0ic3Ryb2tlOiMxODE4MTg7c3Ryb2tlLXdpZHRoOjE7Ii8+PHBvbHlnb24gZmlsbD0iIzE4MTgxOCIgcG9pbnRzPSIxOTYuMDIsNTEzLjgzNDQsMTk0LjQ0MTYsNTA0LjExMjgsMTkzLjI4MzMsNTA5LjY0OTgsMTg3Ljc0NjMsNTA4LjQ5MTUsMTk2LjAyLDUxMy44MzQ0IiBzdHlsZT0ic3Ryb2tlOiMxODE4MTg7c3Ryb2tlLXdpZHRoOjE7Ii8+PHRleHQgZmlsbD0iIzAwMDAwMCIgZm9udC1mYW1pbHk9InNhbnMtc2VyaWYiIGZvbnQtc2l6ZT0iMTMiIGxlbmd0aEFkanVzdD0ic3BhY2luZyIgdGV4dExlbmd0aD0iNDUuNSIgeD0iMTc4IiB5PSI0ODIuMjczNCI+bWF0Y2hlczwvdGV4dD48L2c+PCEtLWxpbmsgQWRtaW5pc3RyYXRvciB0byBBZG1pbkFjdGlvbi0tPjxnIGNsYXNzPSJsaW5rIiBkYXRhLWVudGl0eS0xPSJBZG1pbmlzdHJhdG9yIiBkYXRhLWVudGl0eS0yPSJBZG1pbkFjdGlvbiIgZGF0YS1zb3VyY2UtbGluZT0iMTIwIiBkYXRhLXVpZD0ibG5rMTkiIGlkPSJsaW5rX0FkbWluaXN0cmF0b3JfQWRtaW5BY3Rpb24iPjxwYXRoIGNvZGVMaW5lPSIxMjAiIGQ9Ik05MzkuOTIsMzk0LjIxNDQgQzk1NC4wNyw0MTYuNTI0NCA5NjkuMzYsNDQzLjIxNDQgOTgwLDQ2OC45ODQ0IEM5ODkuNzYsNDkyLjYxNDQgOTk2LjA5NjcsNTEzLjQ1MDggMTAwMi4wMTY3LDUzOC4wNjA4IiBmaWxsPSJub25lIiBpZD0iQWRtaW5pc3RyYXRvci10by1BZG1pbkFjdGlvbiIgc3R5bGU9InN0cm9rZTojMTgxODE4O3N0cm9rZS13aWR0aDoxOyIvPjxwb2x5Z29uIGZpbGw9IiMxODE4MTgiIHBvaW50cz0iMTAwMy40Miw1NDMuODk0NCwxMDA1LjIwNDEsNTM0LjIwODUsMTAwMi4yNTA2LDUzOS4wMzMsOTk3LjQyNiw1MzYuMDc5NSwxMDAzLjQyLDU0My44OTQ0IiBzdHlsZT0ic3Ryb2tlOiMxODE4MTg7c3Ryb2tlLXdpZHRoOjE7Ii8+PHRleHQgZmlsbD0iIzAwMDAwMCIgZm9udC1mYW1pbHk9InNhbnMtc2VyaWYiIGZvbnQtc2l6ZT0iMTMiIGxlbmd0aEFkanVzdD0ic3BhY2luZyIgdGV4dExlbmd0aD0iNTIiIHg9Ijk4NSIgeT0iNDgyLjI3MzQiPnBlcmZvcm1zPC90ZXh0PjwvZz48IS0tbGluayBBZG1pbmlzdHJhdG9yIHRvIExpc3RpbmctLT48ZyBjbGFzcz0ibGluayIgZGF0YS1lbnRpdHktMT0iQWRtaW5pc3RyYXRvciIgZGF0YS1lbnRpdHktMj0iTGlzdGluZyIgZGF0YS1zb3VyY2UtbGluZT0iMTIxIiBkYXRhLXVpZD0ibG5rMjAiIGlkPSJsaW5rX0FkbWluaXN0cmF0b3JfTGlzdGluZyI+PHBhdGggY29kZUxpbmU9IjEyMSIgZD0iTTgzNy4wNiwzNzQuNDY0NCBDNzk4LjQ5LDM5My43OTQ0IDc0OC43NCw0MTguMjk0NCA3MDQsNDM4Ljk4NDQgQzU4MS40LDQ5NS42ODQ0IDQ0Mi42OTI4LDU1NC44MjMxIDM1NS4yNDI4LDU5MS41MTMxIiBmaWxsPSJub25lIiBpZD0iQWRtaW5pc3RyYXRvci10by1MaXN0aW5nIiBzdHlsZT0ic3Ryb2tlOiMxODE4MTg7c3Ryb2tlLXdpZHRoOjE7Ii8+PHBvbHlnb24gZmlsbD0iIzE4MTgxOCIgcG9pbnRzPSIzNDkuNzEsNTkzLjgzNDQsMzU5LjU1NjcsNTk0LjA0MDksMzU0LjMyMDYsNTkxLjksMzU2LjQ2MTYsNTg2LjY2MzksMzQ5LjcxLDU5My44MzQ0IiBzdHlsZT0ic3Ryb2tlOiMxODE4MTg7c3Ryb2tlLXdpZHRoOjE7Ii8+PHRleHQgZmlsbD0iIzAwMDAwMCIgZm9udC1mYW1pbHk9InNhbnMtc2VyaWYiIGZvbnQtc2l6ZT0iMTMiIGxlbmd0aEFkanVzdD0ic3BhY2luZyIgdGV4dExlbmd0aD0iNTIiIHg9IjYzNCIgeT0iNDgyLjI3MzQiPnZlcmlmaWVzPC90ZXh0PjwvZz48IS0tU1JDPVtUTExEUnppbTNCdHhMbll2UkNGR213dXY1RVl3b3UyWTY4ZU1FbmdBcEpaMnpFNTlUOEFXc3R5VjlMOXN4Mkt0eVBhWTd3Yjc2WktRZzlfRmV6c2ZQdC1neC1mN2VzQWlsc2RMMXNNaHdhRnpMS01ldG84NF9iSXJzSTQzeHJMRERxT3dEaGhCUHdTaXYwRE9mS3EtM1VILXllNl8zbVZsZTc2SzNhODZXWlR5dUdYMXh0TWhLN2xOSDVHdUhpOF9ybTV3N0g3Mm5xX1BEQnhOSml4WnEyYzQ3eTdsakc3MVNmWHBPYVYwdHlKXzVQbm9NQlNOdjBMWS1hRTBGR0htQk4zMkRXMTVWTzdWOHFJS2dCbFdKbjZVWThYc1ZIR21aWmtoeUlOVDNpZThVMGV3Tkp2Z0UxSzJKeWZyWFhnbWUzMjFKNEJySEUzU0pFcVJXWHlXZThSTy05RTNCaVNVVjRKWDhEYTJuQzZ4eGpLbHdRUmlYTFNpRDF1d2dudFQzV2Z6TTcxUFZYNTIyTWlDN0M1U3o3TVB0SWY3bDVFbElxbHNIbE1GdFk0dWRBaGRBeWxZMVVES1hncVk4S29JcEFTRU9YbHFhMUoxWmZ4Ym1TQVg3OHNvVmRJT3hPQ2Q3SlB1N2xZa0VmQi1yNHVSWlVUUEpYSUp0aFA5WlBJVWdndlI1aU1ZTWhWUC1ZRWlZbS1fdGZvYW9WQkJ2U2YzQkNlanNCaUdwelBLUmpQWWlMWUMwUmZjS1Vua3g3Z3VNa1V3RDVQbFRyRjlMYzV4LUFkbmlBb2NESnZVVTRlZmhBMUxCR0FNT2pZeU5pcktKOTh0cGtma0lJQWduUU8zZkZPblUtVEgxZjJVUDNMS0xGal9Ta09QTXQ3Qks2Nk1aRWt5WjBwVm41RWJMV1dyUXVkaEpSNUNlcHRuSWxQb28xeFF6NzNfWnZaV0NjM1BBMG51dDhoMWR3T3RIWEtlS3RFdlBtTFFaR3hwWFIzdG1QUVRtSFFkZGRWZVA2Vk10enMxblhpTHhTMUFUa0ZUdFBfeGxFSWhRTEZEcTc5WHA3WGdHOG8tckxjdmlTSlFWRGNHcXRzemVPTG50YXBaaTFNMXRsT0pnTXJiclR2c3BFLSAtdlVLUlB5T2hseDlzalpOanI1V0w3aWJaX2ZHN1g4QWlReG5WbEU2c0RGUVF1bm9DVnNmTmUtS1Z3NVBzUUZtN10tLT48L2c+PC9zdmc+;fontFamily=Times New Roman;" vertex="1" parent="1">
            <mxGeometry x="-349" y="-242" width="1098" height="748" as="geometry" />
          </mxCell>
        </UserObject>
      </root>
    </mxGraphModel>
  </diagram>
</mxfile>
